<svg width="750" height="500" viewBox="0 0 750 500" fill="none" xmlns="http://www.w3.org/2000/svg">
<path d="M622.188 93.5766C623.005 73.1529 609.615 56.0342 592.282 55.3411C574.949 54.6479 560.235 70.6428 559.418 91.0665C558.602 111.49 571.991 128.609 589.324 129.302C606.658 129.995 621.371 114 622.188 93.5766Z" fill="#EBEBEB"/>
<path d="M612.639 93.3505C611.749 111.951 599.339 126.751 584.029 128.561C585.669 128.959 587.343 129.201 589.029 129.281C606.359 130.171 621.199 114.341 622.179 93.9205C623.159 73.5005 609.909 56.2405 592.579 55.3505C591.068 55.2749 589.552 55.3251 588.049 55.5005C602.839 59.0905 613.519 74.9405 612.639 93.3505Z" fill="#E0E0E0"/>
<path d="M367.405 455.395C387.742 453.404 403.446 443.792 402.481 433.926C401.515 424.06 384.245 417.675 363.908 419.665C343.571 421.656 327.867 431.268 328.832 441.134C329.798 451.001 347.068 457.385 367.405 455.395Z" fill="#EBEBEB"/>
<path d="M366.001 450.001C347.441 451.471 332.001 446.001 329.261 437.471C328.968 438.412 328.827 439.394 328.841 440.381C329.011 450.321 345.641 457.081 366.001 455.471C386.361 453.861 402.741 444.521 402.571 434.581C402.555 433.711 402.41 432.848 402.141 432.021C399.451 440.831 384.341 448.581 366.001 450.001Z" fill="#E0E0E0"/>
<path d="M105.48 400.879C115.831 392.209 115.943 375.295 105.73 363.101C95.5166 350.908 78.8452 348.052 68.4935 356.723C58.1417 365.394 58.0296 382.308 68.243 394.501C78.4564 406.695 95.1278 409.55 105.48 400.879Z" fill="#EBEBEB"/>
<path d="M73.9996 389.8C83.3996 400.8 98.0796 404.06 108.37 397.89C107.548 398.912 106.634 399.856 105.64 400.71C95.3896 409.49 78.7196 406.8 68.4096 394.71C58.0996 382.62 58.0496 365.66 68.2996 356.88C69.1968 356.114 70.1568 355.425 71.1696 354.82C63.7796 364 64.7296 378.88 73.9996 389.8Z" fill="#E0E0E0"/>
<path d="M70.1616 254.351C70.3136 243.981 64.6888 235.489 57.5982 235.385C50.5077 235.281 44.6364 243.604 44.4843 253.975C44.3322 264.346 49.957 272.837 57.0476 272.941C64.1382 273.045 70.0095 264.722 70.1616 254.351Z" fill="#EBEBEB"/>
<path d="M48.3901 253.861C48.1801 263.311 52.7901 271.281 58.9701 272.771C58.3125 272.907 57.6414 272.968 56.9701 272.951C49.8801 272.741 44.3101 264.161 44.5401 253.791C44.7701 243.421 50.6901 235.181 57.7801 235.391C58.4006 235.408 59.0174 235.492 59.6201 235.641C53.4301 236.891 48.5901 244.511 48.3901 253.861Z" fill="#E0E0E0"/>
<path d="M659.61 338.39C654.24 348.53 656.87 360.44 665.5 364.97C674.13 369.5 685.5 364.97 690.85 354.82C696.2 344.67 693.59 332.77 684.97 328.23C676.35 323.69 665 328.24 659.61 338.39Z" fill="#EBEBEB"/>
<path d="M686.09 352.37C690.99 343.12 689.23 332.37 682.35 327.15C683.254 327.43 684.131 327.791 684.97 328.23C693.59 332.77 696.23 344.67 690.85 354.82C685.47 364.97 674.12 369.51 665.5 365C664.745 364.606 664.026 364.148 663.35 363.63C671.53 366.11 681.24 361.52 686.09 352.37Z" fill="#E0E0E0"/>
<path d="M208.893 91.9405C214.158 76.9313 208.097 61.1406 195.355 56.6709C182.612 52.2011 168.015 60.745 162.75 75.7542C157.485 90.7633 163.546 106.554 176.288 111.024C189.031 115.494 203.628 106.95 208.893 91.9405Z" fill="#EBEBEB"/>
<path d="M167.9 77.4002C163.21 91.1102 167.9 105.4 178.5 111.07C177.205 110.887 175.93 110.586 174.69 110.17C161.9 105.84 155.69 90.1702 160.85 75.0802C166.01 59.9902 180.53 51.3402 193.32 55.6602C194.435 56.0439 195.519 56.5154 196.56 57.0702C184.81 55.4202 172.54 63.8202 167.9 77.4002Z" fill="#E0E0E0"/>
<path d="M519.51 82.5306L523.72 85.0306C523.844 85.1074 523.944 85.216 524.011 85.3451C524.079 85.4742 524.11 85.6191 524.101 85.7644C524.093 85.9096 524.046 86.0501 523.965 86.1708C523.884 86.2916 523.771 86.3882 523.64 86.4506L519.18 88.6806C519.04 88.7507 518.923 88.858 518.84 88.9906L516.23 93.2506C516.16 93.3778 516.057 93.4839 515.932 93.5578C515.808 93.6317 515.665 93.6707 515.52 93.6707C515.375 93.6707 515.232 93.6317 515.107 93.5578C514.982 93.4839 514.88 93.3778 514.81 93.2506L512.68 88.8506C512.612 88.7117 512.504 88.5965 512.37 88.5206L508.17 86.0006C508.046 85.9239 507.946 85.8152 507.878 85.6861C507.811 85.557 507.78 85.4122 507.788 85.2669C507.797 85.1216 507.844 84.9811 507.925 84.8604C508.006 84.7396 508.118 84.643 508.25 84.5806L512.71 82.3506C512.85 82.2805 512.967 82.1732 513.05 82.0406L515.65 77.7906C515.721 77.6636 515.825 77.558 515.951 77.4844C516.076 77.4108 516.219 77.3721 516.365 77.3721C516.511 77.3721 516.653 77.4108 516.779 77.4844C516.905 77.558 517.009 77.6636 517.08 77.7906L519.21 82.1906C519.276 82.3296 519.38 82.4473 519.51 82.5306Z" fill="#E0E0E0"/>
<path d="M112.619 444.411L116.829 446.911C116.953 446.988 117.054 447.096 117.121 447.226C117.188 447.355 117.219 447.5 117.211 447.645C117.203 447.79 117.155 447.931 117.074 448.051C116.993 448.172 116.881 448.269 116.749 448.331L112.289 450.561C112.15 450.631 112.032 450.738 111.949 450.871L109.339 455.131C109.265 455.256 109.159 455.359 109.031 455.428C108.904 455.498 108.76 455.532 108.614 455.527C108.469 455.522 108.328 455.478 108.206 455.399C108.084 455.321 107.985 455.211 107.919 455.081L105.789 450.681C105.719 450.544 105.612 450.43 105.479 450.351L101.279 447.851C101.156 447.774 101.055 447.666 100.988 447.537C100.921 447.407 100.89 447.263 100.898 447.117C100.906 446.972 100.953 446.832 101.034 446.711C101.116 446.59 101.228 446.493 101.359 446.431L105.819 444.191C105.961 444.124 106.08 444.016 106.159 443.881L108.759 439.631C108.829 439.504 108.932 439.398 109.057 439.324C109.182 439.25 109.324 439.211 109.469 439.211C109.614 439.211 109.757 439.25 109.882 439.324C110.007 439.398 110.109 439.504 110.179 439.631L112.319 444.041C112.379 444.192 112.484 444.322 112.619 444.411Z" fill="#E0E0E0"/>
<path d="M483.76 441.441L487.97 443.941C488.094 444.018 488.194 444.126 488.261 444.255C488.328 444.384 488.36 444.529 488.351 444.674C488.343 444.82 488.296 444.96 488.215 445.081C488.134 445.202 488.021 445.298 487.89 445.361L483.43 447.601C483.288 447.668 483.169 447.776 483.09 447.911L480.48 452.161C480.41 452.288 480.307 452.394 480.182 452.468C480.058 452.542 479.915 452.581 479.77 452.581C479.625 452.581 479.482 452.542 479.357 452.468C479.233 452.394 479.13 452.288 479.06 452.161L476.93 447.751C476.86 447.614 476.752 447.5 476.62 447.421L472.42 444.921C472.296 444.844 472.196 444.735 472.128 444.606C472.061 444.477 472.03 444.332 472.038 444.187C472.047 444.042 472.094 443.901 472.175 443.781C472.256 443.66 472.368 443.563 472.5 443.501L476.96 441.271C477.1 441.201 477.217 441.093 477.3 440.961L479.9 436.701C479.971 436.574 480.075 436.468 480.201 436.395C480.326 436.321 480.469 436.282 480.615 436.282C480.761 436.282 480.903 436.321 481.029 436.395C481.155 436.468 481.259 436.574 481.33 436.701L483.46 441.101C483.525 441.241 483.629 441.359 483.76 441.441Z" fill="#E0E0E0"/>
<path d="M666.921 437.83L671.121 440.34C671.245 440.415 671.347 440.522 671.415 440.65C671.483 440.777 671.516 440.921 671.509 441.066C671.501 441.211 671.455 441.351 671.374 441.472C671.294 441.592 671.182 441.688 671.051 441.75L666.581 444C666.441 444.07 666.323 444.177 666.241 444.31L663.641 448.56C663.571 448.687 663.468 448.794 663.343 448.868C663.218 448.941 663.076 448.98 662.931 448.98C662.785 448.98 662.643 448.941 662.518 448.868C662.393 448.794 662.29 448.687 662.221 448.56L660.081 444.16C660.017 444.019 659.913 443.9 659.781 443.82L655.581 441.32C655.457 441.244 655.355 441.136 655.287 441.008C655.219 440.879 655.187 440.735 655.194 440.59C655.202 440.444 655.248 440.304 655.328 440.182C655.408 440.061 655.52 439.964 655.651 439.9L660.111 437.67C660.25 437.6 660.368 437.493 660.451 437.36L663.061 433.1C663.135 432.975 663.241 432.873 663.369 432.803C663.496 432.734 663.64 432.699 663.785 432.705C663.931 432.71 664.072 432.754 664.194 432.832C664.316 432.911 664.415 433.02 664.481 433.15L666.621 437.55C666.692 437.67 666.796 437.767 666.921 437.83Z" fill="#E0E0E0"/>
<path d="M218.21 131L222.41 133.5C222.534 133.576 222.635 133.684 222.703 133.812C222.771 133.941 222.803 134.085 222.796 134.231C222.789 134.376 222.742 134.517 222.662 134.638C222.582 134.759 222.471 134.857 222.34 134.92L217.87 137.16C217.73 137.23 217.612 137.337 217.53 137.47L214.93 141.72C214.86 141.847 214.757 141.953 214.632 142.027C214.507 142.101 214.365 142.14 214.22 142.14C214.074 142.14 213.932 142.101 213.807 142.027C213.682 141.953 213.579 141.847 213.51 141.72L211.37 137.31C211.303 137.173 211.199 137.059 211.07 136.98L206.87 134.48C206.746 134.404 206.644 134.296 206.576 134.168C206.508 134.039 206.476 133.894 206.483 133.749C206.491 133.604 206.537 133.463 206.617 133.342C206.697 133.221 206.809 133.123 206.94 133.06L211.41 130.83C211.544 130.757 211.658 130.65 211.74 130.52L214.35 126.26C214.419 126.133 214.522 126.027 214.647 125.953C214.772 125.879 214.914 125.84 215.06 125.84C215.205 125.84 215.347 125.879 215.472 125.953C215.597 126.027 215.7 126.133 215.77 126.26L217.91 130.66C217.972 130.802 218.076 130.921 218.21 131Z" fill="#E0E0E0"/>
<path d="M245.059 46.5305L249.259 49.0305C249.383 49.1072 249.483 49.2159 249.55 49.345C249.618 49.4741 249.649 49.6189 249.64 49.7642C249.632 49.9095 249.585 50.0499 249.504 50.1707C249.423 50.2915 249.31 50.3881 249.179 50.4505L244.719 52.6905C244.577 52.7573 244.459 52.8653 244.379 53.0005L241.779 57.2505C241.708 57.3774 241.604 57.4831 241.478 57.5567C241.353 57.6302 241.21 57.669 241.064 57.669C240.918 57.669 240.775 57.6302 240.65 57.5567C240.524 57.4831 240.42 57.3774 240.349 57.2505L238.219 52.8405C238.15 52.706 238.046 52.5922 237.919 52.5105L233.709 50.0005C233.585 49.9237 233.485 49.8151 233.418 49.686C233.35 49.5568 233.319 49.412 233.327 49.2667C233.336 49.1214 233.383 48.981 233.464 48.8603C233.545 48.7395 233.657 48.6429 233.789 48.5805L238.249 46.3505C238.389 46.2804 238.506 46.1731 238.589 46.0405L241.199 41.7805C241.269 41.6533 241.372 41.5472 241.496 41.4733C241.621 41.3993 241.764 41.3604 241.909 41.3604C242.054 41.3604 242.197 41.3993 242.321 41.4733C242.446 41.5472 242.549 41.6533 242.619 41.7805L244.749 46.1805C244.813 46.3268 244.921 46.4493 245.059 46.5305Z" fill="#E0E0E0"/>
<path d="M108.879 83.3208L110.999 84.5908C111.064 84.6261 111.118 84.6781 111.156 84.7415C111.193 84.8048 111.213 84.8771 111.213 84.9508C111.213 85.0245 111.193 85.0968 111.156 85.1602C111.118 85.2235 111.064 85.2756 110.999 85.3108L108.739 86.4508C108.67 86.4838 108.611 86.5358 108.569 86.6008L107.249 88.7608C107.213 88.8253 107.16 88.8788 107.095 88.9161C107.031 88.9534 106.958 88.973 106.884 88.973C106.81 88.973 106.737 88.9534 106.673 88.9161C106.609 88.8788 106.556 88.8253 106.519 88.7608L105.439 86.5308C105.406 86.4612 105.354 86.4023 105.289 86.3608L103.149 85.0908C103.085 85.0556 103.031 85.0035 102.993 84.9402C102.955 84.8768 102.936 84.8045 102.936 84.7308C102.936 84.6571 102.955 84.5848 102.993 84.5215C103.031 84.4581 103.085 84.4061 103.149 84.3708L105.419 83.2308C105.489 83.1978 105.548 83.1458 105.589 83.0808L106.909 80.9208C106.945 80.8561 106.997 80.8021 107.06 80.7645C107.123 80.7269 107.196 80.707 107.269 80.707C107.343 80.707 107.415 80.7269 107.479 80.7645C107.542 80.8021 107.594 80.8561 107.629 80.9208L108.719 83.1508C108.752 83.2241 108.808 83.2841 108.879 83.3208Z" fill="#E0E0E0"/>
<path d="M346.689 71.0005L348.819 72.2705C348.884 72.3058 348.938 72.3578 348.975 72.4212C349.013 72.4845 349.033 72.5568 349.033 72.6305C349.033 72.7042 349.013 72.7765 348.975 72.8399C348.938 72.9032 348.884 72.9552 348.819 72.9905L346.559 74.1205C346.487 74.1541 346.427 74.2102 346.389 74.2805L344.999 76.4405C344.964 76.5052 344.912 76.5592 344.848 76.5968C344.785 76.6344 344.713 76.6543 344.639 76.6543C344.565 76.6543 344.493 76.6344 344.43 76.5968C344.366 76.5592 344.314 76.5052 344.279 76.4405L343.199 74.2105C343.166 74.1409 343.114 74.0819 343.049 74.0405L340.909 72.7705C340.844 72.7352 340.79 72.6832 340.753 72.6199C340.715 72.5565 340.695 72.4842 340.695 72.4105C340.695 72.3368 340.715 72.2645 340.753 72.2012C340.79 72.1378 340.844 72.0858 340.909 72.0505L343.179 70.9205C343.249 70.8834 343.308 70.8282 343.349 70.7605L344.669 68.6005C344.704 68.5358 344.756 68.4818 344.82 68.4442C344.883 68.4066 344.955 68.3867 345.029 68.3867C345.103 68.3867 345.175 68.4066 345.238 68.4442C345.302 68.4818 345.354 68.5358 345.389 68.6005L346.469 70.8405C346.524 70.9157 346.601 70.9717 346.689 71.0005Z" fill="#E0E0E0"/>
<path d="M544.51 57.0007L546.65 58.2707C546.714 58.306 546.768 58.358 546.806 58.4214C546.844 58.4847 546.863 58.5571 546.863 58.6307C546.863 58.7044 546.844 58.7767 546.806 58.8401C546.768 58.9034 546.714 58.9555 546.65 58.9907L544.38 60.1207C544.31 60.1578 544.251 60.2131 544.21 60.2807L542.89 62.4407C542.854 62.5054 542.802 62.5594 542.739 62.597C542.676 62.6347 542.603 62.6545 542.53 62.6545C542.456 62.6545 542.384 62.6347 542.32 62.597C542.257 62.5594 542.205 62.5054 542.17 62.4407L541.09 60.2007C541.053 60.1307 540.997 60.072 540.93 60.0307L538.8 58.7607C538.735 58.7255 538.681 58.6734 538.643 58.6101C538.606 58.5467 538.586 58.4744 538.586 58.4007C538.586 58.3271 538.606 58.2547 538.643 58.1914C538.681 58.128 538.735 58.076 538.8 58.0407L541.06 56.9107C541.132 56.8771 541.192 56.821 541.23 56.7507L542.56 54.5907C542.595 54.526 542.647 54.472 542.71 54.4344C542.774 54.3968 542.846 54.377 542.92 54.377C542.993 54.377 543.066 54.3968 543.129 54.4344C543.192 54.472 543.244 54.526 543.28 54.5907L544.36 56.8207C544.391 56.8941 544.443 56.9566 544.51 57.0007Z" fill="#E0E0E0"/>
<path d="M681.129 63.9006L683.259 65.1706C683.324 65.2059 683.378 65.2579 683.415 65.3213C683.453 65.3846 683.473 65.4569 683.473 65.5306C683.473 65.6043 683.453 65.6766 683.415 65.74C683.378 65.8033 683.324 65.8554 683.259 65.8906L680.999 67.0006C680.929 67.0377 680.87 67.093 680.829 67.1606L679.509 69.3206C679.472 69.3851 679.419 69.4387 679.355 69.4759C679.291 69.5132 679.218 69.5328 679.144 69.5328C679.07 69.5328 678.997 69.5132 678.933 69.4759C678.869 69.4387 678.816 69.3851 678.779 69.3206L677.699 67.0806C677.666 67.011 677.614 66.9521 677.549 66.9106L675.409 65.6406C675.344 65.6054 675.29 65.5533 675.253 65.49C675.215 65.4266 675.195 65.3543 675.195 65.2806C675.195 65.2069 675.215 65.1346 675.253 65.0713C675.29 65.0079 675.344 64.9559 675.409 64.9206L677.679 63.7906C677.752 63.757 677.811 63.7009 677.849 63.6306L679.169 61.4706C679.204 61.4059 679.256 61.3519 679.32 61.3143C679.383 61.2767 679.455 61.2568 679.529 61.2568C679.603 61.2568 679.675 61.2767 679.738 61.3143C679.802 61.3519 679.854 61.4059 679.889 61.4706L680.999 63.7306C681.024 63.7995 681.069 63.8589 681.129 63.9006Z" fill="#E0E0E0"/>
<path d="M436.939 462.831L439.439 464.291C439.514 464.334 439.576 464.396 439.619 464.47C439.662 464.545 439.685 464.63 439.685 464.716C439.685 464.802 439.662 464.887 439.619 464.962C439.576 465.036 439.514 465.098 439.439 465.141L436.809 466.481C436.727 466.525 436.657 466.591 436.609 466.671L435.089 469.201C435.046 469.276 434.984 469.338 434.91 469.381C434.835 469.424 434.75 469.447 434.664 469.447C434.578 469.447 434.493 469.424 434.419 469.381C434.344 469.338 434.282 469.276 434.239 469.201L432.959 466.601C432.915 466.524 432.854 466.459 432.779 466.411L430.269 464.951C430.194 464.91 430.132 464.849 430.088 464.775C430.044 464.701 430.021 464.617 430.021 464.531C430.021 464.445 430.044 464.361 430.088 464.287C430.132 464.213 430.194 464.153 430.269 464.111L432.899 462.761C432.981 462.721 433.051 462.659 433.099 462.581L434.619 460.041C434.662 459.966 434.724 459.904 434.799 459.861C434.873 459.818 434.958 459.795 435.044 459.795C435.13 459.795 435.215 459.818 435.29 459.861C435.364 459.904 435.426 459.966 435.469 460.041L436.749 462.641C436.791 462.723 436.858 462.789 436.939 462.831Z" fill="#E0E0E0"/>
<path d="M698.429 281.561L700.939 283.021C701.014 283.062 701.077 283.123 701.12 283.197C701.164 283.271 701.187 283.355 701.187 283.441C701.187 283.526 701.164 283.61 701.12 283.684C701.077 283.758 701.014 283.819 700.939 283.861L698.309 285.211C698.225 285.252 698.155 285.318 698.109 285.401L696.589 287.931C696.546 288.005 696.484 288.067 696.41 288.111C696.335 288.154 696.25 288.177 696.164 288.177C696.078 288.177 695.993 288.154 695.919 288.111C695.844 288.067 695.782 288.005 695.739 287.931L694.459 285.331C694.417 285.249 694.351 285.183 694.269 285.141L691.769 283.681C691.694 283.639 691.631 283.578 691.588 283.504C691.544 283.43 691.521 283.346 691.521 283.261C691.521 283.175 691.544 283.091 691.588 283.017C691.631 282.943 691.694 282.882 691.769 282.841L694.399 281.491C694.482 281.446 694.551 281.381 694.599 281.301L696.119 278.771C696.162 278.696 696.224 278.634 696.299 278.59C696.373 278.547 696.458 278.524 696.544 278.524C696.63 278.524 696.715 278.547 696.79 278.59C696.864 278.634 696.926 278.696 696.969 278.771L698.249 281.371C698.29 281.45 698.352 281.516 698.429 281.561Z" fill="#E0E0E0"/>
<path d="M53.0497 303.82L55.0497 305.01C55.11 305.044 55.1602 305.094 55.1952 305.153C55.2302 305.213 55.2486 305.281 55.2486 305.35C55.2486 305.42 55.2302 305.488 55.1952 305.547C55.1602 305.607 55.11 305.656 55.0497 305.69L52.9097 306.76C52.845 306.797 52.7901 306.848 52.7497 306.91L51.4997 308.91C51.4657 308.971 51.4164 309.021 51.3566 309.056C51.2969 309.091 51.2289 309.109 51.1597 309.109C51.0904 309.109 51.0224 309.091 50.9627 309.056C50.9029 309.021 50.8536 308.971 50.8197 308.91L49.8197 306.8C49.7833 306.736 49.7318 306.681 49.6697 306.64L47.6697 305.44C47.6093 305.406 47.5591 305.357 47.5241 305.297C47.4891 305.238 47.4707 305.17 47.4707 305.1C47.4707 305.031 47.4891 304.963 47.5241 304.903C47.5591 304.844 47.6093 304.794 47.6697 304.76L49.8097 303.69C49.8785 303.66 49.935 303.607 49.9697 303.54L51.2197 301.54C51.2512 301.477 51.2997 301.424 51.3598 301.387C51.4198 301.35 51.489 301.33 51.5597 301.33C51.6303 301.33 51.6995 301.35 51.7595 301.387C51.8196 301.424 51.8681 301.477 51.8997 301.54L52.8997 303.65C52.9378 303.716 52.9888 303.774 53.0497 303.82Z" fill="#E0E0E0"/>
<path d="M265.69 452.521L267.69 453.721C267.751 453.755 267.801 453.804 267.836 453.864C267.871 453.923 267.889 453.991 267.889 454.061C267.889 454.13 267.871 454.198 267.836 454.258C267.801 454.317 267.751 454.367 267.69 454.401L265.55 455.471C265.484 455.504 265.428 455.556 265.39 455.621L264.14 457.621C264.106 457.681 264.057 457.731 263.997 457.766C263.938 457.801 263.869 457.82 263.8 457.82C263.731 457.82 263.663 457.801 263.603 457.766C263.544 457.731 263.494 457.681 263.46 457.621L262.46 455.511C262.424 455.446 262.372 455.391 262.31 455.351L260.31 454.151C260.25 454.117 260.2 454.067 260.165 454.008C260.13 453.948 260.111 453.88 260.111 453.811C260.111 453.741 260.13 453.673 260.165 453.614C260.2 453.554 260.25 453.505 260.31 453.471L262.45 452.401C262.519 452.37 262.576 452.317 262.61 452.251L263.86 450.251C263.894 450.19 263.944 450.14 264.003 450.105C264.063 450.07 264.131 450.052 264.2 450.052C264.27 450.052 264.337 450.07 264.397 450.105C264.457 450.14 264.506 450.19 264.54 450.251L265.54 452.361C265.574 452.427 265.626 452.483 265.69 452.521Z" fill="#E0E0E0"/>
<path d="M649.081 403.6L651.081 404.8C651.141 404.834 651.191 404.883 651.226 404.943C651.261 405.003 651.28 405.071 651.28 405.14C651.28 405.209 651.261 405.277 651.226 405.337C651.191 405.397 651.141 405.446 651.081 405.48L648.941 406.55C648.874 406.583 648.819 406.636 648.781 406.7L647.531 408.7C647.497 408.76 647.447 408.81 647.388 408.845C647.328 408.88 647.26 408.899 647.191 408.899C647.121 408.899 647.053 408.88 646.994 408.845C646.934 408.81 646.885 408.76 646.851 408.7L645.851 406.59C645.821 406.524 645.772 406.468 645.711 406.43L643.711 405.23C643.65 405.196 643.6 405.147 643.565 405.087C643.53 405.027 643.512 404.959 643.512 404.89C643.512 404.821 643.53 404.753 643.565 404.693C643.6 404.633 643.65 404.584 643.711 404.55L645.851 403.48C645.92 403.45 645.976 403.397 646.011 403.33L647.261 401.33C647.295 401.269 647.344 401.219 647.404 401.184C647.463 401.149 647.531 401.131 647.601 401.131C647.67 401.131 647.738 401.149 647.798 401.184C647.857 401.219 647.907 401.269 647.941 401.33L648.941 403.43C648.97 403.499 649.019 403.558 649.081 403.6Z" fill="#E0E0E0"/>
<path d="M606.54 451.101L608.54 452.301C608.6 452.334 608.65 452.384 608.685 452.444C608.72 452.503 608.739 452.571 608.739 452.641C608.739 452.71 608.72 452.778 608.685 452.838C608.65 452.897 608.6 452.947 608.54 452.981L606.4 454.051C606.331 454.081 606.275 454.134 606.24 454.201L604.99 456.201C604.956 456.261 604.907 456.311 604.847 456.346C604.787 456.381 604.719 456.4 604.65 456.4C604.581 456.4 604.513 456.381 604.453 456.346C604.393 456.311 604.344 456.261 604.31 456.201L603.31 454.091C603.273 454.029 603.222 453.977 603.16 453.941L601.16 452.741C601.099 452.707 601.049 452.657 601.014 452.598C600.979 452.538 600.961 452.47 600.961 452.401C600.961 452.331 600.979 452.263 601.014 452.204C601.049 452.144 601.099 452.094 601.16 452.061L603.3 450.991C603.365 450.954 603.419 450.903 603.46 450.841L604.71 448.841C604.744 448.78 604.793 448.73 604.853 448.695C604.913 448.66 604.981 448.642 605.05 448.642C605.119 448.642 605.187 448.66 605.247 448.695C605.307 448.73 605.356 448.78 605.39 448.841L606.39 450.951C606.428 451.012 606.479 451.063 606.54 451.101Z" fill="#E0E0E0"/>
<path d="M649.551 145.17L651.731 146.47C651.795 146.507 651.849 146.56 651.886 146.624C651.923 146.688 651.943 146.761 651.943 146.835C651.943 146.909 651.923 146.982 651.886 147.046C651.849 147.11 651.795 147.163 651.731 147.2L649.411 148.36C649.341 148.397 649.282 148.452 649.241 148.52L647.881 150.73C647.844 150.794 647.791 150.848 647.727 150.885C647.663 150.923 647.59 150.942 647.516 150.942C647.442 150.942 647.369 150.923 647.305 150.885C647.241 150.848 647.187 150.794 647.151 150.73L646.001 148.42C645.967 148.348 645.911 148.288 645.841 148.25L643.661 146.95C643.594 146.914 643.538 146.861 643.499 146.796C643.46 146.73 643.439 146.656 643.439 146.58C643.439 146.504 643.46 146.43 643.499 146.364C643.538 146.299 643.594 146.246 643.661 146.21L645.981 145.06C646.051 145.019 646.11 144.961 646.151 144.89L647.501 142.69C647.537 142.623 647.59 142.567 647.655 142.528C647.72 142.489 647.795 142.469 647.871 142.469C647.947 142.469 648.021 142.489 648.086 142.528C648.151 142.567 648.205 142.623 648.241 142.69L649.351 144.97C649.368 145.015 649.395 145.057 649.43 145.091C649.464 145.126 649.505 145.152 649.551 145.17Z" fill="#E0E0E0"/>
<path d="M579.761 183.21L580.761 183.86C580.792 183.875 580.819 183.9 580.837 183.93C580.856 183.96 580.866 183.994 580.866 184.03C580.866 184.065 580.856 184.1 580.837 184.13C580.819 184.16 580.792 184.184 580.761 184.2L579.701 184.71C579.665 184.726 579.637 184.754 579.621 184.79L579.021 185.79C579.003 185.821 578.978 185.847 578.947 185.865C578.916 185.883 578.881 185.893 578.846 185.893C578.81 185.893 578.775 185.883 578.744 185.865C578.713 185.847 578.688 185.821 578.671 185.79L578.121 184.7C578.102 184.666 578.074 184.638 578.041 184.62L577.041 183.97C577.009 183.954 576.983 183.93 576.964 183.9C576.945 183.87 576.936 183.835 576.936 183.8C576.936 183.764 576.945 183.73 576.964 183.7C576.983 183.67 577.009 183.645 577.041 183.63L578.111 183.12C578.144 183.101 578.172 183.074 578.191 183.04L578.791 182.04C578.806 182.008 578.831 181.982 578.861 181.963C578.891 181.944 578.925 181.935 578.961 181.935C578.996 181.935 579.031 181.944 579.061 181.963C579.091 181.982 579.115 182.008 579.131 182.04L579.691 183.13C579.705 183.163 579.73 183.191 579.761 183.21Z" fill="#D7AE6F"/>
<path d="M580.581 334.37L581.581 335.02C581.613 335.035 581.639 335.06 581.658 335.09C581.676 335.12 581.686 335.154 581.686 335.19C581.686 335.225 581.676 335.26 581.658 335.29C581.639 335.32 581.613 335.344 581.581 335.36L580.521 335.87C580.485 335.885 580.456 335.914 580.441 335.95L579.841 336.95C579.824 336.981 579.798 337.007 579.768 337.025C579.737 337.043 579.702 337.053 579.666 337.053C579.63 337.053 579.595 337.043 579.564 337.025C579.534 337.007 579.508 336.981 579.491 336.95L578.941 335.86C578.92 335.828 578.892 335.801 578.861 335.78L577.861 335.14C577.83 335.122 577.804 335.097 577.786 335.066C577.767 335.035 577.758 335 577.758 334.965C577.758 334.929 577.767 334.894 577.786 334.863C577.804 334.832 577.83 334.807 577.861 334.79L578.931 334.28C578.962 334.262 578.989 334.238 579.011 334.21L579.601 333.21C579.618 333.178 579.644 333.152 579.674 333.134C579.705 333.116 579.74 333.106 579.776 333.106C579.812 333.106 579.847 333.116 579.878 333.134C579.908 333.152 579.934 333.178 579.951 333.21L580.501 334.3C580.523 334.328 580.55 334.351 580.581 334.37Z" fill="#D7AE6F"/>
<path d="M622.109 265.1L624.109 266.3C624.17 266.333 624.22 266.383 624.255 266.443C624.29 266.502 624.308 266.57 624.308 266.64C624.308 266.709 624.29 266.777 624.255 266.837C624.22 266.896 624.17 266.946 624.109 266.98L621.999 268.05C621.93 268.083 621.871 268.135 621.829 268.2L620.589 270.2C620.555 270.26 620.506 270.31 620.446 270.345C620.386 270.38 620.318 270.399 620.249 270.399C620.18 270.399 620.112 270.38 620.052 270.345C619.993 270.31 619.943 270.26 619.909 270.2L618.909 268.1C618.88 268.033 618.831 267.978 618.769 267.94L616.769 266.74C616.709 266.706 616.659 266.656 616.624 266.597C616.589 266.537 616.57 266.469 616.57 266.4C616.57 266.33 616.589 266.262 616.624 266.203C616.659 266.143 616.709 266.093 616.769 266.06L618.909 264.99C618.978 264.959 619.035 264.906 619.069 264.84L620.319 262.84C620.353 262.779 620.403 262.729 620.462 262.694C620.522 262.659 620.59 262.641 620.659 262.641C620.728 262.641 620.797 262.659 620.856 262.694C620.916 262.729 620.965 262.779 620.999 262.84L621.999 264.95C622.02 265.01 622.058 265.062 622.109 265.1Z" fill="#D7AE6F"/>
<path d="M568.6 194.53L570.6 195.78C570.661 195.812 570.712 195.86 570.747 195.919C570.782 195.978 570.801 196.046 570.801 196.115C570.801 196.183 570.782 196.251 570.747 196.31C570.712 196.369 570.661 196.417 570.6 196.45L568.53 197.45C568.466 197.486 568.411 197.538 568.37 197.6L567.21 199.6C567.176 199.66 567.127 199.71 567.067 199.745C567.008 199.78 566.94 199.799 566.87 199.799C566.801 199.799 566.733 199.78 566.673 199.745C566.614 199.71 566.564 199.66 566.53 199.6L565.46 197.47C565.424 197.405 565.372 197.35 565.31 197.31L563.31 196.06C563.25 196.026 563.2 195.976 563.165 195.917C563.13 195.857 563.111 195.789 563.111 195.72C563.111 195.65 563.13 195.582 563.165 195.523C563.2 195.463 563.25 195.414 563.31 195.38L565.39 194.38C565.454 194.35 565.506 194.301 565.54 194.24L566.71 192.24C566.743 192.179 566.791 192.128 566.85 192.093C566.909 192.058 566.977 192.039 567.045 192.039C567.114 192.039 567.182 192.058 567.241 192.093C567.3 192.128 567.348 192.179 567.38 192.24L568.46 194.36C568.49 194.429 568.538 194.488 568.6 194.53Z" fill="#D7AE6F"/>
<path d="M93.5202 253.35L95.0502 254.35C95.0961 254.375 95.1345 254.412 95.1612 254.457C95.188 254.502 95.2021 254.553 95.2021 254.605C95.2021 254.657 95.188 254.709 95.1612 254.754C95.1345 254.798 95.0961 254.835 95.0502 254.86L93.4602 255.6C93.409 255.622 93.3668 255.661 93.3402 255.71L92.4302 257.2C92.4053 257.246 92.3685 257.284 92.3236 257.311C92.2787 257.338 92.2274 257.352 92.1752 257.352C92.1229 257.352 92.0717 257.338 92.0268 257.311C91.9819 257.284 91.9451 257.246 91.9202 257.2L91.1302 255.58C91.1013 255.528 91.0601 255.483 91.0102 255.45L89.4902 254.45C89.4445 254.424 89.4065 254.386 89.3801 254.34C89.3537 254.295 89.3398 254.243 89.3398 254.19C89.3398 254.137 89.3537 254.086 89.3801 254.04C89.4065 253.994 89.4445 253.956 89.4902 253.93L91.0702 253.2C91.1228 253.18 91.1657 253.141 91.1902 253.09L92.1002 251.6C92.1251 251.554 92.1619 251.516 92.2068 251.489C92.2517 251.462 92.3029 251.448 92.3552 251.448C92.4074 251.448 92.4587 251.462 92.5036 251.489C92.5485 251.516 92.5853 251.554 92.6102 251.6L93.4102 253.22C93.4356 253.272 93.4734 253.317 93.5202 253.35Z" fill="#D7AE6F"/>
<path d="M126.641 288L128.121 288.85C128.165 288.873 128.202 288.907 128.228 288.95C128.253 288.992 128.267 289.041 128.267 289.09C128.267 289.14 128.253 289.188 128.228 289.231C128.202 289.273 128.165 289.307 128.121 289.33L126.661 290.09C126.615 290.116 126.577 290.154 126.551 290.2L125.771 291.64C125.746 291.684 125.711 291.72 125.668 291.746C125.625 291.771 125.576 291.785 125.526 291.785C125.476 291.785 125.427 291.771 125.383 291.746C125.34 291.72 125.305 291.684 125.281 291.64L124.461 290.15C124.438 290.099 124.4 290.057 124.351 290.03L122.881 289.19C122.837 289.168 122.8 289.133 122.774 289.091C122.748 289.048 122.734 289 122.734 288.95C122.734 288.901 122.748 288.852 122.774 288.81C122.8 288.767 122.837 288.733 122.881 288.71L124.341 287.95C124.385 287.922 124.422 287.884 124.451 287.84L125.231 286.4C125.253 286.356 125.288 286.319 125.33 286.293C125.372 286.268 125.421 286.254 125.471 286.254C125.52 286.254 125.569 286.268 125.611 286.293C125.654 286.319 125.688 286.356 125.711 286.4L126.531 287.89C126.557 287.936 126.595 287.974 126.641 288Z" fill="#D7AE6F"/>
<path d="M170.94 173.309L172.42 174.159C172.461 174.184 172.496 174.219 172.519 174.261C172.543 174.303 172.556 174.351 172.556 174.399C172.556 174.447 172.543 174.495 172.519 174.537C172.496 174.579 172.461 174.614 172.42 174.639L170.96 175.399C170.913 175.419 170.874 175.454 170.85 175.499L170.06 176.949C170.037 176.993 170.003 177.03 169.96 177.056C169.918 177.082 169.869 177.095 169.82 177.095C169.77 177.095 169.722 177.082 169.679 177.056C169.637 177.03 169.603 176.993 169.58 176.949L168.76 175.449C168.734 175.403 168.696 175.365 168.65 175.339L167.17 174.499C167.126 174.475 167.09 174.439 167.064 174.396C167.039 174.353 167.025 174.304 167.025 174.254C167.025 174.204 167.039 174.155 167.064 174.112C167.09 174.069 167.126 174.033 167.17 174.009L168.63 173.249C168.672 173.227 168.707 173.192 168.73 173.149L169.52 171.699C169.543 171.655 169.577 171.618 169.619 171.592C169.662 171.566 169.71 171.553 169.76 171.553C169.809 171.553 169.858 171.566 169.9 171.592C169.943 171.618 169.977 171.655 170 171.699L170.82 173.189C170.854 173.235 170.894 173.275 170.94 173.309Z" fill="#D7AE6F"/>
<path d="M285.881 149L287.361 149.85C287.405 149.872 287.442 149.907 287.468 149.949C287.494 149.991 287.507 150.04 287.507 150.09C287.507 150.139 287.494 150.188 287.468 150.23C287.442 150.273 287.405 150.307 287.361 150.33L285.901 151.09C285.876 151.1 285.854 151.115 285.835 151.134C285.816 151.152 285.801 151.175 285.791 151.2L285.001 152.64C284.978 152.684 284.944 152.721 284.902 152.747C284.859 152.772 284.811 152.786 284.761 152.786C284.712 152.786 284.663 152.772 284.621 152.747C284.578 152.721 284.544 152.684 284.521 152.64L283.701 151.15C283.679 151.099 283.64 151.056 283.591 151.03L282.111 150.19C282.067 150.167 282.03 150.133 282.004 150.09C281.978 150.048 281.965 149.999 281.965 149.95C281.965 149.9 281.978 149.851 282.004 149.809C282.03 149.767 282.067 149.732 282.111 149.71L283.571 148.95C283.615 148.921 283.652 148.884 283.681 148.84L284.461 147.39C284.486 147.348 284.521 147.314 284.563 147.29C284.605 147.266 284.653 147.254 284.701 147.254C284.749 147.254 284.797 147.266 284.839 147.29C284.881 147.314 284.916 147.348 284.941 147.39L285.761 148.88C285.788 148.931 285.83 148.973 285.881 149Z" fill="#D7AE6F"/>
<path d="M115.841 293.52L118.771 295.2C118.866 295.244 118.948 295.314 119.004 295.403C119.061 295.491 119.092 295.594 119.092 295.7C119.092 295.805 119.061 295.908 119.004 295.997C118.948 296.085 118.866 296.156 118.771 296.2L115.881 297.71C115.787 297.755 115.71 297.829 115.661 297.92L114.101 300.79C114.06 300.889 113.991 300.974 113.902 301.034C113.813 301.094 113.708 301.126 113.601 301.126C113.493 301.126 113.388 301.094 113.299 301.034C113.21 300.974 113.141 300.889 113.101 300.79L111.471 297.79C111.419 297.695 111.343 297.615 111.251 297.56L108.311 295.88C108.211 295.839 108.126 295.77 108.066 295.681C108.007 295.592 107.975 295.487 107.975 295.38C107.975 295.272 108.007 295.167 108.066 295.078C108.126 294.989 108.211 294.92 108.311 294.88L111.211 293.37C111.299 293.321 111.372 293.248 111.421 293.16L112.981 290.29C113.025 290.194 113.095 290.113 113.184 290.056C113.272 289.999 113.375 289.969 113.481 289.969C113.586 289.969 113.689 289.999 113.778 290.056C113.866 290.113 113.937 290.194 113.981 290.29L115.611 293.29C115.664 293.387 115.744 293.466 115.841 293.52Z" fill="#D7AE6F"/>
<path d="M306.609 133.66L309.539 135.34C309.625 135.386 309.696 135.455 309.746 135.538C309.796 135.622 309.822 135.717 309.822 135.815C309.822 135.912 309.796 136.008 309.746 136.091C309.696 136.175 309.625 136.243 309.539 136.29L306.649 137.8C306.558 137.848 306.482 137.921 306.429 138.01L304.869 140.88C304.823 140.965 304.754 141.037 304.671 141.087C304.587 141.137 304.492 141.163 304.394 141.163C304.297 141.163 304.201 141.137 304.118 141.087C304.034 141.037 303.966 140.965 303.919 140.88L302.289 137.88C302.237 137.788 302.161 137.712 302.069 137.66L299.139 136C299.044 135.956 298.962 135.885 298.905 135.797C298.849 135.708 298.818 135.605 298.818 135.5C298.818 135.394 298.849 135.291 298.905 135.203C298.962 135.114 299.044 135.044 299.139 135L302.039 133.49C302.13 133.444 302.204 133.371 302.249 133.28L303.809 130.41C303.853 130.314 303.924 130.233 304.012 130.176C304.101 130.119 304.204 130.089 304.309 130.089C304.415 130.089 304.518 130.119 304.606 130.176C304.695 130.233 304.765 130.314 304.809 130.41L306.439 133.41C306.474 133.506 306.532 133.592 306.609 133.66Z" fill="#D7AE6F"/>
<path d="M264.679 419L267.609 420.68C267.695 420.727 267.766 420.795 267.816 420.879C267.866 420.963 267.892 421.058 267.892 421.155C267.892 421.253 267.866 421.348 267.816 421.432C267.766 421.516 267.695 421.584 267.609 421.63L264.709 423.14C264.618 423.186 264.545 423.26 264.499 423.35L262.999 426.22C262.955 426.316 262.885 426.397 262.796 426.454C262.708 426.511 262.605 426.541 262.499 426.541C262.394 426.541 262.291 426.511 262.202 426.454C262.114 426.397 262.043 426.316 261.999 426.22L260.369 423.22C260.317 423.128 260.241 423.052 260.149 423L257.219 421.32C257.124 421.277 257.042 421.206 256.986 421.117C256.929 421.029 256.898 420.926 256.898 420.82C256.898 420.715 256.929 420.612 256.986 420.523C257.042 420.435 257.124 420.364 257.219 420.32L260.119 418.81C260.213 418.765 260.29 418.692 260.339 418.6L261.899 415.73C261.946 415.645 262.014 415.573 262.098 415.523C262.181 415.474 262.277 415.447 262.374 415.447C262.472 415.447 262.567 415.474 262.651 415.523C262.734 415.573 262.803 415.645 262.849 415.73L264.479 418.73C264.519 418.837 264.589 418.931 264.679 419Z" fill="#D7AE6F"/>
<path d="M537.671 366.86L540.601 368.54C540.697 368.584 540.778 368.655 540.835 368.743C540.892 368.832 540.922 368.935 540.922 369.04C540.922 369.146 540.892 369.249 540.835 369.337C540.778 369.426 540.697 369.497 540.601 369.54L537.721 371C537.63 371.049 537.554 371.121 537.501 371.21L535.941 374.08C535.9 374.18 535.831 374.265 535.742 374.325C535.653 374.384 535.548 374.416 535.441 374.416C535.334 374.416 535.229 374.384 535.14 374.325C535.051 374.265 534.982 374.18 534.941 374.08L533.311 371.08C533.259 370.988 533.183 370.912 533.091 370.86L530.151 369.18C530.055 369.137 529.974 369.066 529.917 368.977C529.86 368.889 529.83 368.786 529.83 368.68C529.83 368.575 529.86 368.472 529.917 368.383C529.974 368.295 530.055 368.224 530.151 368.18L533.051 366.67C533.142 366.625 533.216 366.551 533.261 366.46L534.821 363.59C534.865 363.495 534.935 363.414 535.024 363.357C535.113 363.3 535.216 363.27 535.321 363.27C535.426 363.27 535.529 363.3 535.618 363.357C535.707 363.414 535.777 363.495 535.821 363.59L537.451 366.59C537.491 366.703 537.569 366.798 537.671 366.86Z" fill="#D7AE6F"/>
<path d="M497.321 149.689L499.231 150.789C499.288 150.819 499.335 150.864 499.368 150.918C499.401 150.973 499.418 151.035 499.418 151.099C499.418 151.163 499.401 151.226 499.368 151.28C499.335 151.335 499.288 151.38 499.231 151.409L497.341 152.409C497.283 152.443 497.234 152.491 497.201 152.549L496.201 154.419C496.17 154.476 496.124 154.522 496.069 154.555C496.013 154.588 495.95 154.605 495.886 154.605C495.822 154.605 495.759 154.588 495.703 154.555C495.648 154.522 495.602 154.476 495.571 154.419L494.511 152.489C494.48 152.429 494.431 152.38 494.371 152.349L492.461 151.249C492.404 151.22 492.357 151.175 492.324 151.12C492.291 151.066 492.273 151.003 492.273 150.939C492.273 150.875 492.291 150.813 492.324 150.758C492.357 150.704 492.404 150.659 492.461 150.629L494.351 149.629C494.411 149.599 494.46 149.55 494.491 149.489L495.491 147.619C495.522 147.563 495.568 147.516 495.623 147.483C495.679 147.451 495.742 147.434 495.806 147.434C495.87 147.434 495.933 147.451 495.989 147.483C496.044 147.516 496.09 147.563 496.121 147.619L497.181 149.549C497.212 149.61 497.261 149.659 497.321 149.689Z" fill="#D7AE6F"/>
<path d="M585.738 431.083C603.026 414.938 608.635 392.849 598.266 381.744C587.896 370.64 565.475 374.725 548.186 390.87C530.898 407.014 525.289 429.104 535.659 440.208C546.028 451.312 568.449 447.227 585.738 431.083Z" fill="#263238"/>
<path d="M580.15 424.849C564.42 439.589 544.39 444.319 533.09 436.649C533.805 437.945 534.682 439.145 535.7 440.219C546.1 451.299 568.53 447.169 585.8 431.009C603.07 414.849 608.63 392.759 598.23 381.689C597.329 380.72 596.323 379.855 595.23 379.109C601.78 390.899 595.72 410.279 580.15 424.849Z" fill="#455A64"/>
<path d="M285.763 103.646C297.748 99.9311 305.93 91.9676 304.036 85.8588C302.143 79.75 290.892 77.8092 278.907 81.5239C266.921 85.2386 258.74 93.2021 260.633 99.3109C262.527 105.42 273.778 107.36 285.763 103.646Z" fill="#263238"/>
<path d="M279.53 84.9995C290.4 81.4795 300.88 82.6195 304.31 87.3995C304.284 86.7747 304.163 86.1576 303.95 85.5695C301.76 79.5695 290.31 77.8095 278.37 81.6795C266.43 85.5495 258.54 93.5595 260.73 99.5695C260.931 100.102 261.2 100.606 261.53 101.07C261.29 95.3595 268.77 88.5095 279.53 84.9995Z" fill="#455A64"/>
<path d="M472.386 145.022C474.241 132.997 450.289 119.322 418.888 114.478C387.486 109.633 360.526 115.454 358.671 127.479C356.816 139.503 380.768 153.178 412.17 158.022C443.571 162.867 470.531 157.046 472.386 145.022Z" fill="#263238"/>
<path d="M419.34 121.31C447.87 126.17 469.34 138.15 470.55 149.19C471.299 148.208 471.852 147.091 472.18 145.9C475.32 134.08 452.5 120.17 421.18 114.84C389.86 109.51 361.96 114.76 358.81 126.58C358.544 127.618 358.466 128.695 358.58 129.76C365.65 120.31 391.12 116.5 419.34 121.31Z" fill="#455A64"/>
<path d="M413.08 134.36C420.25 138.11 425.08 145.19 431.71 149.81C436.11 152.86 441.45 154.97 444.41 159.43C444.12 156.82 442.33 154.65 440.55 152.72C435.521 147.294 429.896 142.454 423.78 138.29C420.64 136.16 417.16 134.14 413.37 134.16" fill="#455A64"/>
<g opacity="0.2">
<path d="M413.08 134.36C420.25 138.11 425.08 145.19 431.71 149.81C436.11 152.86 441.45 154.97 444.41 159.43C444.12 156.82 442.33 154.65 440.55 152.72C435.521 147.294 429.896 142.454 423.78 138.29C420.64 136.16 417.16 134.14 413.37 134.16" fill="black"/>
</g>
<path d="M447.2 37.5802C447.174 36.4052 446.779 35.2681 446.07 34.3302C444.99 33.1402 443.18 33.0202 441.58 33.1402C434.76 33.6502 426.08 43.7602 421.91 49.1402L422.61 79.2302C441.29 69.4902 448.8 52.0002 447.2 37.5802Z" fill="#455A64"/>
<g opacity="0.2">
<path d="M447.2 37.5802C447.174 36.4052 446.779 35.2681 446.07 34.3302C444.99 33.1402 443.18 33.0202 441.58 33.1402C434.76 33.6502 426.08 43.7602 421.91 49.1402L422.61 79.2302C441.29 69.4902 448.8 52.0002 447.2 37.5802Z" fill="black"/>
</g>
<path d="M417.66 99.3802C421.143 98.1369 424.722 97.1804 428.36 96.5202C431.92 95.9402 435.49 94.4502 439 93.6202C443.54 92.5602 447.78 90.5102 452.14 88.8302C456.5 87.1502 461.14 85.8302 465.79 86.3502C462.301 84.7069 458.476 83.9021 454.62 84.0002C450.781 84.1086 446.957 84.5131 443.18 85.2102C437.92 86.0502 432.56 86.9202 427.8 89.3102C423.04 91.7002 418.65 94.1402 417.66 99.3802Z" fill="#455A64"/>
<g opacity="0.2">
<path d="M417.66 99.3802C421.143 98.1369 424.722 97.1804 428.36 96.5202C431.92 95.9402 435.49 94.4502 439 93.6202C443.54 92.5602 447.78 90.5102 452.14 88.8302C456.5 87.1502 461.14 85.8302 465.79 86.3502C462.301 84.7069 458.476 83.9021 454.62 84.0002C450.781 84.1086 446.957 84.5131 443.18 85.2102C437.92 86.0502 432.56 86.9202 427.8 89.3102C423.04 91.7002 418.65 94.1402 417.66 99.3802Z" fill="black"/>
</g>
<path d="M393.429 100.4C388.819 93.6402 379.579 91.6702 371.629 89.7002C382.679 99.201 392.625 109.915 401.279 121.64C403.119 116.14 399.269 109 393.429 100.4Z" fill="#455A64"/>
<g opacity="0.2">
<path d="M393.429 100.4C388.819 93.6402 379.579 91.6702 371.629 89.7002C382.679 99.201 392.625 109.915 401.279 121.64C403.119 116.14 399.269 109 393.429 100.4Z" fill="black"/>
</g>
<path d="M399.39 142.39C389.88 139.64 382.04 128.78 372.66 125.72C383.48 125.21 397.01 131.72 399.39 142.39Z" fill="#455A64"/>
<g opacity="0.2">
<path d="M399.39 142.39C389.88 139.64 382.04 128.78 372.66 125.72C383.48 125.21 397.01 131.72 399.39 142.39Z" fill="black"/>
</g>
<path d="M408.859 120.44C414.217 120.167 419.559 121.236 424.399 123.55C429.218 125.865 433.837 128.574 438.209 131.65C438.619 128.21 436.609 124.99 434.689 122.1C433.31 119.878 431.723 117.792 429.949 115.87C428.17 113.932 425.873 112.544 423.329 111.87C421.783 111.556 420.188 111.556 418.642 111.872C417.095 112.189 415.629 112.814 414.329 113.71C411.83 115.291 409.914 117.643 408.869 120.41" fill="#455A64"/>
<path d="M400.109 155.48C400.109 155.48 404.829 123.23 410.059 105.48C415.289 87.7305 420.359 67.4805 420.359 67.4805L422.419 68.0405C422.419 68.0405 411.419 103.17 407.079 125.04C402.739 146.91 404.209 156.65 404.209 156.65L400.109 155.58" fill="#455A64"/>
<path d="M445.28 35.3196C445.219 35.4372 445.145 35.5479 445.06 35.6496L444.38 36.5596C443.78 37.3296 442.93 38.4696 441.89 39.8896C439.81 42.7196 437.06 46.7196 434.32 51.3196C431.58 55.9196 429.39 60.2596 427.9 63.4396C427.15 65.0296 426.56 66.3196 426.16 67.2196C425.97 67.6396 425.82 67.9796 425.69 68.2196C425.645 68.3436 425.585 68.4612 425.51 68.5696C425.536 68.4422 425.577 68.3182 425.63 68.1996C425.73 67.9196 425.87 67.5695 426.04 67.1396C426.39 66.2196 426.95 64.9096 427.67 63.3096C431.437 54.9432 436.134 47.0268 441.67 39.7096C442.73 38.3096 443.62 37.1896 444.25 36.4396C444.55 36.0896 444.79 35.7996 444.99 35.5796C445.19 35.3596 445.27 35.3096 445.28 35.3196Z" fill="#455A64"/>
<path d="M416.899 83.8107C413.945 80.4485 411.903 76.3845 410.968 72.0074C410.033 67.6303 410.237 63.0865 411.559 58.8107C413.349 52.6507 417.249 47.3507 421.309 42.3907C421.616 41.9184 422.074 41.5655 422.609 41.3907C423 41.3744 423.389 41.4576 423.739 41.6325C424.088 41.8075 424.388 42.0683 424.609 42.3907C429.049 47.3907 430.329 54.5707 430.009 61.2707C429.9 65.7518 428.861 70.1615 426.959 74.2207C424.746 78.4109 421.239 81.7745 416.959 83.8107" fill="#455A64"/>
<path d="M416.9 83.8101C416.922 83.6806 416.956 83.5534 417 83.4301C417.09 83.1501 417.2 82.8001 417.34 82.3801C417.65 81.4701 418.07 80.1401 418.55 78.4901C419.785 74.1886 420.764 69.8176 421.48 65.4001C422.31 60.2201 422.8 55.4901 423.13 52.0701C423.29 50.3901 423.43 49.0701 423.52 48.0701C423.574 47.6167 423.614 47.2467 423.64 46.9601C423.64 46.7101 423.69 46.5801 423.71 46.5801C423.723 46.7098 423.723 46.8404 423.71 46.9701C423.71 47.2601 423.71 47.6301 423.71 48.0801C423.66 49.0801 423.57 50.4301 423.43 52.1401C423.16 55.5701 422.72 60.3101 421.87 65.5101C421.174 69.9409 420.172 74.318 418.87 78.6101C418.35 80.2601 417.87 81.6101 417.55 82.4701C417.39 82.8901 417.25 83.2301 417.15 83.4701C417.085 83.5955 417.001 83.7101 416.9 83.8101Z" fill="#263238"/>
<g opacity="0.2">
<path d="M408.859 120.44C414.217 120.167 419.559 121.236 424.399 123.55C429.218 125.865 433.837 128.574 438.209 131.65C438.619 128.21 436.609 124.99 434.689 122.1C433.31 119.878 431.723 117.792 429.949 115.87C428.17 113.932 425.873 112.544 423.329 111.87C421.783 111.556 420.188 111.556 418.642 111.872C417.095 112.189 415.629 112.814 414.329 113.71C411.83 115.291 409.914 117.643 408.869 120.41" fill="black"/>
</g>
<path d="M432.179 146.711C432.179 146.711 432.079 146.641 431.909 146.491C431.739 146.341 431.479 146.101 431.189 145.841C430.579 145.261 429.699 144.411 428.579 143.401C428.029 142.891 427.409 142.341 426.729 141.771C426.049 141.201 425.339 140.581 424.559 139.961C422.892 138.597 421.112 137.376 419.239 136.311C417.392 135.215 415.304 134.59 413.159 134.491C412.222 134.448 411.283 134.471 410.349 134.561C409.54 134.663 408.74 134.833 407.959 135.071C406.828 135.417 405.746 135.908 404.739 136.531C404.029 136.971 403.659 137.261 403.639 137.241C403.619 137.221 403.719 137.151 403.889 137.001C404.138 136.79 404.399 136.593 404.669 136.411C405.664 135.738 406.748 135.206 407.889 134.831C408.677 134.57 409.487 134.382 410.309 134.271C411.258 134.161 412.215 134.127 413.169 134.171C415.369 134.254 417.513 134.883 419.409 136.001C421.303 137.072 423.096 138.31 424.769 139.701C425.539 140.341 426.269 140.951 426.929 141.551C427.589 142.151 428.199 142.691 428.749 143.221C429.849 144.221 430.699 145.131 431.289 145.741L431.959 146.441C432.04 146.525 432.114 146.615 432.179 146.711Z" fill="#455A64"/>
<path d="M393.55 135.73C393.749 135.812 393.935 135.924 394.1 136.06C394.579 136.399 395.036 136.766 395.47 137.16C396.914 138.465 398.157 139.974 399.16 141.64C400.16 143.303 400.905 145.107 401.37 146.99C401.512 147.56 401.619 148.138 401.69 148.72C401.726 148.936 401.726 149.155 401.69 149.37C401.63 149.37 401.49 148.47 401.09 147.06C400.037 143.364 398.026 140.011 395.26 137.34C394.25 136.32 393.51 135.78 393.55 135.73Z" fill="#455A64"/>
<path d="M381 97.2207C381.131 97.2843 381.255 97.3614 381.37 97.4507L382.37 98.1707L383.99 99.3307C384.63 99.7807 385.29 100.331 386.05 100.991C389.962 104.285 393.419 108.085 396.33 112.291C397.905 114.62 399.322 117.052 400.57 119.571C401.581 121.635 402.482 123.752 403.27 125.911C403.94 127.751 404.42 129.261 404.74 130.301C404.9 130.791 405.02 131.191 405.12 131.501C405.169 131.64 405.206 131.784 405.23 131.931C405.161 131.802 405.101 131.668 405.05 131.531C404.95 131.261 404.79 130.861 404.61 130.341C404.25 129.341 403.74 127.821 403.04 125.991C402.34 124.161 401.42 121.991 400.28 119.721C399.023 117.222 397.607 114.807 396.04 112.491C393.176 108.318 389.804 104.519 386 101.181C385.25 100.561 384.6 99.9507 384 99.4907L382.42 98.2807L381.42 97.5107C381.268 97.4324 381.127 97.3349 381 97.2207Z" fill="#455A64"/>
<path d="M424.639 119C424.385 118.924 424.141 118.82 423.909 118.69L423.069 118.29C422.749 118.14 422.349 118.03 421.929 117.86C419.719 117.045 417.321 116.878 415.019 117.38C413.755 117.651 412.543 118.123 411.429 118.78C410.507 119.3 409.645 119.921 408.859 120.63C408.144 121.301 407.476 122.019 406.859 122.78C406.959 122.532 407.094 122.3 407.259 122.09C407.677 121.498 408.152 120.948 408.679 120.45C409.453 119.679 410.32 119.007 411.259 118.45C412.859 117.481 414.664 116.9 416.529 116.752C418.393 116.605 420.267 116.895 421.999 117.6C422.419 117.78 422.819 117.91 423.139 118.09L423.949 118.54C424.197 118.666 424.429 118.82 424.639 119Z" fill="#455A64"/>
<path d="M443.64 87.6309C443.503 87.681 443.363 87.7211 443.22 87.7509L442 88.0009C440.94 88.2509 439.41 88.6209 437.53 89.1409C435.65 89.6609 433.43 90.3409 431.02 91.2409C428.396 92.1808 425.86 93.3486 423.44 94.7309C422.179 95.4476 421.022 96.3324 420 97.3609C419.05 98.3609 418.14 99.3609 417.29 100.361C415.765 102.058 414.33 103.834 412.99 105.681C412.098 106.93 411.283 108.233 410.55 109.581C410.02 110.581 409.78 111.091 409.75 111.081C409.784 110.936 409.834 110.795 409.9 110.661C410.01 110.401 410.18 110.011 410.42 109.521C411.116 108.134 411.908 106.797 412.79 105.521C414.101 103.643 415.52 101.844 417.04 100.131C417.89 99.1309 418.8 98.1309 419.75 97.1309C420.79 96.096 421.964 95.2048 423.24 94.4809C425.682 93.0906 428.246 91.9257 430.9 91.0009C433.33 90.1209 435.57 89.4709 437.45 89.0009C439.33 88.5309 440.89 88.1809 441.96 88.0009L443.2 87.7709L443.64 87.6309Z" fill="#455A64"/>
<path d="M408.58 115.48C408.541 115.198 408.541 114.912 408.58 114.63C408.58 114.01 408.58 113.23 408.58 112.3C408.608 109.745 408.485 107.19 408.21 104.65C407.908 102.112 407.454 99.5938 406.85 97.11C406.64 96.21 406.47 95.45 406.33 94.85C406.252 94.5719 406.198 94.2875 406.17 94C406.298 94.2577 406.395 94.5296 406.46 94.81C406.62 95.34 406.84 96.1 407.1 97.05C408.467 102.016 409.05 107.164 408.83 112.31C408.83 113.31 408.74 114.08 408.69 114.63C408.68 114.916 408.643 115.201 408.58 115.48Z" fill="#455A64"/>
<path d="M412.329 93.28C412.778 89.5475 412.437 85.7623 411.329 82.17C409.826 77.2426 407.262 72.7043 403.817 68.8742C400.372 65.044 396.13 62.015 391.389 60C396.462 72.2133 401.515 84.4367 406.549 96.67L408.189 103.01C410.568 100.289 412.018 96.881 412.329 93.28Z" fill="#455A64"/>
<g opacity="0.2">
<path d="M412.329 93.28C412.778 89.5475 412.437 85.7623 411.329 82.17C409.826 77.2426 407.262 72.7043 403.817 68.8742C400.372 65.044 396.13 62.015 391.389 60C396.462 72.2133 401.515 84.4367 406.549 96.67L408.189 103.01C410.568 100.289 412.018 96.881 412.329 93.28Z" fill="black"/>
</g>
<path d="M223.645 441.908C234.994 430.591 229.91 407.093 212.291 389.425C194.672 371.756 171.189 366.607 159.84 377.924C148.491 389.242 153.574 412.739 171.193 430.408C188.813 448.076 212.296 453.225 223.645 441.908Z" fill="#263238"/>
<path d="M177.551 424.3C161.471 408.22 155.801 387.3 163.481 375.09C162.145 375.893 160.912 376.857 159.811 377.96C148.491 389.32 153.621 412.82 171.261 430.47C188.901 448.12 212.371 453.21 223.681 441.86C224.679 440.869 225.559 439.765 226.301 438.57C214.101 445.92 193.461 440.21 177.551 424.3Z" fill="#455A64"/>
<path d="M195.541 402.62L209.781 387.45L211.481 389.14C211.481 389.14 199.481 403.14 199.231 406.49L195.541 402.62Z" fill="#455A64"/>
<path d="M172.321 393.88L152.811 423.01L182.371 452.58L211.751 430.17L172.321 393.88Z" fill="#D7AE6F"/>
<path d="M182.561 452.42C179.891 455.04 171.181 450.48 163.101 442.24C155.021 434 150.651 425.24 153.321 422.58C155.991 419.92 164.701 424.52 172.781 432.76C180.861 441 185.241 449.8 182.561 452.42Z" fill="#D7AE6F"/>
<g opacity="0.3">
<path d="M182.561 452.42C179.891 455.04 171.181 450.48 163.101 442.24C155.021 434 150.651 425.24 153.321 422.58C155.991 419.92 164.701 424.52 172.781 432.76C180.861 441 185.241 449.8 182.561 452.42Z" fill="black"/>
</g>
<path d="M212.629 432.4C210.189 434.62 197.839 432.72 184.359 420.32C170.879 407.92 163.249 398.59 170.119 391.32C175.769 385.32 187.049 389.89 200.529 402.32C214.009 414.75 220.649 425.1 212.629 432.4Z" fill="#D7AE6F"/>
<path d="M182.371 452.581C182.524 452.435 182.684 452.299 182.851 452.171L184.261 451.021L189.671 446.721L208.861 431.631C209.131 431.234 209.309 430.782 209.381 430.308C209.454 429.834 209.42 429.35 209.281 428.891C209.071 427.87 208.735 426.879 208.281 425.941C207.318 423.957 206.17 422.068 204.851 420.301C198.874 412.406 191.544 405.635 183.201 400.301C181.189 399.033 179.059 397.961 176.841 397.101C175.798 396.692 174.711 396.407 173.601 396.251C173.101 396.133 172.582 396.129 172.08 396.238C171.578 396.347 171.107 396.567 170.701 396.881L157.801 415.861L154.141 421.161L153.141 422.551C153.034 422.714 152.914 422.867 152.781 423.011C152.867 422.836 152.968 422.669 153.081 422.511L154.001 421.081L157.541 415.711L170.271 396.711C170.695 396.293 171.242 396.023 171.831 395.941C172.401 395.856 172.981 395.856 173.551 395.941C174.7 396.1 175.827 396.388 176.911 396.801C179.16 397.667 181.32 398.749 183.361 400.031C191.785 405.325 199.189 412.089 205.221 420.001C206.554 421.798 207.716 423.717 208.691 425.731C209.146 426.711 209.481 427.741 209.691 428.801C209.844 429.332 209.874 429.89 209.778 430.434C209.683 430.978 209.465 431.493 209.141 431.941L189.831 446.881L184.341 451.071L182.881 452.171C182.724 452.323 182.554 452.46 182.371 452.581Z" fill="#263238"/>
<path d="M273.001 391.18V396H255.201V373.85H272.601V378.7H261.421V382.44H271.271V387.13H261.421V391.18H273.001Z" fill="#263238"/>
<path d="M286.19 390.14H282.76V396H276.49V373.85H286.63C292.68 373.85 296.48 376.99 296.48 382.06C296.539 383.526 296.156 384.977 295.383 386.225C294.609 387.472 293.48 388.46 292.14 389.06L296.92 396.06H290.21L286.19 390.14ZM286.25 378.8H282.76V385.29H286.25C288.85 385.29 290.14 384.09 290.14 382.06C290.14 380.03 288.85 378.8 286.25 378.8Z" fill="#263238"/>
<path d="M309.62 390.14H306.2V396H299.93V373.85H310.07C316.12 373.85 319.92 376.99 319.92 382.06C319.978 383.526 319.596 384.977 318.822 386.225C318.049 387.472 316.919 388.46 315.58 389.06L320.36 396.06H313.65L309.62 390.14ZM309.69 378.8H306.2V385.29H309.69C312.29 385.29 313.58 384.09 313.58 382.06C313.58 380.03 312.29 378.8 309.69 378.8Z" fill="#263238"/>
<path d="M322.23 384.939C322.23 378.289 327.46 373.409 334.55 373.409C341.64 373.409 346.88 378.289 346.88 384.939C346.88 391.589 341.65 396.469 334.55 396.469C327.45 396.469 322.23 391.589 322.23 384.939ZM340.54 384.939C340.54 381.109 337.91 378.599 334.54 378.599C331.17 378.599 328.54 381.109 328.54 384.939C328.54 388.769 331.16 391.279 334.54 391.279C337.92 391.279 340.54 388.769 340.54 384.939Z" fill="#263238"/>
<path d="M359.86 390.14H356.44V396H350.17V373.85H360.3C366.35 373.85 370.16 376.99 370.16 382.06C370.216 383.526 369.832 384.975 369.059 386.222C368.286 387.47 367.158 388.457 365.82 389.06L370.6 396.06H363.88L359.86 390.14ZM359.92 378.8H356.44V385.29H359.92C362.52 385.29 363.82 384.09 363.82 382.06C363.82 380.03 362.52 378.8 359.92 378.8Z" fill="#263238"/>
<path d="M412 382.06C412 387.06 408.2 390.23 402.15 390.23H398.28V396H392V373.85H402.14C408.23 373.85 412 377 412 382.06ZM405.66 382.06C405.66 380 404.37 378.8 401.77 378.8H398.28V385.29H401.77C404.4 385.29 405.69 384.09 405.69 382.06H405.66Z" fill="#263238"/>
<path d="M428.821 391.719H419.441L417.701 395.999H411.301L421.091 373.819H427.261L437.081 395.999H430.561L428.821 391.719ZM427.001 387.099L424.151 379.999L421.301 387.099H427.001Z" fill="#263238"/>
<path d="M453.4 384.469H458.94V393.649C456.19 395.502 452.946 396.485 449.63 396.469C442.56 396.469 437.4 391.689 437.4 384.939C437.4 378.189 442.56 373.409 449.75 373.409C453.9 373.409 457.26 374.839 459.45 377.469L455.45 381.079C454.792 380.293 453.966 379.662 453.034 379.233C452.102 378.804 451.086 378.588 450.06 378.599C448.379 378.591 446.763 379.252 445.569 380.435C444.374 381.618 443.698 383.228 443.69 384.909C443.682 386.591 444.343 388.206 445.526 389.401C446.709 390.596 448.319 391.271 450 391.279C451.17 391.284 452.326 391.035 453.39 390.549L453.4 384.469Z" fill="#263238"/>
<path d="M480.73 391.18V396H462.93V373.85H480.32V378.7H469.14V382.44H479V387.13H469.15V391.18H480.73Z" fill="#263238"/>
<path d="M271.941 322.699H218.211V296.379L269.391 171.899H300.091V296.379H313.401V322.699H300.091V356.119H271.941V322.699ZM271.941 296.379V224.529H271.431L243.801 296.379H271.941Z" fill="#D7AE6F"/>
<g opacity="0.3">
<path d="M271.941 322.699H218.211V296.379L269.391 171.899H300.091V296.379H313.401V322.699H300.091V356.119H271.941V322.699ZM271.941 296.379V224.529H271.431L243.801 296.379H271.941Z" fill="black"/>
</g>
<path d="M259.13 322.699H205.4V296.379L256.57 171.899H287.28V296.379H300.58V322.699H287.28V356.119H259.13V322.699ZM259.13 296.379V224.529H258.62L231 296.379H259.13Z" fill="#D7AE6F"/>
<path d="M335.891 346.65C328.557 338.576 324.891 327.17 324.891 312.43V215.59C324.891 200.85 328.557 189.443 335.891 181.37C343.224 173.296 353.801 169.263 367.621 169.27C381.441 169.27 392.017 173.303 399.351 181.37C406.684 189.436 410.351 200.843 410.351 215.59V312.43C410.351 327.17 406.684 338.576 399.351 346.65C392.017 354.723 381.441 358.756 367.621 358.75C353.801 358.75 343.224 354.716 335.891 346.65ZM382.201 314.28V213.74C382.201 201.64 377.341 195.59 367.621 195.59C357.901 195.59 353.027 201.64 353.001 213.74V314.28C353.001 326.38 357.864 332.43 367.591 332.43C377.317 332.43 382.187 326.38 382.201 314.28Z" fill="#D7AE6F"/>
<g opacity="0.3">
<path d="M399.351 181.37C392.017 173.31 381.441 169.276 367.621 169.27C353.801 169.263 343.224 173.296 335.891 181.37C328.557 189.45 324.891 200.856 324.891 215.59V312.43C324.891 327.17 328.557 338.576 335.891 346.65C343.224 354.723 353.801 358.756 367.621 358.75C381.441 358.75 392.017 354.716 399.351 346.65C406.684 338.583 410.351 327.176 410.351 312.43V215.59C410.351 200.85 406.684 189.443 399.351 181.37ZM382.201 314.28C382.201 326.38 377.341 332.43 367.621 332.43C357.901 332.43 353.031 324.84 353.031 314.28V213.74C353.031 202.74 357.901 195.59 367.621 195.59C377.341 195.59 382.201 201.59 382.201 213.74V314.28Z" fill="black"/>
</g>
<path d="M323.08 346.65C315.747 338.576 312.08 327.17 312.08 312.43V215.59C312.08 200.85 315.747 189.443 323.08 181.37C330.413 173.296 340.987 169.263 354.8 169.27C368.62 169.27 379.197 173.303 386.53 181.37C393.863 189.436 397.53 200.843 397.53 215.59V312.43C397.53 327.17 393.863 338.576 386.53 346.65C379.197 354.723 368.62 358.756 354.8 358.75C340.993 358.75 330.42 354.716 323.08 346.65ZM369.39 314.27V213.74C369.39 201.64 364.527 195.59 354.8 195.59C345.073 195.59 340.213 201.64 340.22 213.74V314.27C340.22 326.383 345.08 332.436 354.8 332.43C364.52 332.423 369.383 326.37 369.39 314.27Z" fill="#D7AE6F"/>
<path d="M473.201 322.699H419.471V296.379L470.641 171.899H501.351V296.379H514.651V322.699H501.351V356.119H473.201V322.699ZM473.201 296.379V224.539H472.691L445.051 296.379H473.201Z" fill="#D7AE6F"/>
<g opacity="0.3">
<path d="M473.201 322.699H419.471V296.379L470.641 171.899H501.351V296.379H514.651V322.699H501.351V356.119H473.201V322.699ZM473.201 296.379V224.539H472.691L445.051 296.379H473.201Z" fill="black"/>
</g>
<path d="M460.39 322.699H406.65V296.379L457.83 171.899H488.53V296.379H501.84V322.699H488.53V356.119H460.39V322.699ZM460.39 296.379V224.529H459.87L432.24 296.379H460.39Z" fill="#D7AE6F"/>
<path d="M562.718 326.626C575.922 323.961 579.858 288.263 571.508 246.891C563.159 205.52 545.686 174.142 532.482 176.807C519.278 179.472 515.343 215.17 523.692 256.542C532.042 297.913 549.514 329.291 562.718 326.626Z" fill="#263238"/>
<path d="M564.28 248.571C556.67 210.861 541.48 181.461 528.85 178.571C529.905 177.715 531.15 177.122 532.48 176.841C545.68 174.181 563.15 205.561 571.48 246.931C579.81 288.301 575.89 324.001 562.68 326.661C561.488 326.894 560.26 326.867 559.08 326.581C569.34 318.561 571.8 285.871 564.28 248.571Z" fill="#455A64"/>
<path d="M696.229 177.271L710.369 156.621C710.369 156.621 736.109 164.061 739.089 160.501L700.089 131.641L676.689 162.901L696.229 177.271Z" fill="#263238"/>
<path d="M697.049 149.39C696.759 148.997 696.624 148.511 696.668 148.025C696.713 147.539 696.933 147.085 697.289 146.75C697.669 146.445 698.152 146.298 698.638 146.339C699.123 146.38 699.575 146.606 699.899 146.97C700.207 147.386 700.351 147.902 700.301 148.417C700.251 148.933 700.011 149.411 699.629 149.76C699.197 150.031 698.678 150.127 698.178 150.029C697.679 149.93 697.235 149.645 696.939 149.23" fill="#E0E0E0"/>
<path d="M700.048 131.641L697.818 134.881L736.088 161.341C736.088 161.341 738.388 161.871 739.088 160.501L700.048 131.641Z" fill="#455A64"/>
<path d="M710.858 157.29C710.988 157.09 710.098 156.29 709.618 154.99C709.138 153.69 709.228 152.51 708.998 152.46C708.768 152.41 708.228 153.72 708.848 155.29C709.468 156.86 710.768 157.49 710.858 157.29Z" fill="white"/>
<path d="M716.209 158.621C716.389 158.471 715.799 157.531 715.749 156.251C715.699 154.971 716.139 153.971 715.939 153.841C715.739 153.711 714.829 154.701 714.939 156.291C715.049 157.881 716.069 158.801 716.209 158.621Z" fill="white"/>
<path d="M722.159 155.441C722.009 155.271 721.039 156.021 720.759 157.441C720.479 158.861 721.059 159.921 721.259 159.821C721.459 159.721 721.319 158.761 721.569 157.611C721.819 156.461 722.329 155.601 722.159 155.441Z" fill="white"/>
<path d="M707.109 161.63C707.109 161.4 706.109 161.02 705.109 160.15C704.109 159.28 703.499 158.32 703.279 158.41C703.059 158.5 703.359 159.77 704.579 160.78C705.799 161.79 707.099 161.85 707.109 161.63Z" fill="white"/>
<path d="M682.659 261.18L696.929 240.62C696.929 240.62 722.619 248.22 725.629 244.62L686.749 215.53L663.209 246.7L682.659 261.18Z" fill="#263238"/>
<path d="M683.649 233.311C683.366 232.916 683.235 232.431 683.283 231.947C683.331 231.463 683.554 231.013 683.909 230.681C684.291 230.377 684.775 230.231 685.26 230.274C685.746 230.317 686.197 230.545 686.519 230.911C686.824 231.33 686.962 231.846 686.909 232.361C686.855 232.876 686.613 233.353 686.229 233.701C685.796 233.97 685.275 234.063 684.775 233.96C684.275 233.858 683.833 233.568 683.539 233.151" fill="#E0E0E0"/>
<path d="M686.75 215.58L684.5 218.81L722.62 245.5C722.62 245.5 724.91 246.04 725.62 244.67L686.75 215.58Z" fill="#455A64"/>
<path d="M697.408 241.291C697.548 241.101 696.658 240.291 696.178 238.991C695.698 237.691 695.809 236.511 695.579 236.451C695.349 236.391 694.808 237.711 695.408 239.281C696.008 240.851 697.318 241.491 697.408 241.291Z" fill="white"/>
<path d="M702.748 242.661C702.928 242.501 702.348 241.571 702.308 240.281C702.268 238.991 702.708 238.011 702.518 237.871C702.328 237.731 701.398 238.721 701.518 240.321C701.638 241.921 702.608 242.831 702.748 242.661Z" fill="white"/>
<path d="M708.718 239.51C708.578 239.34 707.598 240.09 707.308 241.51C707.018 242.93 707.598 244 707.798 243.9C707.998 243.8 707.858 242.83 708.118 241.68C708.378 240.53 708.888 239.67 708.718 239.51Z" fill="white"/>
<path d="M693.638 245.621C693.688 245.381 692.638 244.991 691.638 244.121C690.638 243.251 690.038 242.281 689.818 242.371C689.598 242.461 689.898 243.731 691.108 244.751C692.318 245.771 693.618 245.831 693.638 245.621Z" fill="white"/>
<path d="M535.389 276.08C536.719 276.08 655.299 241.92 663.549 234.5C671.799 227.08 705.479 168.32 705.479 168.32L681.559 148.82L639.999 203L566.999 209.59C566.999 209.59 536.219 207.49 530.859 218.5L530.299 235L535.389 276.08Z" fill="#263238"/>
<path d="M535.389 276.081C537.149 276.131 590.119 335.081 606.709 338.431C623.299 341.781 631.649 330.331 637.319 323.431C644.539 314.731 693.699 252.001 693.699 252.001L668.999 231.601L614.999 289.131L582.489 244.361L554.149 241.701L536.879 257.001L535.389 276.081Z" fill="#263238"/>
<path d="M610.158 294.641C610.158 294.641 610.208 294.551 610.338 294.391L610.928 293.721L613.228 291.15L621.758 281.77L634.458 267.911L641.978 259.751C644.628 256.961 647.368 254.071 650.168 251.101L668.858 231.43L669.018 231.271L669.188 231.411L686.998 246.251L691.998 250.461L693.308 251.59C693.463 251.714 693.607 251.852 693.738 252.001C693.569 251.897 693.408 251.78 693.258 251.65L691.898 250.581L686.828 246.471L668.918 231.781H669.248C663.738 237.621 657.368 244.351 650.608 251.491L642.408 260.141L634.858 268.281L621.998 282.001L613.348 291.261L610.968 293.761L610.338 294.4L610.158 294.641Z" fill="#455A64"/>
<path d="M609.479 254.17C608.981 254.394 608.466 254.578 607.939 254.72L603.699 256C600.119 257.11 595.159 258.6 589.699 260.37L585.699 261.69C584.469 262.061 583.263 262.509 582.089 263.03C580.125 263.951 578.544 265.528 577.619 267.49C577.023 268.832 576.596 270.243 576.349 271.69C576.283 272.23 576.179 272.764 576.039 273.29C576.013 273.148 576.013 273.002 576.039 272.86C576.039 272.58 576.039 272.18 576.149 271.66C576.322 270.171 576.702 268.714 577.279 267.33C578.202 265.257 579.833 263.581 581.879 262.6C583.066 262.055 584.289 261.591 585.539 261.21L589.539 259.87C594.979 258.1 599.959 256.67 603.539 255.65C605.349 255.14 606.809 254.75 607.829 254.48C608.368 254.324 608.92 254.22 609.479 254.17Z" fill="#455A64"/>
<path d="M519.42 225.371C519.486 225.202 519.569 225.041 519.67 224.891C519.76 224.731 519.87 224.541 520 224.341L520.53 223.631C521.719 222.176 523.118 220.905 524.68 219.861C528.57 217.111 534.68 214.501 541.68 212.571C547.628 210.914 553.723 209.846 559.88 209.381C561.747 209.252 563.62 209.228 565.49 209.311C566.15 209.311 566.66 209.401 567.01 209.451C567.186 209.462 567.36 209.493 567.53 209.541C567.53 209.591 566.8 209.541 565.48 209.541C564.16 209.541 562.26 209.541 559.91 209.781C553.793 210.349 547.74 211.46 541.82 213.101C534.9 215.021 528.82 217.551 524.94 220.191C523.384 221.2 521.968 222.41 520.73 223.791L520.17 224.461L519.8 224.981C519.55 225.231 519.44 225.381 519.42 225.371Z" fill="#455A64"/>
<path d="M568.509 309.001C568.362 308.927 568.225 308.837 568.099 308.731L566.979 307.861L562.889 304.641C559.429 301.931 554.529 298.361 549.069 294.451C544.402 291.12 539.922 287.535 535.649 283.711C534.029 282.221 532.729 281.001 531.859 280.131L530.859 279.131C530.738 279.021 530.63 278.897 530.539 278.761C530.539 278.761 530.689 278.851 530.939 279.061C531.189 279.271 531.579 279.611 531.999 279.991L535.899 283.431C539.219 286.321 543.899 290.121 549.389 294.031C554.879 297.941 559.729 301.561 563.129 304.351C564.829 305.751 566.199 306.891 567.129 307.701L568.189 308.641C568.309 308.748 568.417 308.869 568.509 309.001Z" fill="#455A64"/>
<path d="M202.075 267.482C217.64 225.896 219.498 188.156 206.226 183.188C192.953 178.221 169.576 207.906 154.011 249.492C138.446 291.079 136.588 328.818 149.86 333.786C163.132 338.753 186.51 309.068 202.075 267.482Z" fill="#263238"/>
<path d="M161.251 252.41C175.431 214.5 196.111 186.49 209.711 185.59C208.758 184.525 207.565 183.702 206.231 183.19C192.961 178.19 169.581 207.91 154.021 249.5C138.461 291.09 136.591 328.82 149.861 333.79C151.064 334.226 152.345 334.404 153.621 334.31C144.321 324.27 147.211 289.9 161.251 252.41Z" fill="#455A64"/>
<path d="M22.3007 158.8C22.3007 158.8 18.7607 149.8 17.2307 146.51C15.7007 143.22 16.0307 133.26 17.0507 131.45C17.352 130.976 17.5186 130.428 17.5327 129.866C17.5468 129.304 17.4079 128.749 17.1307 128.26C17.1307 128.26 11.9107 118.53 14.3507 116.13L15.7707 115.97C15.7707 115.97 21.0007 126.41 21.1807 126.62C21.3607 126.83 22.5007 126.88 22.8607 125.06C23.2207 123.24 22.3507 117.84 22.3507 117.84C22.3507 117.84 20.3507 114.4 20.2207 112.04C20.2681 111.52 20.4211 111.015 20.6704 110.556C20.9198 110.096 21.2601 109.693 21.6707 109.37L22.3807 108.82C22.3807 108.82 26.7707 116.76 27.0207 118.7C27.2707 120.64 28.0707 124.85 28.0707 124.85L28.6807 124.36L28.7307 114.62C28.7307 114.62 26.5307 106.38 28.2007 104.62C29.8707 102.86 30.0307 104.33 30.0307 104.33C30.0307 104.33 33.1707 112.74 33.4007 114.87C33.5007 115.74 33.5907 124.11 33.5907 124.11L34.9407 123.55L35.4107 115.73C35.4107 115.73 33.8307 107.97 36.2007 107.18L38.0907 107.12C38.0907 107.12 39.8907 117.33 40.0907 117.81C40.2907 118.29 38.7107 129.94 38.7107 129.94L39.1907 131.04L40.5607 129.18C41.2542 127.729 42.4318 126.566 43.8907 125.89C46.6207 124.4 47.8107 125.48 47.8107 125.48L44.3907 131.56C44.3907 131.56 41.2707 138.67 40.0007 140.31C38.0843 142.452 35.9718 144.411 33.6907 146.16C33.0107 146.54 33.7807 149.69 33.7807 149.69L34.8507 151.89L22.3007 158.8Z" fill="#FFBF9D"/>
<path d="M36.0002 135C36.0002 135.11 34.9002 135.08 33.2002 135.49C30.9926 136.003 28.9563 137.082 27.2909 138.619C25.6255 140.157 24.3882 142.1 23.7003 144.26C23.1603 145.92 23.1002 147.02 23.0002 147.01C22.893 146.046 22.9954 145.071 23.3002 144.15C23.9064 141.851 25.1511 139.771 26.8902 138.15C29.7102 135.91 32.0002 135.05 33.1202 135.04C34.0673 134.829 35.0477 134.816 36.0002 135Z" fill="#FF9A6C"/>
<path d="M36.461 123.839C36.461 124.039 32.351 123.369 27.521 124.639C22.691 125.909 19.391 128.409 19.291 128.239C19.9032 127.58 20.6194 127.026 21.411 126.599C25.1281 124.311 29.4513 123.202 33.811 123.419C34.7109 123.419 35.6052 123.561 36.461 123.839Z" fill="#FF9A6C"/>
<path d="M22.3008 158.8C22.6408 159.63 39.8608 211.74 47.3008 217.34C54.7408 222.94 103.921 237.34 103.921 237.34L111.651 211.14L63.5508 196.09L33.6908 146.09L22.3008 158.8Z" fill="#FFBF9D"/>
<path d="M114.83 203.99L77.69 197.66L69.75 229.96L112.72 239.79L114.83 203.99Z" fill="#D7AE6F"/>
<path d="M138.16 206.56L135.98 149.56C135.9 135.37 127.57 123.56 113.39 124.06L112.08 124.18C105.74 124.772 99.8545 127.728 95.5933 132.46C91.3322 137.191 89.007 143.353 89.0798 149.72C89.2198 162.02 89.5298 175.61 90.2098 182.15C91.6298 195.7 105.38 196.56 105.38 196.56L109.6 213.41L114.4 215.01L138.16 206.56Z" fill="#FFBF9D"/>
<path d="M105.33 196.59C111.594 195.995 117.555 193.618 122.51 189.74C122.51 189.74 120.01 200.66 106.37 200.68L105.33 196.59Z" fill="#FF9A6C"/>
<path d="M95.8705 160.78C95.9089 161.277 96.1387 161.741 96.5116 162.073C96.8846 162.405 97.3716 162.579 97.8705 162.56C98.1177 162.557 98.362 162.505 98.5888 162.407C98.8156 162.308 99.0203 162.165 99.1909 161.986C99.3616 161.807 99.4945 161.596 99.5821 161.364C99.6696 161.133 99.7098 160.887 99.7005 160.64C99.6484 160.146 99.4149 159.69 99.0453 159.359C98.6757 159.029 98.1964 158.847 97.7005 158.85C97.4527 158.853 97.2083 158.907 96.9814 159.006C96.7546 159.106 96.5499 159.25 96.3794 159.43C96.2089 159.609 96.0761 159.821 95.9887 160.053C95.9013 160.285 95.8611 160.532 95.8705 160.78Z" fill="#263238"/>
<path d="M92.4599 155.479C92.7299 155.709 94.0899 154.479 96.1799 154.299C98.2699 154.119 99.8899 155.009 100.09 154.739C100.29 154.469 99.8999 154.179 99.1899 153.739C98.2299 153.198 97.127 152.964 96.0299 153.069C94.9475 153.169 93.9248 153.61 93.1099 154.329C92.5099 154.899 92.3399 155.369 92.4599 155.479Z" fill="#263238"/>
<path d="M112.341 160.41C112.601 160.64 113.971 159.41 116.061 159.23C118.151 159.05 119.761 159.95 119.971 159.67C120.071 159.55 119.781 159.12 119.071 158.67C118.111 158.128 117.007 157.898 115.911 158.01C114.827 158.107 113.801 158.544 112.981 159.26C112.391 159.83 112.211 160.31 112.341 160.41Z" fill="#263238"/>
<path d="M106.93 170.781C105.801 170.534 104.645 170.433 103.49 170.481C102.95 170.481 102.49 170.411 102.32 170.061C102.225 169.515 102.299 168.954 102.53 168.451L103.73 164.251C105.38 158.251 106.53 153.391 106.29 153.331C106.05 153.271 104.51 158.051 102.86 164.021C102.46 165.491 102.08 166.891 101.72 168.241C101.447 168.913 101.418 169.66 101.64 170.351C101.741 170.537 101.884 170.698 102.057 170.819C102.231 170.941 102.431 171.02 102.64 171.051C102.942 171.089 103.248 171.089 103.55 171.051C104.684 171.102 105.819 171.011 106.93 170.781Z" fill="#263238"/>
<path d="M110.601 154.919C110.931 155.429 112.901 154.679 115.361 154.409C117.821 154.139 119.901 154.319 120.101 153.749C120.181 153.479 119.721 153.029 118.821 152.679C117.625 152.259 116.347 152.129 115.091 152.299C113.836 152.44 112.632 152.879 111.581 153.579C110.791 154.139 110.451 154.679 110.601 154.919Z" fill="#263238"/>
<path d="M91.9998 150.19C92.4698 150.63 94.1298 150 96.1698 149.82C98.2098 149.64 99.9698 149.82 100.33 149.33C100.48 149.07 100.17 148.62 99.3298 148.23C98.2472 147.75 97.0556 147.571 95.8798 147.71C94.7038 147.811 93.5772 148.229 92.6198 148.92C91.9998 149.46 91.7598 150 91.9998 150.19Z" fill="#263238"/>
<path d="M135.791 159.731C136.011 159.611 144.861 156.121 145.411 165.411C145.961 174.701 136.521 173.351 136.491 173.091C136.461 172.831 135.791 159.731 135.791 159.731Z" fill="#FFBF9D"/>
<path d="M139.12 169.389C139.12 169.389 139.29 169.499 139.57 169.609C139.965 169.747 140.398 169.729 140.78 169.559C141.78 169.139 142.47 167.559 142.42 165.849C142.394 165.052 142.193 164.27 141.83 163.559C141.723 163.275 141.549 163.02 141.323 162.816C141.097 162.612 140.825 162.466 140.53 162.389C140.341 162.352 140.145 162.381 139.975 162.473C139.806 162.564 139.673 162.711 139.6 162.889C139.49 163.159 139.6 163.339 139.52 163.359C139.44 163.379 139.31 163.219 139.36 162.829C139.399 162.595 139.515 162.38 139.69 162.219C139.937 162.016 140.251 161.913 140.57 161.929C140.956 161.983 141.323 162.134 141.634 162.368C141.946 162.603 142.192 162.913 142.35 163.269C142.793 164.052 143.04 164.931 143.07 165.829C143.12 167.709 142.27 169.519 140.94 169.989C140.696 170.076 140.435 170.107 140.177 170.079C139.919 170.051 139.671 169.966 139.45 169.829C139.15 169.619 139.09 169.409 139.12 169.389Z" fill="#FF9A6C"/>
<path d="M113.561 171.74C113.231 171.74 113.331 173.87 111.561 175.47C109.791 177.07 107.561 176.94 107.561 177.24C107.561 177.38 108.091 177.64 109.051 177.62C110.305 177.58 111.506 177.098 112.441 176.26C113.334 175.458 113.88 174.338 113.961 173.14C114.001 172.24 113.701 171.72 113.561 171.74Z" fill="#263238"/>
<path d="M69.6406 138.46C69.7832 137.896 70.1425 137.411 70.6406 137.11C71.7023 136.552 72.8921 136.283 74.0906 136.33C77.0459 136.088 79.9077 135.178 82.4606 133.67C81.5113 133.278 80.6303 132.738 79.8506 132.07C79.0302 131.392 78.4104 130.503 78.058 129.498C77.7055 128.494 77.6338 127.412 77.8506 126.37C77.8848 126.173 77.964 125.987 78.0819 125.826C78.1999 125.664 78.3534 125.532 78.5306 125.44C79.1206 125.21 79.6806 125.77 80.1306 126.22C80.7133 126.914 81.4717 127.439 82.3267 127.74C83.1816 128.041 84.1016 128.106 84.9906 127.93C86.229 127.777 87.4159 127.343 88.4606 126.66L88.5606 126.53C89.0206 126 89.4606 125.53 89.9006 125C93.1806 121.32 96.0406 118.73 99.0606 117.29C103.481 115.18 111.061 113.97 115.841 114.92C120.621 115.87 125.131 119.44 126.091 124.25C128.611 121.84 132.591 121.62 135.911 122.72H135.981C139.661 123.78 141.981 127.45 143.231 131.06C143.301 131.26 143.371 131.46 143.431 131.65C144.765 133.52 146.527 135.042 148.571 136.09C148.931 136.27 149.351 136.49 149.411 136.89C149.415 137.092 149.365 137.29 149.267 137.466C149.168 137.642 149.025 137.788 148.851 137.89C148.023 138.561 147.056 139.04 146.021 139.29C146.397 140.145 146.849 140.965 147.371 141.74C147.821 142.4 148.371 143.2 148.041 143.94C147.893 144.214 147.666 144.436 147.389 144.577C147.112 144.718 146.799 144.771 146.491 144.73C145.879 144.629 145.293 144.404 144.771 144.07L146.151 146.88C144.859 147.19 143.512 147.19 142.221 146.88C141.671 150.36 141.491 156.76 140.751 159.14C138.281 159.33 137.671 159.14 136.451 159.59C134.871 160.23 135.661 163.04 133.521 162.36C132.421 162.01 130.521 158.07 130.111 157.01C127.296 149.917 126.037 142.302 126.421 134.68C124.828 133.178 122.96 131.996 120.921 131.2L121.091 131.34C117.211 130.25 112.831 129.22 109.331 131.23C106.621 132.79 105.151 135.79 103.211 138.23C99.5106 142.86 95.2106 145.48 89.2806 146.1C89.0006 150.24 89.2806 156.96 89.2806 160.8L85.5406 153.34C85.2506 152.91 85.0006 152.47 84.7606 152.03L84.6806 151.89C84.3006 151.18 83.9306 150.47 83.4706 149.78C83.0526 150.2 82.4938 150.449 81.9025 150.48C81.3112 150.511 80.7294 150.321 80.2699 149.948C79.8105 149.574 79.506 149.043 79.4156 148.458C79.3252 147.873 79.4553 147.275 79.7806 146.78C80.0743 146.313 80.4386 145.895 80.8606 145.54C80.42 146.024 79.8612 146.386 79.2389 146.589C78.6166 146.792 77.9521 146.831 77.3106 146.7C76.6765 146.544 76.1107 146.185 75.6992 145.678C75.2877 145.17 75.053 144.543 75.0306 143.89C75.0563 143.447 75.1972 143.019 75.4392 142.647C75.6812 142.275 76.016 141.973 76.4106 141.77C74.7348 142.013 73.0245 141.749 71.5006 141.01C70.3806 140.53 69.3906 139.69 69.6406 138.46Z" fill="#263238"/>
<path d="M121.82 126.08C122.329 126.43 122.81 126.818 123.26 127.24C124.414 128.476 125.23 129.988 125.63 131.63C125.932 132.755 126.12 133.907 126.19 135.07C126.27 136.32 126.25 137.67 126.25 139.07C126.209 140.562 126.266 142.055 126.42 143.54C126.513 144.327 126.664 145.105 126.87 145.87C127.045 146.691 127.423 147.454 127.97 148.09C128.224 148.352 128.544 148.54 128.896 148.634C129.249 148.727 129.62 148.722 129.97 148.62C130.634 148.46 131.223 148.079 131.64 147.54C132.312 146.477 132.691 145.256 132.74 144H132.45C132.928 145.001 133.548 145.927 134.29 146.75C135 147.513 135.98 147.968 137.02 148.02C137.506 148.044 137.988 147.93 138.41 147.69C138.804 147.457 139.115 147.108 139.3 146.69C139.484 146.311 139.561 145.889 139.52 145.47C139.47 145.09 139.294 144.738 139.02 144.47L138.88 144.61C139.748 145.485 140.791 146.166 141.94 146.61C142.34 146.76 142.65 146.85 142.87 146.91L143.2 146.97C143.098 146.92 142.991 146.879 142.88 146.85C142.574 146.753 142.274 146.639 141.98 146.51C140.85 146.041 139.828 145.343 138.98 144.46L138.84 144.6C139.078 144.87 139.227 145.207 139.266 145.565C139.306 145.923 139.234 146.285 139.06 146.6C138.882 146.966 138.601 147.272 138.25 147.48C137.864 147.688 137.429 147.788 136.99 147.77C136.02 147.7 135.112 147.264 134.45 146.55C133.735 145.743 133.139 144.837 132.68 143.86L132.46 143.43L132.4 143.91C132.356 145.11 131.993 146.276 131.35 147.29C130.982 147.784 130.456 148.136 129.86 148.29C129.569 148.369 129.263 148.369 128.971 148.292C128.68 148.215 128.414 148.062 128.2 147.85C127.694 147.25 127.35 146.531 127.2 145.76C126.987 145.014 126.837 144.251 126.75 143.48C126.594 142.009 126.531 140.529 126.56 139.05C126.56 137.63 126.56 136.28 126.47 135.05C126.389 133.872 126.185 132.706 125.86 131.57C125.436 129.902 124.577 128.377 123.37 127.15C122.916 126.71 122.392 126.349 121.82 126.08Z" fill="#455A64"/>
<path d="M80.5508 141.92C80.5508 141.92 80.5508 141.92 80.6608 142.01L81.0208 142.23C81.2103 142.361 81.4111 142.475 81.6208 142.57C81.8943 142.718 82.1784 142.845 82.4708 142.95C84.3455 143.67 86.3706 143.907 88.3608 143.64C91.313 143.256 94.0912 142.027 96.3608 140.1C99.1069 137.721 101.336 134.805 102.911 131.53C103.801 129.82 104.501 128.09 105.301 126.47C106.015 124.901 106.952 123.443 108.081 122.14C109.098 120.964 110.394 120.063 111.851 119.52C112.515 119.293 113.209 119.168 113.911 119.15C114.556 119.15 115.198 119.234 115.821 119.4C117.731 119.925 119.373 121.15 120.421 122.83C120.773 123.463 121.052 124.134 121.251 124.83C121.251 124.83 121.251 124.83 121.251 124.69C121.251 124.55 121.251 124.45 121.161 124.28C121.017 123.758 120.812 123.255 120.551 122.78C120.116 122.027 119.558 121.351 118.901 120.78C118.024 120.041 117.002 119.492 115.901 119.17C115.25 118.99 114.577 118.899 113.901 118.9C113.176 118.909 112.458 119.031 111.771 119.26C110.263 119.807 108.918 120.725 107.861 121.93C106.709 123.25 105.752 124.729 105.021 126.32C104.211 127.95 103.511 129.68 102.631 131.38C101.071 134.611 98.8772 137.494 96.1808 139.86C93.9484 141.768 91.2183 143 88.3108 143.41C86.3557 143.688 84.3624 143.489 82.5008 142.83C81.8337 142.565 81.1826 142.261 80.5508 141.92Z" fill="#455A64"/>
<path d="M78.9414 136C79.0949 136.129 79.2669 136.233 79.4514 136.31C79.9291 136.565 80.4276 136.779 80.9414 136.95C81.6987 137.222 82.4783 137.426 83.2714 137.56C84.2621 137.728 85.2669 137.799 86.2714 137.77C87.2576 137.734 88.2384 137.606 89.2014 137.39C89.9881 137.207 90.7576 136.956 91.5014 136.64C92.0027 136.434 92.4874 136.19 92.9514 135.91C93.1287 135.819 93.2935 135.704 93.4414 135.57C93.4414 135.52 92.6814 135.95 91.4414 136.43C90.7038 136.714 89.9447 136.938 89.1714 137.1C87.2747 137.51 85.3189 137.567 83.4014 137.27C82.6189 137.154 81.8465 136.976 81.0914 136.74C79.7214 136.35 79.0014 136 78.9414 136Z" fill="#455A64"/>
<path d="M180.38 310.84L181.32 306.34C169.997 301.324 159.713 294.232 151 285.43L101 234.79L102.3 220.26L126.94 197.19C131.007 194.853 135.555 193.479 140.236 193.174C144.916 192.869 149.604 193.641 153.94 195.43C171.24 202.29 178.57 212 198.76 235.54C206.76 244.87 202.27 237.07 210.1 242.13C210.1 242.13 205.19 268.8 195.9 285.33C189.06 297.43 180.38 310.84 180.38 310.84Z" fill="#D7AE6F"/>
<path d="M106.152 240.17C105.448 239.382 104.831 238.52 104.312 237.6C102.944 235.448 101.699 233.221 100.582 230.93C99.4543 228.653 98.4528 226.316 97.5816 223.93C97.1864 222.961 96.8851 221.956 96.6816 220.93C97.1719 221.863 97.5898 222.832 97.9316 223.83C98.6716 225.63 99.7316 228.1 101.032 230.77C102.332 233.44 103.632 235.77 104.602 237.48C105.18 238.339 105.698 239.238 106.152 240.17Z" fill="#263238"/>
<g opacity="0.3">
<path d="M193.302 273.61C194.09 268.092 193.517 262.465 191.632 257.22C188.492 249.04 180.382 237.54 180.382 237.54L177.602 240.17L193.302 273.61Z" fill="black"/>
</g>
<path d="M150 323.89L168 276.73L158.5 264.87L140.58 242.87C140.58 242.87 127.79 236.23 121.66 226.43C120.653 224.599 120.101 222.553 120.052 220.464C120.004 218.375 120.459 216.305 121.38 214.43C126.98 203.85 138.58 199.65 150.12 202.82L160.28 209.47C160.28 209.47 193.81 262.03 193.28 272.15C192.9 279.31 164.63 327.73 164.63 327.73L150 323.89Z" fill="#FFBF9D"/>
<path d="M151.261 321.891L131.261 323.611C130.222 323.7 129.217 324.027 128.326 324.569C127.434 325.11 126.68 325.85 126.121 326.731L117.121 340.861C117.121 340.861 120.691 342.521 123.051 339.861C125.411 337.201 129.231 331.661 129.231 331.661L127.531 347.401C127.531 347.401 132.151 347.851 132.921 344.341C133.517 341.274 133.851 338.163 133.921 335.041L138.431 350.041C138.431 350.041 143.321 348.431 141.741 342.771C140.741 339.201 139.681 335.531 139.681 335.531L145.171 345.261C145.171 345.261 149.171 344.911 148.171 341.261C147.481 338.851 145.361 334.071 145.361 334.071C145.361 334.071 156.881 334.941 159.171 334.071C162.291 332.941 165.481 326.321 165.481 326.321L151.261 321.891Z" fill="#FFBF9D"/>
<path d="M133.52 200.051C133.52 200.051 116.73 209.051 118.52 221.691C120.31 234.331 134.8 240.891 134.8 240.891L153.61 261.001L183.11 235.371L156.27 202.001" fill="#D7AE6F"/>
<path d="M156.271 202C156.271 202 156.271 202 156.411 202.14L156.801 202.59L158.271 204.36L163.781 211.11L183.291 235.19L183.441 235.37L183.271 235.52L153.941 261.05L153.791 261.17L153.591 261.35L153.421 261.15L134.661 241.02L134.741 241.08C131.312 239.378 128.165 237.159 125.411 234.5C122.866 232.102 120.858 229.191 119.521 225.96C119.271 225.17 118.941 224.42 118.771 223.63C118.601 222.84 118.411 222.08 118.331 221.31C118.161 219.814 118.235 218.301 118.551 216.83C119.162 214.24 120.321 211.812 121.951 209.71C124.253 206.756 127.003 204.182 130.101 202.08C131.171 201.34 132.021 200.82 132.611 200.48L133.281 200.11C133.431 200.03 133.511 200 133.521 200.01L133.301 200.15L132.651 200.56C132.081 200.92 131.241 201.46 130.191 202.22C127.147 204.355 124.449 206.945 122.191 209.9C120.606 211.971 119.484 214.358 118.901 216.9C118.601 218.33 118.537 219.799 118.711 221.25C118.791 222 119.011 222.75 119.161 223.52C119.311 224.29 119.651 225.02 119.891 225.79C122.321 231.79 127.991 237.11 134.891 240.61H134.941C140.751 246.82 147.101 253.61 153.721 260.72H153.351L153.491 260.59L183.001 235.2V235.53C175.001 225.53 168.341 217.21 163.641 211.32L158.221 204.49L156.811 202.68C156.661 202.48 156.541 202.33 156.451 202.2C156.382 202.141 156.322 202.074 156.271 202Z" fill="#263238"/>
<path d="M135.621 325.75C135.621 325.84 134.971 325.82 133.981 326.1C132.704 326.445 131.564 327.176 130.718 328.192C129.871 329.209 129.359 330.462 129.251 331.78C129.151 332.78 129.251 333.44 129.201 333.45C128.937 332.928 128.826 332.342 128.881 331.76C128.898 330.338 129.404 328.965 130.315 327.872C131.226 326.779 132.485 326.033 133.881 325.76C134.448 325.59 135.052 325.587 135.621 325.75Z" fill="#FF9A6C"/>
<path d="M137.461 328.1C137.461 328.17 137.071 328.46 136.391 328.95C136.061 329.2 135.661 329.49 135.261 329.85C134.824 330.197 134.48 330.647 134.261 331.16C133.972 332.177 133.893 333.242 134.031 334.29C134.12 334.735 134.163 335.187 134.161 335.64C134.101 335.64 133.841 335.19 133.661 334.35C133.411 333.236 133.449 332.076 133.771 330.98C134.031 330.382 134.445 329.865 134.971 329.48C135.362 329.169 135.776 328.888 136.211 328.64C136.931 328.22 137.431 328 137.461 328.1Z" fill="#FF9A6C"/>
<path d="M145.83 330C145.325 330.234 144.777 330.36 144.22 330.37C143.22 330.51 141.76 330.59 140.86 331.75C140.483 332.248 140.212 332.818 140.062 333.425C139.913 334.032 139.888 334.663 139.99 335.28C140.17 336.23 140.5 336.79 140.42 336.83C140.011 336.433 139.735 335.92 139.63 335.36C139.463 334.683 139.45 333.978 139.592 333.296C139.734 332.614 140.027 331.973 140.45 331.42C140.944 330.811 141.626 330.385 142.39 330.21C142.981 330.076 143.584 330.005 144.19 330C144.735 329.943 145.285 329.943 145.83 330Z" fill="#FF9A6C"/>
<path d="M161.381 325.75C159.541 325.322 157.741 324.736 156.001 324C154.541 323.44 153.231 322.91 152.291 322.52C151.773 322.328 151.271 322.094 150.791 321.82C150.791 321.61 153.271 322.4 156.191 323.51C157.987 324.092 159.725 324.842 161.381 325.75Z" fill="#FF9A6C"/>
<g opacity="0.3">
<path d="M206.34 236.7C206.34 236.7 202.75 268.11 195.72 280.91C188.69 293.71 182.9 304.67 182.9 304.67L182.4 307.09C182.4 307.09 196.68 284.56 199.26 278.96C203.401 270.013 206.709 260.704 209.14 251.15C211.72 240.27 212.14 238.38 212.06 238.38C211.98 238.38 208 235.39 206.34 236.7Z" fill="black"/>
</g>
</svg>
