<svg width="500" height="500" viewBox="0 0 500 500" fill="none" xmlns="http://www.w3.org/2000/svg">
<path d="M100.161 283C102.291 273.23 95.8107 262.38 86.1607 259.61C76.5107 256.84 65.3507 262.58 62.0007 272C52.7507 265.79 38.2507 270.4 34.2807 280.81C30.3107 291.22 38.0807 304.31 49.1107 305.81C43.5207 312.24 44.5007 323.25 51.1107 328.59C57.7207 333.93 68.7107 332.53 73.7907 325.7C69.6507 334.28 77.2107 345.43 86.6907 346.38C96.1707 347.33 105.161 339.83 107.841 330.69C110.521 321.55 107.841 311.5 102.731 303.46C105.022 302.495 106.919 300.782 108.112 298.601C109.305 296.42 109.724 293.899 109.3 291.449C108.877 288.999 107.636 286.765 105.78 285.111C103.924 283.457 101.563 282.48 99.0807 282.34" fill="#F5F5F5"/>
<path d="M465.211 436.51C461.812 430.653 456.909 425.811 451.01 422.484C445.112 419.158 438.431 417.468 431.661 417.59C439.371 397.36 430.841 372.23 412.421 360.87C394.001 349.51 367.711 353.19 353.101 369.16C343.001 356.87 322.001 360.25 311.001 371.75C300.001 383.25 296.431 399.75 293.301 415.33C283.041 407.67 267.521 411.53 258.501 420.61C249.481 429.69 245.501 442.51 242.341 454.92C239.411 440.46 222.741 430.44 208.591 434.65C214.131 416.59 202.121 395.12 183.821 390.4C177.411 388.74 170.551 388.9 164.391 386.49C154.031 382.43 147.531 371.93 137.691 366.73C119.691 357.23 95.9307 369.86 88.0807 388.63C84.5307 397.1 83.2207 406.86 77.0807 413.7C72.8107 418.46 70.8906 414.65 58.6906 420.39C44.2206 427.22 33.9206 444.8 50.1906 474H464.611C472.001 462.65 471.821 448.28 465.211 436.51Z" fill="#F5F5F5"/>
<path d="M351.64 91.5898L358.44 94.2598L351.85 97.0098L349.33 104.38L346.42 97.2198L339.15 94.8398L346.21 91.7999L349.03 84.5898L351.64 91.5898Z" fill="#E0E0E0"/>
<path d="M326.64 294.46L333.44 297.13L326.85 299.88L324.33 307.25L321.43 300.09L314.16 297.71L321.22 294.67L324.04 287.47L326.64 294.46Z" fill="#E0E0E0"/>
<path d="M111.47 210.02L119.64 213.23L111.72 216.53L108.7 225.38L105.21 216.78L96.4805 213.93L104.96 210.27L108.34 201.63L111.47 210.02Z" fill="#E0E0E0"/>
<path d="M376.23 59.31L379.94 60.77L376.34 62.27L374.97 66.29L373.38 62.39L369.42 61.09L373.27 59.43L374.81 55.5L376.23 59.31Z" fill="#E0E0E0"/>
<path d="M77.7104 170.98L81.4204 172.44L77.8304 173.94L76.4504 177.96L74.8704 174.05L70.9004 172.75L74.7504 171.09L76.2904 167.17L77.7104 170.98Z" fill="#E0E0E0"/>
<path d="M365.621 259.76L369.331 261.22L365.731 262.72L364.351 266.74L362.771 262.83L358.801 261.53L362.661 259.87L364.191 255.94L365.621 259.76Z" fill="#E0E0E0"/>
<path d="M167.21 67.3298L170.92 68.7798L167.33 70.2798L165.95 74.3098L164.37 70.3998L160.4 69.0998L164.25 67.4398L165.79 63.5098L167.21 67.3298Z" fill="#E0E0E0"/>
<path d="M360.351 123.08L364.061 124.53L360.471 126.03L359.091 130.05L357.511 126.15L353.541 124.85L357.391 123.19L358.931 119.26L360.351 123.08Z" fill="#E0E0E0"/>
<path d="M48.2702 244.72L51.7302 246.08L48.3702 247.48L47.0902 251.23L45.6102 247.59L41.9102 246.37L45.5002 244.82L46.9402 241.15L48.2702 244.72Z" fill="#E0E0E0"/>
<path d="M103.501 328C100.86 328.606 98.1087 328.547 95.4957 327.826C92.8827 327.106 90.4895 325.748 88.5313 323.874C86.5731 322 85.1111 319.669 84.2768 317.09C83.4425 314.512 83.2619 311.766 83.7514 309.1C93.2714 311.88 101.991 316.84 103.501 328Z" fill="#EBEBEB"/>
<path d="M108.06 330.11C107.098 329.897 106.167 329.561 105.29 329.11C103.118 328.162 101.053 326.986 99.1303 325.6C97.2114 324.21 95.442 322.625 93.8503 320.87C93.1584 320.174 92.56 319.391 92.0703 318.54C92.1303 318.49 92.8603 319.34 94.1203 320.61C97.4044 323.954 101.232 326.717 105.44 328.78C106.338 329.173 107.213 329.617 108.06 330.11Z" fill="#E0E0E0"/>
<path d="M379.422 209.8C378.738 207.177 378.717 204.426 379.36 201.794C380.004 199.161 381.293 196.73 383.11 194.72C384.927 192.709 387.216 191.182 389.77 190.276C392.324 189.37 395.064 189.114 397.741 189.53C395.241 199.12 390.522 207.98 379.422 209.8Z" fill="#EBEBEB"/>
<path d="M377.391 214.43C377.563 213.463 377.858 212.522 378.271 211.63C380.056 207.236 382.756 203.272 386.191 200C386.87 199.295 387.632 198.673 388.461 198.15C387.834 198.891 387.166 199.595 386.461 200.26C384.845 201.954 383.37 203.777 382.051 205.71C380.742 207.646 379.595 209.686 378.621 211.81C378.257 212.705 377.847 213.58 377.391 214.43Z" fill="#E0E0E0"/>
<path d="M132.541 112.37C129.85 112.042 127.282 111.05 125.07 109.482C122.858 107.914 121.071 105.821 119.869 103.391C118.668 100.96 118.09 98.2688 118.188 95.5594C118.286 92.8499 119.057 90.2075 120.431 87.8701C128.431 93.7301 134.931 101.37 132.541 112.37Z" fill="#EBEBEB"/>
<path d="M136.09 116C135.256 115.485 134.49 114.867 133.81 114.16C130.375 110.875 127.673 106.902 125.88 102.5C125.475 101.605 125.177 100.665 124.99 99.7002C125.451 100.563 125.861 101.451 126.22 102.36C127.201 104.483 128.351 106.523 129.66 108.46C130.979 110.388 132.454 112.204 134.07 113.89C134.784 114.554 135.458 115.258 136.09 116Z" fill="#E0E0E0"/>
<path d="M346.17 337.83C340.51 333.51 347.69 321.11 353.37 316.83C359.05 312.55 366.53 309.83 369.75 303.51C372.97 297.19 370.75 289.68 371.52 282.69C372.82 270.69 384.13 260.64 396.2 260.75C388.65 247.98 395.2 229.63 408.5 223.08C421.8 216.53 439.18 221.47 448.45 233.08C457.72 244.69 459.12 261.46 453.57 275.22C447.75 289.62 432.36 301.41 417.27 297.73C419.36 311.81 408.12 326.48 393.97 328.12C384.97 329.12 376.14 325.61 367.11 325.07C358.08 324.53 347.25 328.93 346.17 337.9" fill="#F5F5F5"/>
<path d="M402.681 111.32C391.141 105.69 384.951 113.98 383.421 118.82C382.714 121.267 382.803 123.876 383.677 126.269C384.551 128.662 386.163 130.715 388.281 132.13C387.05 132.852 385.973 133.81 385.112 134.949C384.251 136.087 383.623 137.384 383.263 138.765C382.536 141.555 382.948 144.519 384.406 147.005C385.865 149.492 388.252 151.297 391.041 152.023C393.831 152.75 396.795 152.339 399.281 150.88C399.289 154.386 400.499 157.783 402.709 160.505C404.919 163.226 407.996 165.107 411.426 165.834C414.856 166.561 418.431 166.089 421.555 164.498C424.679 162.906 427.163 160.292 428.591 157.09C429.511 155.02 430.021 152.67 431.591 151.03C434.001 148.52 437.931 148.55 441.261 147.57C444.876 146.366 447.925 143.878 449.828 140.577C451.732 137.277 452.359 133.392 451.591 129.66C449.811 122.27 441.701 117.03 434.231 118.43C434.651 115.616 434.331 112.741 433.303 110.089C432.275 107.436 430.574 105.096 428.367 103.3C426.16 101.504 423.524 100.314 420.718 99.8455C417.911 99.3773 415.032 99.6477 412.361 100.63C406.111 102.93 401.611 109.63 402.741 111.32" fill="#F5F5F5"/>
<path d="M92.8412 134.36C100.841 138.99 105.661 133.36 107.011 130C107.651 128.286 107.726 126.413 107.226 124.654C106.726 122.894 105.676 121.341 104.231 120.22C106.014 119.267 107.357 117.66 107.978 115.736C108.599 113.813 108.449 111.723 107.559 109.908C106.67 108.093 105.111 106.694 103.21 106.006C101.31 105.318 99.2163 105.395 97.3712 106.22C97.5471 103.712 96.8586 101.22 95.4205 99.1577C93.9824 97.0957 91.8814 95.5885 89.4673 94.8871C87.0532 94.1856 84.4717 94.3323 82.1525 95.3026C79.8333 96.2729 77.9165 98.0083 76.7212 100.22C75.9512 101.65 75.4712 103.3 74.2612 104.39C72.4112 106.06 69.6012 105.84 67.1612 106.39C64.4509 106.964 62.0665 108.561 60.5044 110.849C58.9423 113.137 58.323 115.94 58.7753 118.673C59.2276 121.406 60.7167 123.86 62.9326 125.523C65.1485 127.185 67.9204 127.929 70.6712 127.6C70.2197 129.593 70.2953 131.669 70.8907 133.624C71.4861 135.579 72.5807 137.345 74.0665 138.748C75.5524 140.151 77.3782 141.143 79.364 141.626C81.3499 142.108 83.4272 142.065 85.3912 141.5C89.9812 140.19 93.5512 135.63 92.8412 134.36Z" fill="#F5F5F5"/>
<path d="M329 200.26C329.025 200.345 329.041 200.432 329.05 200.52C329.05 200.72 329.11 200.97 329.15 201.29C329.19 201.61 329.24 202.04 329.28 202.54C329.32 203.04 329.28 203.61 329.35 204.25C329.375 207.91 328.883 211.556 327.89 215.08C326.378 220.291 324.193 225.283 321.39 229.93C317.903 235.559 314.135 241.009 310.1 246.26C306.071 251.491 302.466 257.035 299.32 262.84C296.789 267.595 294.996 272.706 294 278C293.365 281.576 293.28 285.228 293.75 288.83C293.86 289.46 293.95 290.02 294.03 290.52C294.11 291.02 294.23 291.41 294.3 291.74C294.37 292.07 294.42 292.3 294.46 292.49C294.476 292.579 294.476 292.671 294.46 292.76C294.42 292.68 294.39 292.596 294.37 292.51C294.32 292.31 294.25 292.07 294.16 291.76C294.07 291.45 293.95 291.03 293.84 290.55C293.73 290.07 293.64 289.49 293.52 288.86C292.973 285.238 293 281.553 293.6 277.94C294.53 272.586 296.28 267.409 298.79 262.59C301.955 256.775 305.587 251.227 309.65 246C313.82 240.33 317.85 235 320.94 229.73C323.754 225.124 325.959 220.173 327.5 215C328.518 211.512 329.059 207.903 329.11 204.27C329.11 203.63 329.11 203.06 329.11 202.56C329.11 202.06 329.04 201.64 329.02 201.31C329 200.98 329.02 200.74 329.02 200.53C328.999 200.441 328.992 200.35 329 200.26Z" fill="#263238"/>
<path d="M318.591 252.33C318.381 252.11 317.931 252.17 317.591 252.25C314.571 252.946 311.776 254.391 309.461 256.45C307.36 258.278 305.902 260.732 305.301 263.45L305.851 263.26C308.641 262.701 311.219 261.371 313.291 259.42C315.207 257.586 316.917 255.547 318.391 253.34C318.581 253 318.821 252.58 318.591 252.33Z" fill="#D7AE6F"/>
<path d="M306.869 229.16C306.569 229.16 306.309 229.54 306.109 229.87C304.566 232.558 303.727 235.592 303.669 238.69C303.577 241.467 304.384 244.199 305.969 246.48L306.199 245.95C307.685 243.526 308.461 240.733 308.439 237.89C308.395 235.235 308.06 232.592 307.439 230.01C307.359 229.62 307.219 229.16 306.869 229.16Z" fill="#D7AE6F"/>
<path d="M313.14 256.391C312.968 256.727 312.753 257.04 312.5 257.321C311.852 258.118 311.144 258.864 310.38 259.551C307.794 261.715 305.101 263.748 302.31 265.641C299.562 267.549 297.281 270.055 295.64 272.971C295.04 274.217 294.6 275.534 294.33 276.891C294.292 276.513 294.316 276.131 294.4 275.761C294.558 274.737 294.868 273.743 295.32 272.811C296.906 269.781 299.201 267.18 302.01 265.231C305.2 262.881 308.21 260.991 310.15 259.231C312.09 257.471 313.07 256.331 313.14 256.391Z" fill="#263238"/>
<path d="M336.44 229.791C336.27 229.531 335.82 229.501 335.44 229.521C332.341 229.618 329.317 230.498 326.65 232.081C324.242 233.469 322.343 235.593 321.23 238.141L321.81 238.051C324.644 238.037 327.416 237.226 329.81 235.711C332.045 234.276 334.114 232.599 335.98 230.711C336.31 230.441 336.62 230.081 336.44 229.791Z" fill="#D7AE6F"/>
<path d="M330.311 232.73C330.082 233.035 329.809 233.305 329.501 233.53C328.71 234.196 327.867 234.797 326.981 235.33C324.761 236.73 321.391 238.08 317.841 239.78C314.86 241.35 312.227 243.507 310.101 246.12C308.431 248.12 307.541 249.44 307.471 249.39C307.612 249.035 307.797 248.699 308.021 248.39C308.411 247.78 309.021 246.91 309.821 245.88C311.905 243.149 314.565 240.909 317.611 239.32C321.211 237.6 324.561 236.32 326.801 235.01C329.041 233.7 330.251 232.66 330.311 232.73Z" fill="#263238"/>
<path d="M345.311 192.891C345.071 192.711 344.641 192.891 344.311 193.001C341.463 194.227 338.97 196.149 337.061 198.591C335.326 200.759 334.33 203.426 334.221 206.201L334.731 205.921C337.376 204.872 339.673 203.102 341.361 200.811C342.917 198.66 344.235 196.347 345.291 193.911C345.431 193.551 345.591 193.091 345.311 192.891Z" fill="#D7AE6F"/>
<path d="M340.681 197.861C340.627 198.13 340.526 198.387 340.381 198.62C340.049 199.282 339.671 199.921 339.251 200.53C337.827 202.505 336.227 204.346 334.471 206.03C333.471 207.03 332.471 208.031 331.681 208.881C330.952 209.67 330.284 210.512 329.681 211.4C328.681 212.92 328.131 213.96 328.051 213.92C328.102 213.651 328.197 213.391 328.331 213.15C328.638 212.462 328.989 211.794 329.381 211.15C329.968 210.216 330.638 209.336 331.381 208.521C332.211 207.601 333.161 206.63 334.151 205.62C335.887 203.949 337.508 202.162 339.001 200.271C340.081 198.851 340.601 197.821 340.681 197.861Z" fill="#263238"/>
<path d="M306.53 233.521C306.631 233.872 306.685 234.235 306.69 234.601C306.779 235.598 306.815 236.599 306.8 237.601C306.8 238.861 306.74 240.371 306.58 242.031C306.431 244.795 305.709 247.499 304.46 249.971C304.09 250.791 303.74 251.591 303.4 252.351C302.73 253.861 302.16 255.241 301.73 256.421C300.86 258.761 300.49 260.271 300.41 260.251C300.421 259.885 300.478 259.522 300.58 259.171C300.73 258.481 301 257.5 301.39 256.3C301.78 255.1 302.32 253.701 302.97 252.161L303.97 249.771C304.33 248.941 304.74 248.101 305.03 247.211C305.547 245.505 305.898 243.753 306.08 241.98C306.26 240.33 306.36 238.851 306.41 237.601C306.46 236.351 306.46 235.331 306.46 234.601C306.446 234.239 306.469 233.877 306.53 233.521Z" fill="#263238"/>
<path d="M321.001 204.89C320.701 204.94 320.501 205.35 320.371 205.71C319.273 208.61 318.929 211.741 319.371 214.81C319.734 217.564 320.976 220.128 322.911 222.12L323.051 221.56C324.121 218.925 324.429 216.042 323.941 213.24C323.46 210.629 322.699 208.078 321.671 205.63C321.561 205.26 321.351 204.83 321.001 204.89Z" fill="#D7AE6F"/>
<path d="M321.159 209.271C321.575 210.138 321.877 211.056 322.059 212.001C322.615 214.25 322.99 216.541 323.179 218.851C323.437 221.172 323.247 223.521 322.619 225.771C322.455 226.715 322.204 227.642 321.869 228.54C321.917 227.584 322.048 226.634 322.259 225.701C322.469 224.71 322.626 223.708 322.729 222.701C322.803 221.444 322.783 220.184 322.669 218.93C322.466 216.643 322.132 214.37 321.669 212.12C321.369 210.35 321.089 209.291 321.159 209.271Z" fill="#263238"/>
<path d="M120.48 156.351C120.637 156.521 120.777 156.705 120.9 156.901L122.04 158.521C123.04 159.931 124.48 161.951 126.32 164.411C128.16 166.871 130.39 169.771 132.8 173.051C135.44 176.583 137.887 180.255 140.13 184.051C142.351 187.887 144.139 191.959 145.46 196.191C146.536 199.648 147.151 203.232 147.29 206.851C147.39 209.292 147.192 211.737 146.7 214.131C146.576 214.779 146.415 215.42 146.22 216.051C146.174 216.278 146.104 216.499 146.01 216.711C146.022 216.48 146.063 216.251 146.13 216.031C146.2 215.581 146.4 214.941 146.51 214.091C146.918 211.707 147.063 209.286 146.94 206.871C146.742 203.296 146.09 199.761 145 196.351C143.663 192.171 141.879 188.148 139.68 184.351C137.447 180.562 135.021 176.89 132.41 173.351L126.02 164.651C124.22 162.161 122.8 160.111 121.86 158.651C121.39 157.941 121.04 157.361 120.8 156.981C120.67 156.783 120.563 156.572 120.48 156.351Z" fill="#263238"/>
<path d="M121.69 176.441C121.89 176.211 122.34 176.271 122.69 176.351C125.715 177.023 128.522 178.446 130.85 180.491C132.96 182.298 134.435 184.734 135.06 187.441L134.51 187.261C131.714 186.723 129.126 185.409 127.04 183.471C125.114 181.663 123.391 179.651 121.9 177.471C121.69 177.101 121.45 176.691 121.69 176.441Z" fill="#D7AE6F"/>
<path d="M133.239 153.19C133.549 153.19 133.809 153.56 134.009 153.89C135.571 156.57 136.431 159.6 136.509 162.7C136.614 165.473 135.829 168.206 134.269 170.5L133.999 170C132.503 167.6 131.71 164.829 131.709 162C131.734 159.344 132.049 156.698 132.649 154.11C132.759 153.65 132.899 153.19 133.239 153.19Z" fill="#D7AE6F"/>
<path d="M127.16 180.461C127.23 180.401 128.16 181.691 130.16 183.331C132.16 184.971 135.16 186.901 138.34 189.231C141.163 191.158 143.476 193.742 145.08 196.761C145.537 197.689 145.853 198.68 146.02 199.701C146.098 200.072 146.125 200.452 146.1 200.831C145.809 199.48 145.359 198.167 144.76 196.921C143.093 194.02 140.797 191.529 138.04 189.631C135.238 187.768 132.532 185.765 129.93 183.631C129.16 182.951 128.445 182.212 127.79 181.421C127.539 181.13 127.327 180.807 127.16 180.461Z" fill="#263238"/>
<path d="M103.69 154C103.85 153.75 104.3 153.72 104.69 153.73C107.79 153.808 110.821 154.668 113.5 156.23C115.912 157.595 117.823 159.698 118.95 162.23L118.38 162.15C115.535 162.158 112.745 161.365 110.33 159.86C108.088 158.443 106.009 156.783 104.13 154.91C103.82 154.67 103.5 154.3 103.69 154Z" fill="#D7AE6F"/>
<path d="M109.83 156.92C109.89 156.85 111.09 157.92 113.36 159.18C115.63 160.44 118.96 161.73 122.57 163.43C125.628 165.001 128.304 167.223 130.41 169.94C131.22 170.94 131.83 171.83 132.22 172.44C132.445 172.752 132.636 173.087 132.79 173.44C132.72 173.49 131.79 172.16 130.13 170.19C127.991 167.589 125.344 165.453 122.35 163.91C118.78 162.23 115.41 160.91 113.18 159.51C112.289 158.984 111.439 158.388 110.64 157.73C110.336 157.497 110.063 157.225 109.83 156.92Z" fill="#263238"/>
<path d="M133.619 157.541C133.655 157.907 133.655 158.275 133.619 158.641C133.619 159.341 133.619 160.351 133.689 161.641C133.759 162.931 133.849 164.381 134.049 166.021C134.239 167.794 134.597 169.546 135.119 171.251C135.419 172.131 135.839 172.971 136.199 173.801C136.559 174.631 136.919 175.421 137.259 176.181C137.919 177.711 138.469 179.111 138.869 180.311C139.269 181.511 139.539 182.491 139.699 183.181C139.802 183.533 139.862 183.895 139.879 184.261C139.799 184.261 139.419 182.771 138.529 180.431C138.089 179.261 137.529 177.881 136.839 176.371C136.489 175.611 136.129 174.821 135.749 174.011C135.369 173.201 134.959 172.351 134.639 171.411C134.108 169.671 133.752 167.882 133.579 166.071C133.409 164.411 133.339 162.911 133.329 161.651C133.319 160.391 133.329 159.371 133.419 158.651C133.438 158.274 133.505 157.901 133.619 157.541Z" fill="#263238"/>
<path d="M459.67 474.08C459.67 474.23 365.79 474.34 250.01 474.34C134.23 474.34 40.3301 474.23 40.3301 474.08C40.3301 473.93 134.19 473.82 250.01 473.82C365.83 473.82 459.67 473.94 459.67 474.08Z" fill="#263238"/>
<path d="M185.62 295.07C183.41 288.07 185.15 280.25 188.68 273.79C192.21 267.33 197.39 261.94 202.51 256.64L199.6 238.75C194.16 254.92 176 264 170 280C166.1 290.45 168.25 302.63 174.38 311.95C180.51 321.27 190.24 327.87 200.77 331.55C203.77 325.34 200.82 317.89 196.83 312.28C192.84 306.67 187.69 301.64 185.62 295.07Z" fill="#D7AE6F"/>
<g opacity="0.7">
<path d="M185.62 295.07C183.41 288.07 185.15 280.25 188.68 273.79C192.21 267.33 197.39 261.94 202.51 256.64L199.6 238.75C194.16 254.92 176 264 170 280C166.1 290.45 168.25 302.63 174.38 311.95C180.51 321.27 190.24 327.87 200.77 331.55C203.77 325.34 200.82 317.89 196.83 312.28C192.84 306.67 187.69 301.64 185.62 295.07Z" fill="white"/>
</g>
<path d="M224.551 356.001L185.281 296.621L204.551 380.161C204.551 380.161 202.551 402.691 207.201 421.941C209.871 433.051 214.821 445.171 216.911 452.711C218.076 457.072 219.564 461.34 221.361 465.481L234.181 468.831L224.551 356.001Z" fill="#FFBE9D"/>
<path d="M208.13 485.501L234.71 473.311L231.24 438.071L211.95 437.071C215.78 450.921 217.23 456.151 219.78 465.341L205.5 482.121C205.291 482.364 205.138 482.651 205.053 482.96C204.968 483.269 204.952 483.594 205.006 483.91C205.061 484.226 205.184 484.526 205.368 484.789C205.552 485.052 205.792 485.271 206.07 485.431C206.381 485.611 206.732 485.712 207.091 485.725C207.45 485.737 207.807 485.66 208.13 485.501Z" fill="#FFBE9D"/>
<path d="M192 110.151C191.241 109.708 190.367 109.503 189.49 109.562C188.613 109.62 187.774 109.941 187.08 110.481C185.713 111.588 184.57 112.946 183.71 114.481C182.848 116.018 181.64 117.333 180.18 118.321C176.1 120.681 170.54 117.661 166.32 119.761C163.17 121.331 161.66 125.351 158.32 126.481C161.684 127.333 165.247 126.826 168.24 125.071C169.272 124.28 170.452 123.705 171.71 123.381C173.71 123.121 175.43 124.481 177.25 125.271C179.49 126.173 181.973 126.267 184.274 125.537C186.575 124.807 188.55 123.298 189.86 121.271C191.01 119.361 191.59 116.991 193.36 115.621C194.26 114.931 195.36 114.621 196.24 113.811C197.12 113.001 197.49 111.571 196.63 110.811" fill="#D7AE6F"/>
<path d="M185.311 116.221C185.542 115.024 186.143 113.929 187.029 113.091C187.916 112.254 189.042 111.715 190.251 111.551C189.24 112.101 188.282 112.743 187.391 113.471C186.606 114.315 185.909 115.236 185.311 116.221Z" fill="#263238"/>
<path d="M177.631 122C178.479 122.001 179.327 121.954 180.171 121.86C182.183 121.524 184 120.456 185.271 118.86C186.751 117.01 187.701 114.98 188.761 113.76C189.269 113.033 189.958 112.45 190.761 112.07C190.811 112.15 189.991 112.71 189.081 113.98C188.621 114.61 188.141 115.42 187.611 116.32C187.052 117.33 186.413 118.293 185.701 119.2C184.345 120.873 182.389 121.95 180.251 122.2C179.617 122.291 178.974 122.291 178.341 122.2C178.092 122.19 177.849 122.122 177.631 122Z" fill="#263238"/>
<g opacity="0.4">
<path d="M189.77 111.711C187.921 112.459 186.31 113.697 185.11 115.291C185.021 115.378 184.953 115.485 184.913 115.603C184.873 115.721 184.862 115.847 184.88 115.971C184.915 116.044 184.965 116.11 185.028 116.162C185.091 116.215 185.164 116.253 185.242 116.275C185.321 116.297 185.404 116.302 185.484 116.289C185.565 116.276 185.642 116.246 185.71 116.201C185.982 116.003 186.187 115.727 186.3 115.411C186.301 115.958 186.184 116.498 185.956 116.996C185.728 117.493 185.395 117.935 184.98 118.291C184.147 118.998 183.196 119.553 182.17 119.931C181.145 120.303 180.157 120.772 179.22 121.331C179.01 121.461 178.79 121.671 178.85 121.901C178.91 122.131 179.3 122.211 179.58 122.171C181.921 121.746 184.061 120.574 185.68 118.831C187.279 117.091 188.683 115.183 189.87 113.141C190.027 112.917 190.142 112.666 190.21 112.401C190.236 112.266 190.224 112.127 190.175 112C190.125 111.872 190.04 111.762 189.93 111.681" fill="black"/>
</g>
<path d="M195.191 106.06C193.871 105.73 192.421 105.41 191.191 106.06C189.691 106.84 189.191 108.74 189.191 110.43C189.191 111.11 189.481 111.15 189.871 111.71C190.431 112.47 191.241 113.36 192.171 113.2C192.935 113.071 193.653 112.75 194.258 112.266C194.863 111.782 195.335 111.153 195.629 110.436C195.923 109.72 196.03 108.941 195.939 108.171C195.849 107.402 195.564 106.669 195.111 106.04" fill="#D7AE6F"/>
<path d="M197.19 116.87C195.51 118.08 195.44 120.56 195.92 122.57C196.4 124.58 197.27 126.57 196.92 128.64C196.01 133.48 188.73 135.35 188.44 140.26C188.27 143 190.44 145.89 189.14 148.26C188.14 150.05 185.78 150.39 183.86 151.1C181.855 151.882 180.123 153.234 178.879 154.99C177.634 156.746 176.933 158.829 176.86 160.98C176.86 163.91 177.86 167.14 176.29 169.57C174.98 171.57 172.35 172.19 170.79 173.96C168.23 176.85 169.71 181.9 173.06 183.81C176.41 185.72 180.76 185.01 184.06 183.04C187.91 180.74 190.86 176.89 195.13 175.51C199.93 173.95 205.06 175.9 209.91 177.31C214.76 178.72 220.6 179.31 224.28 175.92C228.45 172.02 227.72 164.8 231.69 160.7C233.97 158.35 237.33 157.5 240.32 156.16C243.31 154.82 246.32 152.37 246.32 149.1C246.32 145.99 243.55 143.2 244.18 140.15C244.57 138.25 246.18 136.87 247.18 135.15C248.67 132.5 248.47 129.25 248.18 126.22L247.59 119.06" fill="#263238"/>
<path d="M199.051 84.751C199.051 90.041 192.161 93.521 192.461 98.751C192.591 101.011 194.081 102.991 194.461 105.231C194.961 108.231 193.381 111.161 192.871 114.171C191.871 120.371 195.671 126.711 201.101 129.861C206.531 133.011 213.221 133.391 219.411 132.291" fill="#263238"/>
<path d="M241.501 81.7607C241.401 84.6007 243.381 87.0607 245.351 89.1107C247.321 91.1607 249.511 93.2907 250.031 96.1107C250.951 101.111 246.251 105.881 247.461 110.781C248.101 113.401 250.351 115.441 250.851 118.101C251.351 120.761 250.041 123.251 248.401 125.291C246.761 127.331 244.761 127.111 243.331 129.291C241.664 131.749 239.501 133.83 236.981 135.401C231.631 138.621 224.891 134.551 222.221 133.881" fill="#263238"/>
<path d="M198.111 87.8298C197.941 85.2698 200.231 83.1798 202.591 82.1498C204.951 81.1198 207.591 80.6498 209.671 79.1498C211.501 77.7998 212.671 75.7698 214.231 74.0798C216.124 72.0012 218.536 70.4637 221.219 69.6253C223.902 68.7868 226.76 68.6775 229.5 69.3087C232.239 69.9398 234.761 71.2887 236.807 73.2167C238.853 75.1448 240.349 77.5826 241.141 80.2798C242.201 83.8998 241.751 88.2798 238.961 90.7998C235.721 93.7998 230.731 93.3298 226.411 92.6298C222.091 91.9298 217.191 91.2498 213.711 93.9098C211.611 95.5198 210.471 98.0398 209.241 100.38C208.011 102.72 206.451 105.12 203.981 106.08C201.511 107.04 198.071 105.69 197.871 103.08" fill="#263238"/>
<path d="M243.741 95.1107C242.971 87.7907 237.741 78.9907 230.451 80.1107L207.871 86.8407C206.806 86.9989 205.839 87.5511 205.161 88.388C204.484 89.225 204.145 90.2858 204.211 91.3607L210.011 150.571L235.441 152.131L233.891 133.601C233.891 133.601 243.191 131.651 244.621 119.341C245.331 113.191 244.601 103.231 243.741 95.1107Z" fill="#FFBE9D"/>
<path d="M242.361 104.61C242.383 105.019 242.243 105.421 241.972 105.727C241.701 106.034 241.32 106.222 240.911 106.25C240.713 106.277 240.511 106.263 240.318 106.209C240.125 106.155 239.946 106.063 239.789 105.938C239.633 105.812 239.504 105.657 239.41 105.48C239.316 105.304 239.258 105.11 239.241 104.91C239.216 104.501 239.353 104.099 239.623 103.79C239.892 103.482 240.272 103.291 240.681 103.26C240.88 103.237 241.082 103.253 241.275 103.309C241.468 103.364 241.648 103.457 241.804 103.583C241.961 103.709 242.091 103.864 242.186 104.041C242.282 104.217 242.341 104.411 242.361 104.61Z" fill="#263238"/>
<path d="M242.191 101.53C242.011 101.74 240.781 100.91 239.101 100.99C237.421 101.07 236.211 101.99 236.021 101.76C235.831 101.53 236.111 101.3 236.631 100.88C237.338 100.345 238.194 100.041 239.081 100.01C239.96 99.9689 240.829 100.211 241.561 100.7C242.101 101.07 242.291 101.43 242.191 101.53Z" fill="#263238"/>
<path d="M225.39 105.49C225.407 105.898 225.266 106.296 224.995 106.602C224.725 106.908 224.347 107.097 223.94 107.13C223.742 107.154 223.542 107.138 223.35 107.083C223.158 107.028 222.98 106.936 222.824 106.811C222.669 106.686 222.54 106.532 222.445 106.356C222.35 106.181 222.29 105.989 222.27 105.79C222.246 105.381 222.383 104.979 222.652 104.67C222.922 104.361 223.302 104.171 223.71 104.14C223.91 104.117 224.112 104.133 224.305 104.189C224.497 104.244 224.677 104.337 224.834 104.463C224.99 104.589 225.12 104.744 225.216 104.921C225.311 105.097 225.371 105.291 225.39 105.49Z" fill="#263238"/>
<path d="M225.621 102.551C225.431 102.761 224.211 101.931 222.521 102.001C220.831 102.071 219.631 103.001 219.441 102.781C219.251 102.561 219.531 102.311 220.051 101.901C220.761 101.363 221.62 101.059 222.511 101.031C223.388 100.991 224.256 101.229 224.991 101.711C225.521 102.091 225.711 102.451 225.621 102.551Z" fill="#263238"/>
<path d="M232.27 114.801C233.149 114.489 234.062 114.284 234.99 114.191C235.42 114.131 235.83 114.031 235.89 113.731C235.908 113.283 235.79 112.84 235.55 112.461C235.1 111.461 234.63 110.361 234.13 109.241C232.13 104.641 230.72 100.851 230.91 100.771C231.1 100.691 232.84 104.361 234.81 108.961C235.28 110.091 235.73 111.171 236.17 112.211C236.459 112.72 236.561 113.314 236.46 113.891C236.402 114.044 236.311 114.183 236.194 114.297C236.076 114.411 235.935 114.498 235.78 114.551C235.542 114.623 235.297 114.667 235.05 114.681C234.132 114.838 233.198 114.879 232.27 114.801Z" fill="#263238"/>
<path d="M233.89 133.57C228.2 134.01 222.505 132.794 217.49 130.07C217.63 130.07 222.49 138.57 234.19 136.82L233.89 133.57Z" fill="#EB996E"/>
<path d="M231.85 118.591C231.489 118.133 231.021 117.772 230.487 117.538C229.954 117.305 229.371 117.206 228.79 117.251C228.389 117.281 228.001 117.402 227.655 117.605C227.308 117.807 227.012 118.087 226.79 118.421C226.58 118.776 226.475 119.183 226.487 119.596C226.5 120.008 226.629 120.409 226.86 120.751C227.154 121.096 227.544 121.345 227.981 121.466C228.417 121.587 228.88 121.575 229.31 121.431C230.14 121.109 230.888 120.607 231.5 119.961C231.696 119.803 231.856 119.605 231.97 119.381C232.026 119.266 232.049 119.138 232.037 119.011C232.024 118.884 231.977 118.763 231.9 118.661" fill="#EB996E"/>
<path d="M226.2 97.7906C226.05 98.2606 224.36 98.1106 222.39 98.4306C220.42 98.7506 218.84 99.3606 218.56 98.9606C218.43 98.7706 218.69 98.3306 219.32 97.8506C220.154 97.2606 221.118 96.8799 222.13 96.7406C223.133 96.5768 224.161 96.6522 225.13 96.9606C225.88 97.2206 226.26 97.5706 226.2 97.7906Z" fill="#263238"/>
<path d="M241.37 96.6711C241.09 97.0711 239.91 96.6711 238.51 96.7611C237.11 96.8511 235.94 97.1311 235.65 96.7611C235.52 96.5711 235.65 96.1811 236.19 95.7611C236.865 95.2903 237.668 95.0389 238.49 95.0411C239.312 95.0148 240.12 95.2493 240.8 95.7111C241.31 96.0911 241.49 96.4811 241.37 96.6711Z" fill="#263238"/>
<path d="M204.731 129.071C208.121 129.621 208.351 127.891 210.731 125.461C211.933 124.227 212.831 122.729 213.351 121.086C213.872 119.444 214.002 117.702 213.731 116.001C213.231 113.001 211.491 110.001 212.411 107.141C213.641 103.331 218.861 101.961 220.111 98.1409C220.841 95.9309 220.001 93.4109 220.841 91.2409C221.681 89.0709 223.691 87.9509 225.721 87.1309C227.751 86.3109 229.931 85.7009 231.611 84.2909C233.291 82.8809 234.261 80.2909 233.071 78.4609C223.997 79.9194 215.128 82.4505 206.651 86.0009C204.651 86.8309 202.651 87.8109 201.521 89.6309C200.391 91.4509 200.521 93.9809 200.701 96.2309L203.551 129.111" fill="#263238"/>
<path d="M196.23 91.1007C196.132 90.9319 196.071 90.7446 196.05 90.5507C195.986 89.9819 196.105 89.4075 196.39 88.9107C196.845 88.1156 197.547 87.4906 198.39 87.1307C199.514 86.7242 200.729 86.6377 201.9 86.8807C203.19 87.0707 204.54 87.5307 206.01 87.7507C206.761 87.9273 207.542 87.941 208.299 87.791C209.056 87.6409 209.772 87.3305 210.4 86.8807C211.66 85.8807 212.24 84.1007 212.84 82.3707C213.441 80.5266 214.328 78.7887 215.47 77.2207C217.682 74.1639 220.848 71.9299 224.47 70.8707C226.067 70.4288 227.751 70.4047 229.36 70.8007C230.758 71.1732 232.02 71.9364 233 73.0007C233.82 73.8796 234.338 74.997 234.48 76.1907C234.596 77.0788 234.493 77.9817 234.18 78.8207C233.989 79.3543 233.694 79.844 233.31 80.2607C233.19 80.412 233.045 80.5407 232.88 80.6407C233.36 80.0844 233.733 79.4435 233.98 78.7507C234.243 77.9381 234.312 77.0748 234.18 76.2307C234.024 75.1011 233.513 74.0504 232.72 73.2307C231.762 72.2467 230.545 71.5534 229.21 71.2307C227.675 70.8775 226.075 70.9188 224.56 71.3507C221.053 72.3956 217.99 74.5722 215.85 77.5407C214.742 79.0644 213.878 80.7513 213.29 82.5407C212.68 84.2507 212.09 86.0807 210.67 87.2507C209.986 87.8006 209.161 88.1471 208.29 88.2507C207.491 88.3483 206.682 88.3247 205.89 88.1807C204.37 87.9307 203.04 87.4507 201.79 87.2407C200.686 86.9946 199.535 87.0498 198.46 87.4007C197.667 87.7134 196.997 88.2748 196.55 89.0007C196.257 89.4561 196.111 89.9899 196.13 90.5307C196.18 90.9107 196.26 91.1007 196.23 91.1007Z" fill="#455A64"/>
<path d="M194.001 104.37C194.641 104.03 214.481 100.96 223.741 99.7205C230.499 98.9205 237.297 98.5065 244.101 98.4805C244.755 100.363 245.185 102.317 245.381 104.3C245.781 107.97 245.131 108.8 245.131 108.8L193.781 110.11L194.001 104.37Z" fill="#D7AE6F"/>
<path d="M194.001 109.891C192.881 113.521 191.481 119.511 188.691 121.471C187.011 122.641 184.941 123.101 183.041 123.871C181.141 124.641 179.221 125.871 178.681 127.871C177.681 131.531 181.841 135.181 180.741 138.811C180.031 141.141 177.471 142.311 175.171 143.111C172.871 143.911 170.271 144.821 169.231 147.031C168.081 149.451 169.321 152.251 170.111 154.811C170.901 157.371 170.891 160.811 168.461 161.961C170.341 163.201 172.971 161.691 173.971 159.671C174.971 157.651 174.971 155.301 175.521 153.121C176.071 150.941 177.631 148.671 179.881 148.591C181.171 148.591 182.371 149.241 183.661 149.361C185.721 149.561 187.661 148.251 188.981 146.651C190.301 145.051 191.211 143.151 192.481 141.521C194.231 139.261 196.631 137.521 198.351 135.281C200.071 133.041 201.001 129.691 199.351 127.281" fill="#263238"/>
<path d="M213.471 109.61L206.571 109.89C205.351 113.64 208.011 117.76 207.041 121.58C206.625 122.903 205.997 124.149 205.181 125.27L195.941 139.46C197.741 139.814 199.595 139.784 201.381 139.37C202.273 139.155 203.111 138.76 203.846 138.209C204.58 137.659 205.194 136.966 205.651 136.17C206.491 134.57 206.471 132.65 207.151 130.98C208.631 127.3 213.151 125.42 214.291 121.64C215.431 117.86 213.001 113.51 213.471 109.61Z" fill="#263238"/>
<path d="M245.47 105.641C245.303 105.693 245.133 105.733 244.96 105.761L243.48 106.001C242.19 106.211 240.32 106.451 238 106.691C233.36 107.181 226.92 107.531 219.81 107.591C212.7 107.651 206.26 107.481 201.61 107.381L196.09 107.231L194.59 107.171C194.415 107.176 194.24 107.156 194.07 107.111C194.243 107.09 194.418 107.09 194.59 107.111H196.09C197.4 107.111 199.28 107.111 201.61 107.111C206.27 107.111 212.7 107.221 219.81 107.171C226.92 107.121 233.33 106.821 237.97 106.421C240.28 106.231 242.16 106.051 243.45 105.901L244.94 105.751C245.11 105.685 245.289 105.648 245.47 105.641Z" fill="#263238"/>
<path d="M245.401 102.81C245.228 102.825 245.054 102.825 244.881 102.81L243.381 102.87L237.861 103.02C233.211 103.15 226.781 103.41 219.701 103.92C212.621 104.43 206.211 105.12 201.601 105.73L196.131 106.47L194.651 106.67C194.475 106.697 194.297 106.697 194.121 106.67C194.285 106.603 194.456 106.556 194.631 106.53L196.101 106.24C197.381 105.99 199.241 105.68 201.551 105.33C206.161 104.64 212.551 103.88 219.661 103.33C226.771 102.78 233.201 102.62 237.861 102.58C240.191 102.58 242.071 102.58 243.381 102.58L244.881 102.63C245.063 102.661 245.239 102.721 245.401 102.81Z" fill="#263238"/>
<g opacity="0.4">
<path d="M197.871 106.261C197.871 106.261 213.531 105.321 221.461 105.261C229.391 105.201 237.621 105.631 245.051 102.881C245.051 102.921 214.161 102.221 197.871 106.261Z" fill="black"/>
</g>
<path d="M193 113.131C192.362 113.319 191.675 113.247 191.09 112.931C190.423 112.642 189.853 112.166 189.45 111.561C188.954 110.809 188.748 109.903 188.87 109.011C188.96 108.201 189.313 107.443 189.874 106.852C190.436 106.262 191.176 105.871 191.98 105.741C192.299 105.657 192.632 105.638 192.959 105.686C193.285 105.734 193.599 105.848 193.88 106.021C193.269 105.971 192.654 105.998 192.05 106.101C191.425 106.262 190.85 106.578 190.38 107.021C189.831 107.556 189.478 108.261 189.38 109.021C189.277 109.795 189.439 110.581 189.84 111.251C190.183 111.801 190.666 112.25 191.24 112.551C191.802 112.812 192.393 113.007 193 113.131Z" fill="#263238"/>
<path d="M193.89 110.381C193.629 109.448 193.544 108.475 193.64 107.511C193.551 106.542 193.642 105.566 193.91 104.631C194.156 105.57 194.241 106.544 194.16 107.511C194.235 108.476 194.143 109.447 193.89 110.381Z" fill="#263238"/>
<path d="M193.601 110.861C193.461 110.861 193.071 109.751 191.921 108.951C191.18 108.535 190.386 108.222 189.561 108.021C189.561 107.951 189.861 107.851 190.371 107.871C191.035 107.912 191.676 108.137 192.221 108.521C192.769 108.907 193.201 109.436 193.471 110.051C193.661 110.521 193.661 110.841 193.601 110.861Z" fill="#263238"/>
<path d="M232.49 120.461C231.343 120.432 230.208 120.234 229.12 119.871C227.981 119.68 226.895 119.255 225.93 118.621C227.056 118.767 228.168 119.015 229.25 119.361C230.38 119.558 231.473 119.929 232.49 120.461Z" fill="#263238"/>
<path d="M245.49 142.7L264.91 130.1L285.6 90.5104L291.66 60.9004H302C302 60.9004 304.14 90.2004 300.57 100.16C297 110.12 279.92 145.29 279.92 145.29L256.92 167.1L245.49 142.7Z" fill="#FFBE9D"/>
<path d="M234.56 141.67C235 141.67 244.9 142.26 244.9 142.26L255.63 138.4C255.63 138.4 258.53 177.35 258.53 176.47C258.53 175.59 194.47 194 194.47 194C194.47 194 173.53 234.13 171.79 238.78C170.05 243.43 146.49 277.16 146.49 277.16L135.73 271.64L161 222.5C161 222.5 179.47 171.91 181.32 166.61C185.85 153.61 199.32 149.99 199.32 149.99L210 144.41L234.56 141.67Z" fill="#FFBE9D"/>
<path d="M263.57 146.761C263.63 146.821 262.75 147.691 261.57 149.281C258.482 153.457 256.797 158.506 256.76 163.701C256.76 165.701 256.94 166.911 256.84 166.921C256.733 166.648 256.662 166.362 256.63 166.071C256.491 165.288 256.411 164.496 256.39 163.701C256.307 161.068 256.689 158.441 257.52 155.941C258.361 153.444 259.63 151.112 261.27 149.051C261.768 148.433 262.309 147.851 262.89 147.311C263.3 146.931 263.54 146.731 263.57 146.761Z" fill="#EB996E"/>
<path d="M195.93 176.851C195.78 176.851 195.31 175.311 194.45 173.491C193.59 171.671 192.68 170.311 192.8 170.221C193.74 171.053 194.467 172.099 194.92 173.271C195.529 174.37 195.875 175.595 195.93 176.851Z" fill="#EB996E"/>
<path d="M282.611 27.8105H276.881V84.7505H282.611V27.8105Z" fill="#455A64"/>
<path d="M299.001 54.671C297.001 52.601 288.911 41.001 288.911 41.001C288.911 41.001 273.811 42.381 273.811 45.851V48.201L275.331 51.111L274.911 53.611C274.911 53.611 274.911 56.791 275.051 57.351C275.191 57.911 276.851 58.871 276.851 58.871L277.411 56.521L280.221 55.411L283.001 59.251L291.001 62.001L292.001 63.401H300.871L302.001 61.201C302.001 61.201 301.111 56.751 299.001 54.671Z" fill="#FFBE9D"/>
<path d="M280.521 109.73C277.986 109.73 275.507 108.978 273.399 107.569C271.291 106.161 269.647 104.158 268.677 101.816C267.707 99.4733 267.453 96.8956 267.948 94.4088C268.442 91.922 269.663 89.6377 271.456 87.8447C273.249 86.0518 275.533 84.8308 278.02 84.3362C280.507 83.8415 283.085 84.0954 285.427 85.0657C287.77 86.036 289.772 87.6792 291.181 89.7874C292.589 91.8957 293.341 94.3743 293.341 96.9099C293.339 100.309 291.987 103.568 289.583 105.972C287.18 108.376 283.92 109.727 280.521 109.73ZM280.521 85.0998C278.183 85.0998 275.897 85.7933 273.953 87.0926C272.009 88.3918 270.494 90.2384 269.6 92.3988C268.706 94.5592 268.472 96.9364 268.929 99.2295C269.386 101.523 270.513 103.629 272.167 105.281C273.821 106.934 275.928 108.059 278.221 108.514C280.515 108.969 282.892 108.733 285.051 107.837C287.211 106.941 289.056 105.425 290.354 103.479C291.652 101.534 292.343 99.2481 292.341 96.9099C292.336 93.7775 291.089 90.7752 288.873 88.5612C286.657 86.3473 283.653 85.1025 280.521 85.0998Z" fill="#263238"/>
<path d="M319.331 98.251H250.311V101.761H319.331V98.251Z" fill="#455A64"/>
<path d="M283.331 98.251H250.311V101.761H283.331V98.251Z" fill="#263238"/>
<path d="M255.521 100.77C255.841 101.94 257.221 106.88 259.821 116.19C262.541 125.97 266.321 139.6 270.631 155.13L270.721 155.46H242.521L242.601 155.14C246.281 139.59 249.521 125.96 251.831 116.14L255.521 100.73C255.241 101.93 254.101 106.95 251.951 116.45C249.731 126.18 246.631 139.74 243.091 155.22L242.851 154.91H270.381L270.141 155.23C265.981 139.77 262.331 126.23 259.721 116.47C257.181 107 255.831 102 255.521 100.77Z" fill="#263238"/>
<path d="M239.57 154.051H275C275 154.051 273.26 167.171 257.17 167.051C241.23 167.001 239.57 154.051 239.57 154.051Z" fill="#455A64"/>
<path d="M261.061 165.141C261.061 165.141 260.791 165.251 260.281 165.351C259.56 165.495 258.826 165.572 258.091 165.581C256.993 165.613 255.895 165.54 254.811 165.361C253.488 165.132 252.191 164.77 250.941 164.281C249.694 163.771 248.504 163.131 247.391 162.371C246.487 161.752 245.646 161.046 244.881 160.261C244.359 159.741 243.881 159.179 243.451 158.581C243.161 158.151 243.011 157.901 243.041 157.881C243.071 157.861 243.791 158.751 245.131 160.001C245.921 160.732 246.767 161.401 247.661 162.001C248.761 162.709 249.923 163.318 251.131 163.821C252.352 164.298 253.614 164.663 254.901 164.911C255.954 165.107 257.02 165.217 258.091 165.241C259.921 165.251 261.051 165.051 261.061 165.141Z" fill="white"/>
<path d="M308.791 100.77C309.111 101.94 310.491 106.88 313.091 116.19C315.811 125.97 319.591 139.6 323.901 155.13L323.991 155.46H295.791L295.871 155.14C299.561 139.59 302.791 125.96 305.101 116.14L308.791 100.73C308.521 101.93 307.381 106.95 305.221 116.45C303.001 126.18 299.901 139.74 296.361 155.22L296.121 154.91H323.651L323.411 155.23C319.251 139.77 315.611 126.23 312.991 116.47C310.451 107 309.101 102 308.791 100.77Z" fill="#263238"/>
<path d="M292.84 154.051H328.26C328.26 154.051 326.52 167.171 310.43 167.051C294.51 167.001 292.84 154.051 292.84 154.051Z" fill="#455A64"/>
<path d="M314.34 165.14C314.091 165.255 313.824 165.326 313.55 165.35C312.829 165.494 312.096 165.571 311.36 165.58C310.263 165.612 309.164 165.539 308.08 165.36C306.757 165.131 305.461 164.769 304.21 164.28C302.963 163.77 301.773 163.13 300.66 162.37C299.758 161.749 298.918 161.042 298.15 160.26C297.628 159.743 297.153 159.181 296.73 158.58C296.43 158.15 296.28 157.9 296.31 157.88C296.34 157.86 297.06 158.75 298.41 160C299.195 160.733 300.038 161.402 300.93 162C302.031 162.708 303.192 163.317 304.4 163.82C305.621 164.297 306.883 164.662 308.17 164.91C309.223 165.106 310.29 165.216 311.36 165.24C313.19 165.25 314.32 165.05 314.34 165.14Z" fill="white"/>
<path d="M125.14 269.121C125.14 269.121 120.37 273.221 123.2 277.391L126.59 279.111L138.47 308.521L146.64 304.621L132.21 276.271C132.21 276.271 133.57 272.141 132.21 270.631C130.85 269.121 129 268.001 125.14 269.121Z" fill="#263238"/>
<path d="M132.202 277.161C132.202 277.161 124.932 286.791 124.622 288.001C124.312 289.211 125.382 292.701 125.992 293.611C126.602 294.521 126.242 300.431 128.392 301.341C130.542 302.251 132.202 303.001 133.392 302.551C134.188 302.25 134.963 301.896 135.712 301.491C135.944 300.436 136.479 299.473 137.252 298.72C138.025 297.966 139.002 297.456 140.062 297.251C140.913 297.096 141.791 297.26 142.529 297.712C143.267 298.164 143.812 298.872 144.062 299.701L146.392 299.751C146.392 299.751 145.922 290.481 145.472 289.921C145.022 289.361 142.292 284.971 142.292 284.971L150.292 271.641L137.772 267.641L132.202 277.161Z" fill="#FFBE9D"/>
<path d="M201 471.771L136.4 308.261L151 305.121L209.44 468.281C209.44 468.281 211.96 478.011 209.08 478.721C204 480.001 201 471.771 201 471.771Z" fill="#E0E0E0"/>
<path d="M201 471.771L201.15 472.111C201.25 472.331 201.4 472.671 201.62 473.111C202.247 474.409 203.051 475.614 204.01 476.691C204.713 477.489 205.593 478.112 206.58 478.511C206.862 478.597 207.149 478.667 207.44 478.721C208.067 478.813 208.707 478.758 209.31 478.561C209.6 478.409 209.83 478.162 209.96 477.861C210.242 477.197 210.385 476.482 210.38 475.761C210.4 474.979 210.367 474.198 210.28 473.421C210.091 471.701 209.78 469.997 209.35 468.321C198.67 438.601 176.83 377.761 151.66 307.671C151.36 306.851 151.07 306.031 150.78 305.211L151.08 305.381L136.45 308.521L136.63 308.171L182.46 424.391C188.23 439.091 192.88 450.931 196.08 459.101L199.74 468.491C200.15 469.561 200.47 470.371 200.68 470.941C200.89 471.511 200.99 471.771 200.99 471.771C200.99 471.771 200.86 471.501 200.64 470.951C200.42 470.401 200.08 469.591 199.64 468.531L195.89 459.171L182.12 424.511L136.12 308.361L136.01 308.071L136.31 308.011L150.94 304.871L151.16 304.821L151.24 305.041L152.12 307.501C177.12 377.631 198.92 438.501 209.54 468.231C209.957 469.922 210.258 471.639 210.44 473.371C210.524 474.158 210.554 474.95 210.53 475.741C210.526 476.487 210.373 477.225 210.08 477.911C209.93 478.248 209.669 478.524 209.34 478.691C209.016 478.799 208.68 478.866 208.34 478.891C208.008 478.929 207.672 478.929 207.34 478.891C205.941 478.674 204.684 477.916 203.84 476.781C202.881 475.692 202.085 474.469 201.48 473.151C201.287 472.703 201.127 472.242 201 471.771Z" fill="#263238"/>
<path d="M205.001 470.421C204.861 470.471 191.271 434.841 174.631 390.851C157.991 346.861 144.631 311.131 144.751 311.081C144.871 311.031 158.481 346.651 175.121 390.661C191.761 434.671 205.171 470.371 205.001 470.421Z" fill="#263238"/>
<path d="M136.671 302.18L125.501 312L120.891 314.28L122.661 316.97L165.661 301.92L164.131 298.55L158.091 299.99L143.701 299.69L136.671 302.18Z" fill="#263238"/>
<path d="M286.751 226.93C285.061 223.93 282.531 221.35 281.191 218.15C277.931 210.4 282.301 200.84 278.521 193.33C276.881 190.07 273.921 187.72 271.291 185.19C262.691 176.94 257.111 166.28 252.441 155.19C251.538 165.91 254.52 176.596 260.841 185.3C262.931 188.14 265.421 190.86 266.281 194.3C268.081 201.49 262.051 208.86 263.621 216.11C264.931 222.21 271.341 226.56 271.621 232.79C271.841 237.79 268.011 241.94 264.731 245.74C255.909 255.928 249.321 267.851 245.391 280.74C252.011 275.63 259.571 271.9 266.701 267.53C273.831 263.16 280.701 257.97 285.091 250.83C289.481 243.69 290.811 234.24 286.751 226.93Z" fill="#D7AE6F"/>
<path d="M247.771 143.471C249.271 147.371 250.771 151.311 252.441 155.201C252.541 154.091 252.661 152.991 252.841 151.891L247.771 143.471Z" fill="#D7AE6F"/>
<g opacity="0.7">
<path d="M286.751 226.93C285.061 223.93 282.531 221.35 281.191 218.15C277.931 210.4 282.301 200.84 278.521 193.33C276.881 190.07 273.921 187.72 271.291 185.19C262.691 176.94 257.111 166.28 252.441 155.19C251.538 165.91 254.52 176.596 260.841 185.3C262.931 188.14 265.421 190.86 266.281 194.3C268.081 201.49 262.051 208.86 263.621 216.11C264.931 222.21 271.341 226.56 271.621 232.79C271.841 237.79 268.011 241.94 264.731 245.74C255.909 255.928 249.321 267.851 245.391 280.74C252.011 275.63 259.571 271.9 266.701 267.53C273.831 263.16 280.701 257.97 285.091 250.83C289.481 243.69 290.811 234.24 286.751 226.93Z" fill="white"/>
<path d="M247.771 143.471C249.271 147.371 250.771 151.311 252.441 155.201C252.541 154.091 252.661 152.991 252.841 151.891L247.771 143.471Z" fill="white"/>
</g>
<path d="M263.921 288.67C268.611 304.81 274.571 322.58 289.311 330.67C294.311 333.39 300.141 334.91 303.941 339.11C310.351 346.19 308.761 358.5 316.081 364.65C323.401 370.8 334.691 366.96 343.761 369.96C349.271 371.79 353.611 376.04 358.811 378.62C364.011 381.2 371.371 381.49 374.611 376.68C375.341 382.68 370.091 388.74 364.031 388.85L373.911 390.42C370.831 397.3 361.041 397.96 354.051 395.16C347.061 392.36 340.941 387.23 333.521 385.9C325.271 384.42 316.301 387.84 308.601 384.53C297.981 379.96 296.071 365.94 289.411 356.53C284.101 349 275.671 344.42 268.411 338.67C261.151 332.92 254.651 324.59 255.781 315.44" fill="#D7AE6F"/>
<g opacity="0.7">
<path d="M263.921 288.67C268.611 304.81 274.571 322.58 289.311 330.67C294.311 333.39 300.141 334.91 303.941 339.11C310.351 346.19 308.761 358.5 316.081 364.65C323.401 370.8 334.691 366.96 343.761 369.96C349.271 371.79 353.611 376.04 358.811 378.62C364.011 381.2 371.371 381.49 374.611 376.68C375.341 382.68 370.091 388.74 364.031 388.85L373.911 390.42C370.831 397.3 361.041 397.96 354.051 395.16C347.061 392.36 340.941 387.23 333.521 385.9C325.271 384.42 316.301 387.84 308.601 384.53C297.981 379.96 296.071 365.94 289.411 356.53C284.101 349 275.671 344.42 268.411 338.67C261.151 332.92 254.651 324.59 255.781 315.44" fill="white"/>
</g>
<path d="M271.001 290.061C279.941 305.701 289.001 321.601 293.291 339.061C295.361 347.481 296.441 356.511 301.541 363.521C306.641 370.531 315.721 375.141 318.391 383.521C320.511 390.131 318.021 397.331 318.721 404.231C319.421 411.131 323.151 417.231 328.031 421.951C332.911 426.671 338.851 430.211 344.841 433.441C348.551 435.441 352.511 437.561 354.601 441.221C356.691 444.881 356.521 449.301 358.021 453.221C360.671 460.111 368.251 464.121 375.611 464.621C382.971 465.121 390.211 462.731 397.111 460.111C397.111 460.111 393.851 473.951 377.431 473.951C361.011 473.951 333.271 471.001 333.271 471.001L289.651 432.651L274.541 357.371L262.541 291.851L271.001 290.061Z" fill="#D7AE6F"/>
<g opacity="0.4">
<path d="M268.451 283.74C277.391 299.38 288.991 321.6 293.291 339.1C295.361 347.52 296.441 356.55 301.541 363.56C306.641 370.57 315.721 375.18 318.391 383.56C320.511 390.17 318.021 397.37 318.721 404.27C319.421 411.17 323.151 417.27 328.031 421.99C332.911 426.71 338.851 430.25 344.841 433.48C348.551 435.48 352.511 437.6 354.601 441.26C356.691 444.92 356.521 449.34 358.021 453.26C360.671 460.15 368.251 464.16 375.611 464.66C382.971 465.16 390.211 462.77 397.111 460.15C397.111 460.15 393.911 474.03 377.881 473.99C361.571 473.99 333.271 471.04 333.271 471.04L289.651 432.69L274.541 357.41L262.541 291.89L268.451 283.74Z" fill="black"/>
</g>
<path d="M329.22 460.73L351.7 469.63C352.096 469.81 352.431 470.1 352.667 470.465C352.903 470.831 353.029 471.256 353.03 471.69C353.031 471.999 352.968 472.303 352.846 472.586C352.725 472.869 352.547 473.125 352.323 473.336C352.099 473.548 351.834 473.712 351.545 473.817C351.255 473.923 350.948 473.968 350.64 473.95L324 472.5L329.22 460.73Z" fill="#FFBE9D"/>
<path d="M264.5 272.211C265.13 274.211 332.01 468.871 332.01 468.871H311.12L254 333.391L262.58 274.631" fill="#FFBE9D"/>
<path d="M315.192 437.071C315.522 411.781 291.662 393.341 285.662 379.691C279.662 366.041 291.992 359.391 292.992 346.741C293.992 334.091 272.002 302.001 272.002 302.001C266.692 294.661 268.392 288.061 268.392 288.061C268.952 287.391 269.532 286.721 270.112 286.061C274.562 280.971 269.882 276.461 269.272 273.111C268.662 269.761 265.002 225.191 257.062 218.471L201.822 219.691C201.822 219.691 185.032 243.811 182.892 264.561C180.752 285.311 185.212 298.271 185.212 298.271C185.212 298.271 226.002 403.431 226.872 404.651C227.742 405.871 241.192 458.461 268.422 474.271L342.202 474.081C338.212 471.871 314.862 462.371 315.192 437.071Z" fill="#D7AE6F"/>
<path d="M226.34 166.63C226.34 166.63 198.79 171.23 195.94 176.47C194.7 178.75 191.8 195.26 191.8 195.26C191.8 195.26 187.2 208.02 191.8 212.8C194.674 215.74 198.104 218.079 201.89 219.68L257.13 218.46C257.13 218.46 262.29 219.06 262.56 206.63C262.83 194.2 261.56 183.63 257.56 168.96L247.71 141.24L241 142L226.34 166.63Z" fill="#D7AE6F"/>
<path d="M257.591 218.271C257.591 218.411 245.031 218.901 229.531 219.361C214.031 219.821 201.461 220.081 201.461 219.941C201.461 219.801 214.021 219.301 229.521 218.841C245.021 218.381 257.591 218.131 257.591 218.271Z" fill="#263238"/>
<path d="M223.871 261.331C224.076 260.794 224.32 260.273 224.601 259.771C224.861 259.271 225.161 258.671 225.491 257.951C225.821 257.231 226.221 256.431 226.591 255.511C227.391 253.701 228.241 251.511 229.071 249.011C230.841 243.609 231.969 238.017 232.431 232.351C232.631 229.741 232.701 227.351 232.671 225.351C232.671 224.351 232.671 223.471 232.591 222.681C232.511 221.891 232.521 221.211 232.481 220.681C232.415 220.107 232.392 219.529 232.411 218.951C232.547 219.513 232.638 220.085 232.681 220.661C232.761 221.211 232.831 221.891 232.881 222.661C232.931 223.431 233.021 224.351 233.031 225.341C233.118 227.675 233.074 230.012 232.901 232.341C232.686 235.195 232.302 238.033 231.751 240.841C231.167 243.642 230.422 246.406 229.521 249.121C228.775 251.333 227.91 253.503 226.931 255.621C226.531 256.541 226.101 257.331 225.751 258.041C225.401 258.751 225.061 259.341 224.751 259.821C224.499 260.347 224.205 260.852 223.871 261.331Z" fill="#263238"/>
<path d="M243.88 232.241C243.73 232.241 244.09 229.24 244.16 225.51C244.23 221.78 243.98 218.791 244.16 218.771C244.376 219.416 244.494 220.09 244.51 220.771C244.667 222.362 244.73 223.961 244.7 225.561C244.67 227.157 244.543 228.75 244.32 230.331C244.27 230.986 244.122 231.63 243.88 232.241Z" fill="#263238"/>
<path d="M250.18 370.001C250.092 369.919 250.008 369.832 249.93 369.741L249.22 368.941L246.53 365.851C244.21 363.151 240.91 359.201 236.93 354.241C228.93 344.331 218.37 330.241 207.69 314.071C202.518 306.539 197.919 298.63 193.93 290.411C190.7 283.666 188.479 276.482 187.34 269.091C186.577 264.106 186.53 259.039 187.2 254.041C187.434 252.212 187.809 250.403 188.32 248.631C188.331 248.751 188.331 248.871 188.32 248.991C188.27 249.251 188.19 249.591 188.11 249.991C188.03 250.391 187.9 250.991 187.79 251.691C187.68 252.391 187.55 253.141 187.45 254.021C186.861 259.011 186.962 264.058 187.75 269.021C188.941 276.364 191.184 283.497 194.41 290.201C198.417 298.382 203.016 306.259 208.17 313.771C218.84 329.971 229.37 344.041 237.27 354.001C241.21 359.001 244.47 363.001 246.74 365.711C247.85 367.061 248.74 368.121 249.35 368.861L250.02 369.691C250.083 369.789 250.137 369.892 250.18 370.001Z" fill="#263238"/>
<path d="M254 264.65C253.906 264.881 253.788 265.102 253.65 265.31C253.37 265.77 253 266.37 252.55 267.13C251.55 268.7 250.21 270.99 248.6 273.87C244.32 281.321 240.92 289.244 238.47 297.48C236.045 305.731 235.207 314.367 236 322.93C236.266 325.519 236.717 328.086 237.35 330.61C237.55 331.51 237.78 332.19 237.89 332.66C237.967 332.899 238.024 333.143 238.06 333.39C237.949 333.166 237.859 332.931 237.79 332.69C237.64 332.23 237.38 331.56 237.15 330.69C236.443 328.171 235.935 325.6 235.63 323C234.731 314.374 235.536 305.656 238 297.34C240.452 289.063 243.914 281.12 248.31 273.69C249.97 270.83 251.39 268.56 252.41 267.02C252.91 266.24 253.31 265.65 253.59 265.25C253.714 265.042 253.851 264.841 254 264.65Z" fill="#263238"/>
<path d="M315.191 433.64C315.14 433.507 315.099 433.37 315.071 433.23C315.001 432.94 314.901 432.54 314.771 432.04C314.501 430.98 314.161 429.42 313.541 427.45C311.875 421.876 309.647 416.485 306.891 411.36C302.797 403.759 297.713 396.734 291.771 390.47C288.274 386.771 284.496 383.347 280.471 380.23C276.301 376.96 271.791 373.82 267.191 370.58C262.591 367.34 258.121 364.1 254.051 360.68C250.125 357.38 246.433 353.812 243.001 350C237.232 343.53 232.129 336.494 227.771 329C224.832 323.96 222.19 318.751 219.861 313.4C219.031 311.52 218.441 310.03 218.041 309.01L217.601 307.86C217.541 307.732 217.494 307.598 217.461 307.46C217.532 307.583 217.595 307.71 217.651 307.84L218.141 308.97C218.571 309.97 219.141 311.45 220.051 313.32C222.435 318.625 225.105 323.796 228.051 328.81C232.435 336.244 237.551 343.222 243.321 349.64C246.742 353.423 250.417 356.968 254.321 360.25C258.381 363.65 262.841 366.87 267.441 370.11C272.041 373.35 276.551 376.5 280.741 379.78C284.777 382.924 288.565 386.375 292.071 390.1C298.02 396.412 303.099 403.492 307.171 411.15C309.909 416.308 312.091 421.742 313.681 427.36C314.281 429.36 314.591 430.91 314.821 431.97C314.931 432.49 315.011 432.89 315.071 433.18C315.129 433.328 315.169 433.483 315.191 433.64Z" fill="#263238"/>
<g opacity="0.4">
<path d="M191.521 314.5C201.661 333.84 213.771 353.17 228.601 369.19C243.151 384.92 241.331 396.69 246.161 421.55C248.961 435.95 261.161 451.07 281.161 455.11C297.581 458.44 304.551 467.34 305.981 472.93L306.711 474.08L268.001 474C268.001 474 261.061 470.271 253.251 460.451C247.391 452.944 242.499 444.729 238.691 436C231.665 420.281 225.473 404.202 220.141 387.83L191.521 314.5Z" fill="black"/>
</g>
<path d="M190.131 201.891C190.336 201.72 190.557 201.57 190.791 201.441L192.731 200.241L194.141 199.391L195.771 198.311C196.931 197.521 198.291 196.671 199.701 195.601L201.931 193.961C202.711 193.381 203.471 192.731 204.291 192.091C205.931 190.821 207.581 189.331 209.291 187.781C213.036 184.366 216.56 180.715 219.841 176.851C223.089 172.966 226.095 168.885 228.841 164.631C230.031 162.631 231.261 160.771 232.211 158.921L233.661 156.281L234.871 153.791C235.681 152.211 236.291 150.791 236.871 149.441C237.141 148.801 237.401 148.201 237.641 147.651C237.881 147.101 238.051 146.581 238.221 146.111C238.561 145.221 238.841 144.511 239.041 143.981C239.12 143.726 239.227 143.482 239.361 143.251C239.311 143.511 239.237 143.765 239.141 144.011C238.961 144.551 238.721 145.271 238.411 146.181C238.251 146.651 238.071 147.181 237.881 147.741C237.691 148.301 237.401 148.911 237.141 149.561C236.611 150.861 236.011 152.351 235.231 153.941C234.851 154.754 234.451 155.594 234.031 156.461C233.581 157.321 233.101 158.211 232.611 159.131C231.671 160.991 230.451 162.861 229.271 164.891C226.532 169.175 223.526 173.284 220.271 177.191C216.972 181.067 213.425 184.725 209.651 188.141C207.881 189.681 206.211 191.141 204.551 192.421C203.721 193.061 202.951 193.711 202.171 194.281L199.901 195.901C198.481 196.961 197.101 197.791 195.901 198.551L194.241 199.551L192.811 200.371L190.811 201.481C190.594 201.633 190.367 201.77 190.131 201.891Z" fill="#263238"/>
<path d="M242.1 141.23C242.089 141.49 242.056 141.747 242 142C241.91 142.5 241.79 143.24 241.59 144.18C241.21 146.07 240.59 148.8 239.69 152.13C237.355 160.832 233.896 169.193 229.4 177C224.876 184.81 219.033 191.777 212.13 197.59C210.041 199.341 207.836 200.948 205.53 202.4C204.72 202.93 204.05 203.28 203.62 203.54C203.406 203.689 203.174 203.81 202.93 203.9C203.128 203.734 203.338 203.584 203.56 203.45C203.98 203.17 204.63 202.79 205.42 202.23C207.669 200.716 209.829 199.073 211.89 197.31C218.7 191.452 224.483 184.496 229 176.73C233.448 168.943 236.921 160.637 239.34 152C240.29 148.69 240.96 146 241.34 144.11C241.546 143.21 241.716 142.49 241.85 141.95C241.915 141.705 241.999 141.464 242.1 141.23Z" fill="#263238"/>
<path d="M257.281 178.58C257.286 179.001 257.235 179.422 257.131 179.83C256.923 180.958 256.588 182.058 256.131 183.11C255.445 184.68 254.513 186.132 253.371 187.41C251.972 188.996 250.236 190.25 248.291 191.08C246.332 191.891 244.2 192.197 242.091 191.97C240.379 191.793 238.716 191.29 237.191 190.49C236.169 189.953 235.223 189.281 234.381 188.49C234.058 188.219 233.772 187.906 233.531 187.56C234.712 188.557 235.996 189.426 237.361 190.15C238.86 190.875 240.475 191.329 242.131 191.49C244.175 191.676 246.233 191.368 248.131 190.59C250.005 189.789 251.684 188.591 253.051 187.08C254.184 185.848 255.125 184.453 255.841 182.94C256.437 181.528 256.919 180.07 257.281 178.58Z" fill="#263238"/>
<path d="M245.4 143.451C245.413 143.531 245.413 143.612 245.4 143.691L245.35 144.371C245.29 145.021 245.21 145.901 245.1 147.011C244.85 149.311 244.39 152.611 243.61 156.661C240.323 173.049 233.766 188.605 224.33 202.401L222 205.641C221.25 206.691 220.46 207.641 219.72 208.641C218.379 210.469 216.843 212.146 215.14 213.641C212.694 215.811 209.92 217.58 206.92 218.881C206.102 219.228 205.263 219.525 204.41 219.771L203.74 219.941H203.51C203.578 219.899 203.652 219.869 203.73 219.851L204.38 219.631C204.95 219.431 205.79 219.121 206.84 218.631C209.781 217.274 212.499 215.476 214.9 213.301C216.568 211.8 218.07 210.124 219.38 208.301C220.1 207.301 220.89 206.361 221.63 205.301L223.92 202.061C233.262 188.283 239.825 172.814 243.24 156.521C244.06 152.521 244.58 149.201 244.89 146.921C245.03 145.811 245.15 144.921 245.23 144.291C245.23 144.021 245.31 143.791 245.34 143.611C245.353 143.555 245.373 143.502 245.4 143.451Z" fill="#263238"/>
<g opacity="0.3">
<path d="M209 217.74C214.365 216.336 219.381 213.834 223.729 210.391C228.077 206.948 231.663 202.641 234.26 197.74C239.47 187.93 240.88 177.21 241.14 166.11C239.14 175.34 235.21 183.86 230.23 192.41C224.43 202.32 218 212.87 209 217.74Z" fill="black"/>
</g>
<g opacity="0.3">
<path d="M214.33 194.861L236.45 161.201C235.11 168.021 231.8 174.341 227.7 179.961C223.458 185.482 218.819 190.685 213.82 195.531" fill="black"/>
</g>
<path d="M254.201 340.331C254.104 340.168 254.03 339.993 253.981 339.811C253.851 339.461 253.651 338.961 253.441 338.281C252.846 336.383 252.405 334.44 252.121 332.471C251.185 325.928 251.872 319.256 254.121 313.041C255.435 309.66 257.112 306.431 259.121 303.411C260.901 300.611 262.571 298.131 263.821 295.961C264.845 294.268 265.744 292.504 266.511 290.681C267.061 289.401 267.301 288.681 267.351 288.681C267.332 288.869 267.288 289.054 267.221 289.231C267.111 289.591 266.961 290.111 266.701 290.771C265.993 292.63 265.137 294.429 264.141 296.151C262.921 298.361 261.281 300.871 259.521 303.681C257.559 306.684 255.917 309.885 254.621 313.231C252.396 319.371 251.656 325.95 252.461 332.431C252.713 334.39 253.094 336.331 253.601 338.241C253.781 338.871 253.931 339.381 254.041 339.791C254.116 339.964 254.17 340.145 254.201 340.331Z" fill="#263238"/>
<path d="M264.5 300.741C264.57 300.801 263.5 302.071 262.03 304.281C260.102 307.166 258.483 310.246 257.2 313.471C255.942 316.7 255.024 320.051 254.46 323.471C254.03 326.111 253.94 327.761 253.85 327.751C253.803 327.366 253.803 326.976 253.85 326.591C253.85 325.841 253.95 324.751 254.11 323.421C254.578 319.944 255.461 316.537 256.74 313.271C258.026 310.009 259.705 306.916 261.74 304.061C262.36 303.194 263.028 302.363 263.74 301.571C263.961 301.266 264.216 300.987 264.5 300.741Z" fill="#263238"/>
<path d="M205.641 244.251C205.79 243.911 205.982 243.592 206.211 243.301L207.891 240.821C209.301 238.721 211.171 235.821 213.061 232.401C214.951 228.981 216.461 225.891 217.511 223.591C217.991 222.511 218.401 221.591 218.741 220.851C218.869 220.499 219.036 220.164 219.241 219.851C219.184 220.216 219.08 220.572 218.931 220.911C218.701 221.581 218.331 222.541 217.851 223.711C215.298 229.825 212.057 235.629 208.191 241.011C207.451 242.011 206.831 242.851 206.381 243.401C206.168 243.712 205.919 243.997 205.641 244.251Z" fill="#263238"/>
<g opacity="0.3">
<path d="M222.5 219.101L220.34 219.701C216.614 226.941 212.89 234.187 209.17 241.441C208.758 242.107 208.521 242.868 208.48 243.651C208.553 244.312 208.855 244.927 209.334 245.389C209.812 245.851 210.437 246.131 211.1 246.181C211.764 246.206 212.425 246.087 213.038 245.831C213.651 245.576 214.201 245.19 214.65 244.701C215.537 243.71 216.263 242.586 216.8 241.371C220.22 234.421 222.77 226.841 222.5 219.101Z" fill="black"/>
</g>
<g opacity="0.3">
<path d="M220.24 312.771C227.742 329.298 240.023 343.199 255.5 352.681C260.77 355.901 266.41 358.591 271.16 362.541C275.91 366.491 279.79 372.041 279.95 378.221C252.56 365.858 231.184 343.148 220.5 315.061" fill="black"/>
</g>
<path d="M217.74 181.601C217.496 181.987 217.214 182.349 216.9 182.681C216.34 183.361 215.48 184.301 214.39 185.441C211.527 188.399 208.449 191.139 205.18 193.641C201.912 196.143 198.459 198.393 194.85 200.371C193.46 201.131 192.33 201.711 191.52 202.071C191.116 202.284 190.695 202.462 190.26 202.601C190.626 202.327 191.018 202.089 191.43 201.891C192.2 201.471 193.31 200.891 194.67 200.051C198.204 197.985 201.61 195.707 204.87 193.231C208.116 190.755 211.209 188.083 214.13 185.231C215.25 184.131 216.13 183.231 216.75 182.591C217.044 182.226 217.376 181.894 217.74 181.601Z" fill="white"/>
<path d="M216.821 195.44C214.942 197.486 212.938 199.413 210.821 201.21C208.816 203.132 206.695 204.928 204.471 206.59C206.35 204.545 208.353 202.618 210.471 200.82C212.471 198.894 214.592 197.097 216.821 195.44Z" fill="white"/>
<path d="M196 178.551C195.715 180.961 195.254 183.348 194.62 185.691C194.161 188.066 193.533 190.405 192.74 192.691C193.031 190.281 193.492 187.895 194.12 185.551C194.581 183.176 195.209 180.837 196 178.551Z" fill="white"/>
<path d="M189.841 260.52C189.737 260.036 189.674 259.545 189.651 259.05C189.561 258.11 189.501 256.73 189.511 255.05C189.525 253.044 189.659 251.041 189.911 249.05C190.236 246.629 190.713 244.231 191.341 241.87C191.999 239.518 192.808 237.21 193.761 234.96C194.551 233.13 195.446 231.347 196.441 229.62C197.103 228.452 197.827 227.321 198.611 226.23C198.872 225.815 199.174 225.427 199.511 225.07C199.308 225.516 199.064 225.941 198.781 226.34C198.271 227.14 197.571 228.34 196.781 229.8C195.835 231.538 194.981 233.324 194.221 235.15C192.348 239.631 191.067 244.338 190.411 249.15C190.134 251.11 189.964 253.083 189.901 255.06C189.841 256.75 189.841 258.12 189.901 259.06C189.927 259.548 189.907 260.037 189.841 260.52Z" fill="white"/>
<path d="M201.811 296.92C201.529 296.581 201.284 296.212 201.081 295.82C200.641 295.1 200.081 294.03 199.341 292.69C197.514 289.186 195.92 285.565 194.571 281.85C193.229 278.136 192.13 274.338 191.281 270.48C190.961 269 190.741 267.8 190.611 266.96C190.519 266.529 190.469 266.091 190.461 265.65C190.625 266.059 190.742 266.485 190.811 266.92C191.001 267.74 191.281 268.92 191.641 270.4C192.371 273.33 193.501 277.4 195.061 281.68C196.411 285.37 197.949 288.989 199.671 292.52C200.331 293.88 200.881 294.97 201.261 295.72C201.482 296.102 201.666 296.504 201.811 296.92Z" fill="white"/>
<path d="M190.36 307.171C190.111 306.86 189.893 306.525 189.71 306.171C189.31 305.521 188.79 304.541 188.2 303.311C185.148 296.858 183.567 289.808 183.57 282.671C183.57 281.301 183.63 280.201 183.71 279.441C183.723 279.046 183.776 278.654 183.87 278.271C183.96 278.271 183.87 279.951 183.94 282.661C184.14 289.726 185.702 296.687 188.54 303.161C189.63 305.651 190.44 307.121 190.36 307.171Z" fill="white"/>
<path d="M226.421 346.091C224.351 343.59 222.421 340.976 220.641 338.261C218.712 335.644 216.923 332.927 215.281 330.121C217.349 332.63 219.281 335.247 221.071 337.961C222.997 340.574 224.783 343.288 226.421 346.091Z" fill="white"/>
<path d="M239.911 305.59C239.868 305.289 239.868 304.982 239.911 304.68C239.915 303.852 239.962 303.024 240.051 302.2C240.593 296.739 242.214 291.44 244.821 286.61C245.321 285.69 245.761 284.96 246.091 284.47C246.421 283.98 246.611 283.72 246.641 283.74C246.671 283.76 246.061 284.91 245.151 286.74C243.954 289.171 242.951 291.692 242.151 294.28C241.362 296.874 240.777 299.526 240.401 302.21C240.299 303.345 240.135 304.473 239.911 305.59Z" fill="white"/>
<path d="M233.29 297.651C232.86 297.493 232.448 297.292 232.06 297.051C230.974 296.462 229.919 295.818 228.9 295.121C227.384 294.092 225.928 292.977 224.54 291.781C222.847 290.298 221.247 288.711 219.75 287.031C218.277 285.332 216.918 283.538 215.68 281.661C214.673 280.127 213.758 278.534 212.94 276.891C212.25 275.481 211.74 274.321 211.44 273.501C211.256 273.086 211.112 272.654 211.01 272.211C211.257 272.592 211.465 272.998 211.63 273.421C211.98 274.221 212.54 275.351 213.27 276.721C215.174 280.306 217.482 283.661 220.15 286.721C221.622 288.391 223.192 289.974 224.85 291.461C226.4 292.811 227.85 293.961 229.11 294.861C230.37 295.761 231.43 296.461 232.17 296.921C232.564 297.13 232.939 297.374 233.29 297.651Z" fill="#263238"/>
<path d="M339.241 474.08C339.125 474.098 339.007 474.098 338.891 474.08H337.891C336.582 474.043 335.277 473.933 333.981 473.75C331.929 473.445 329.917 472.915 327.981 472.17C325.408 471.172 323.009 469.775 320.871 468.03C316.081 464.16 311.871 458.08 308.161 450.91C306.384 447.078 304.9 443.117 303.721 439.06C302.421 434.87 301.241 430.49 299.721 426.12C298.293 421.845 296.32 417.771 293.851 414C291.465 410.551 288.517 407.525 285.131 405.05C281.941 402.63 278.681 400.61 275.671 398.69C272.841 396.942 270.101 395.053 267.461 393.03C263.557 390.161 260.297 386.506 257.891 382.3C257.461 381.56 257.191 380.85 256.891 380.3C256.591 379.75 256.451 379.17 256.321 378.74C256.191 378.31 256.111 378 256.041 377.74C256.008 377.629 255.981 377.515 255.961 377.4C256.019 377.504 256.063 377.615 256.091 377.73L256.421 378.73C256.561 379.16 256.791 379.66 257.031 380.27C257.271 380.88 257.611 381.55 258.031 382.27C260.488 386.395 263.757 389.978 267.641 392.8C270.285 394.798 273.029 396.66 275.861 398.38C278.861 400.29 282.151 402.29 285.381 404.73C288.816 407.212 291.808 410.254 294.231 413.73C296.72 417.538 298.703 421.652 300.131 425.97C301.671 430.37 302.851 434.75 304.131 438.97C305.303 443.003 306.77 446.943 308.521 450.76C312.131 457.89 316.341 463.96 321.031 467.76C323.133 469.503 325.495 470.907 328.031 471.92C329.948 472.675 331.939 473.228 333.971 473.57C335.651 473.81 336.971 473.97 337.861 474L338.861 474.07L339.241 474.08Z" fill="#263238"/>
</svg>
