<svg xmlns="http://www.w3.org/2000/svg" width="42" height="42" viewBox="0 0 42 42" fill="none">
  <mask id="mask0_1011_2974" style="mask-type:alpha" maskUnits="userSpaceOnUse" x="0" y="0" width="42" height="42">
    <rect width="42" height="42" fill="#D9D9D9"/>
  </mask>
  <g mask="url(#mask0_1011_2974)">
    <path d="M9.28856 35.875C8.4159 35.875 7.6704 35.566 7.05206 34.9479C6.43402 34.3296 6.125 33.5841 6.125 32.7114V9.28856C6.125 8.4159 6.43402 7.6704 7.05206 7.05206C7.6704 6.43402 8.4159 6.125 9.28856 6.125H17.0761C17.186 5.15346 17.6101 4.32731 18.3483 3.64656C19.0862 2.96552 19.9701 2.625 21 2.625C22.041 2.625 22.9305 2.96552 23.6688 3.64656C24.407 4.32731 24.8254 5.15346 24.9239 6.125H32.7114C33.5841 6.125 34.3296 6.43402 34.9479 7.05206C35.566 7.6704 35.875 8.4159 35.875 9.28856V20.3573C35.4442 20.1733 35.0128 20.0174 34.5809 19.8896C34.1489 19.7616 33.7053 19.6595 33.25 19.5834V9.28856C33.25 9.15381 33.1939 9.03044 33.0816 8.91844C32.9696 8.80614 32.8462 8.75 32.7114 8.75H9.28856C9.15381 8.75 9.03044 8.80614 8.91844 8.91844C8.80615 9.03044 8.75 9.15381 8.75 9.28856V32.7114C8.75 32.8462 8.80615 32.9696 8.91844 33.0816C9.03044 33.1939 9.15381 33.25 9.28856 33.25H19.5396C19.6047 33.7345 19.7011 34.1927 19.8288 34.6246C19.9569 35.0566 20.1128 35.4734 20.2965 35.875H9.28856ZM8.75 33.25V8.75V19.5834V19.4521V33.25ZM12.6875 29.1104H19.7177C19.7941 28.6551 19.9074 28.2115 20.0576 27.7795C20.2081 27.3475 20.3719 26.9163 20.5489 26.4858H12.6875V29.1104ZM12.6875 22.3125H23.7834C24.537 21.6732 25.3413 21.1375 26.1962 20.7056C27.0511 20.2736 27.9665 19.9668 28.9424 19.7851V19.6875H12.6875V22.3125ZM12.6875 15.5142H29.3125V12.8896H12.6875V15.5142ZM21 7.60594C21.3792 7.60594 21.6927 7.48198 21.9406 7.23406C22.1885 6.98615 22.3125 6.6726 22.3125 6.29344C22.3125 5.91427 22.1885 5.60073 21.9406 5.35281C21.6927 5.10489 21.3792 4.98094 21 4.98094C20.6208 4.98094 20.3073 5.10489 20.0594 5.35281C19.8115 5.60073 19.6875 5.91427 19.6875 6.29344C19.6875 6.6726 19.8115 6.98615 20.0594 7.23406C20.3073 7.48198 20.6208 7.60594 21 7.60594ZM31.5 39.4761C29.3148 39.4761 27.456 38.7099 25.9236 37.1774C24.3912 35.645 23.625 33.7862 23.625 31.6011C23.625 29.4159 24.3912 27.5571 25.9236 26.0247C27.456 24.4923 29.3148 23.7261 31.5 23.7261C33.6852 23.7261 35.544 24.4923 37.0764 26.0247C38.6088 27.5571 39.375 29.4159 39.375 31.6011C39.375 33.7862 38.6088 35.645 37.0764 37.1774C35.544 38.7099 33.6852 39.4761 31.5 39.4761ZM30.7261 36.75H32.2739V32.375H36.6489V30.8271H32.2739V26.4521H30.7261V30.8271H26.3511V32.375H30.7261V36.75Z" fill="#CBA672"/>
  </g>
</svg>