<svg xmlns="http://www.w3.org/2000/svg" width="42" height="42" viewBox="0 0 42 42" fill="none">
  <mask id="mask0_1011_2957" style="mask-type:alpha" maskUnits="userSpaceOnUse" x="0" y="0" width="42" height="42">
    <rect width="42" height="42" fill="#D9D9D9"/>
  </mask>
  <g mask="url(#mask0_1011_2957)">
    <path d="M26.7614 14.2691C26.8737 13.1745 26.8384 12.2957 26.6556 11.6327C26.4727 10.9695 26.0425 10.2116 25.3649 9.35903C24.5168 8.2822 23.948 7.25189 23.6587 6.2681C23.3694 5.2843 23.2986 4.15978 23.4465 2.89453H25.9809C25.8147 4.16882 25.8876 5.14474 26.1997 5.82228C26.5115 6.49982 27.0196 7.32203 27.7239 8.28891C28.4374 9.25374 28.9164 10.1971 29.1611 11.1191C29.4055 12.0413 29.4538 13.0913 29.3059 14.2691H26.7614ZM33.25 14.2691C33.3623 13.1745 33.3225 12.2957 33.1306 11.6327C32.9386 10.9695 32.5039 10.2116 31.8264 9.35903C30.9782 8.2822 30.414 7.25189 30.1337 6.2681C29.8531 5.2843 29.7869 4.15978 29.9351 2.89453H32.4424C32.2761 4.16882 32.349 5.14474 32.6611 5.82228C32.9729 6.49982 33.481 7.32203 34.1854 8.28891C34.8988 9.25374 35.3779 10.1971 35.6226 11.1191C35.867 12.0413 35.9152 13.0913 35.7674 14.2691H33.25ZM10.9375 37.625C9.12479 37.625 7.57779 37.0181 6.2965 35.8042C5.0155 34.5905 4.375 33.0772 4.375 31.2642V22.2185C4.375 21.3928 4.56969 20.6242 4.95906 19.9128C5.34815 19.2018 5.88831 18.6208 6.57956 18.1698L20.8989 8.89134L21.4375 9.42991C21.9424 9.93478 22.2346 10.5349 22.3143 11.2302C22.3939 11.9258 22.2486 12.5732 21.8785 13.1723L19.4049 17.231H32.8125C33.185 17.231 33.4967 17.3565 33.7479 17.6077C33.9993 17.8591 34.125 18.171 34.125 18.5435C34.125 18.9159 33.9993 19.2277 33.7479 19.4788C33.4967 19.7303 33.185 19.856 32.8125 19.856H14.7035L18.5601 13.5218L8.00625 20.3604C7.68775 20.5512 7.44042 20.8115 7.26425 21.1413C7.08808 21.4712 7 21.8303 7 22.2185V31.2642C7 32.3504 7.38471 33.2445 8.15413 33.9465C8.92383 34.6489 9.85162 35 10.9375 35H31.0625C31.435 35 31.7467 35.1257 31.9979 35.3772C32.2493 35.6283 32.375 35.9401 32.375 36.3125C32.375 36.685 32.2493 36.9968 31.9979 37.2479C31.7467 37.4993 31.435 37.625 31.0625 37.625H10.9375ZM21.875 25.7788V23.1538H36.3125C36.685 23.1538 36.9967 23.2796 37.2479 23.531C37.4993 23.7821 37.625 24.0939 37.625 24.4663C37.625 24.8388 37.4993 25.1506 37.2479 25.4017C36.9967 25.6531 36.685 25.7788 36.3125 25.7788H21.875ZM21.875 31.7017V29.0772H34.5625C34.935 29.0772 35.2467 29.2027 35.4979 29.4538C35.7493 29.7053 35.875 30.0171 35.875 30.3892C35.875 30.7617 35.7493 31.0736 35.4979 31.325C35.2467 31.5762 34.935 31.7017 34.5625 31.7017H21.875Z" fill="#CBA672"/>
  </g>
</svg>