<svg xmlns="http://www.w3.org/2000/svg" width="45" height="45" viewBox="0 0 45 45" fill="none">
  <mask id="mask0_1111_256" style="mask-type:alpha" maskUnits="userSpaceOnUse" x="0" y="0" width="45" height="45">
    <rect width="45" height="45" fill="#D9D9D9"/>
  </mask>
  <g mask="url(#mask0_1111_256)">
    <path d="M4.6875 38.4375V35.625H21.0938V14.7802C20.2453 14.5589 19.5031 14.1394 18.8672 13.5216C18.2312 12.9038 17.7967 12.1466 17.5636 11.25H11.3583L16.875 24.5733C16.8391 25.9795 16.2284 27.1755 15.0431 28.1611C13.8581 29.1467 12.4375 29.6395 10.7812 29.6395C9.125 29.6395 7.70438 29.1467 6.51938 28.1611C5.33438 27.1755 4.72375 25.9795 4.6875 24.5733L10.2042 11.25H6.5625V8.4375H17.5636C17.8545 7.36781 18.4513 6.47547 19.3538 5.76047C20.2566 5.04516 21.3053 4.6875 22.5 4.6875C23.6947 4.6875 24.7434 5.04516 25.6463 5.76047C26.5487 6.47547 27.1455 7.36781 27.4364 8.4375H38.4375V11.25H34.7958L40.3125 24.5733C40.2762 25.9795 39.6656 27.1755 38.4806 28.1611C37.2956 29.1467 35.875 29.6395 34.2188 29.6395C32.5625 29.6395 31.1419 29.1467 29.9569 28.1611C28.7716 27.1755 28.1609 25.9795 28.125 24.5733L33.6417 11.25H27.4364C27.2033 12.1466 26.7687 12.9038 26.1328 13.5216C25.4969 14.1394 24.7547 14.5589 23.9062 14.7802V35.625H40.3125V38.4375H4.6875ZM30.577 24.4833H37.8605L34.2188 15.6961L30.577 24.4833ZM7.13953 24.4833H14.423L10.7812 15.6961L7.13953 24.4833ZM22.5 12.1875C23.1516 12.1875 23.705 11.9597 24.1603 11.5041C24.6159 11.0487 24.8438 10.4953 24.8438 9.84375C24.8438 9.19219 24.6159 8.63875 24.1603 8.18344C23.705 7.72781 23.1516 7.5 22.5 7.5C21.8484 7.5 21.295 7.72781 20.8397 8.18344C20.3841 8.63875 20.1562 9.19219 20.1562 9.84375C20.1562 10.4953 20.3841 11.0487 20.8397 11.5041C21.295 11.9597 21.8484 12.1875 22.5 12.1875Z" fill="#D7AE6F"/>
  </g>
</svg>