<svg xmlns="http://www.w3.org/2000/svg" width="45" height="45" viewBox="0 0 45 45" fill="none">
  <mask id="mask0_1111_248" style="mask-type:alpha" maskUnits="userSpaceOnUse" x="0" y="0" width="45" height="45">
    <rect width="45" height="45" fill="#D9D9D9"/>
  </mask>
  <g mask="url(#mask0_1111_248)">
    <path d="M12.5479 42.1875V27.9558L6.29199 17.8125L14.3868 4.6875H30.6131L38.7079 17.8125L32.452 27.9558V42.1875L22.5 38.8163L12.5479 42.1875ZM15.3604 38.2102L22.5 35.8341L29.6395 38.2102V30.9375H15.3604V38.2102ZM15.9553 7.5L9.58027 17.8125L15.9553 28.125H29.0446L35.4196 17.8125L29.0446 7.5H15.9553ZM20.5312 24.7861L14.542 18.8438L16.5468 16.8389L20.5312 20.8233L28.4531 12.8545L30.4579 14.8125L20.5312 24.7861Z" fill="#D7AE6F"/>
  </g>
</svg>